<?xml version="1.0" encoding="UTF-8" standalone="no"?>
<!DOCTYPE svg PUBLIC "-//W3C//DTD SVG 1.1//EN" "http://www.w3.org/Graphics/SVG/1.1/DTD/svg11.dtd">
<svg width="100%" height="100%" viewBox="0 0 1065 677" version="1.1" xmlns="http://www.w3.org/2000/svg" xmlns:xlink="http://www.w3.org/1999/xlink" xml:space="preserve" xmlns:serif="http://www.serif.com/" style="fill-rule:evenodd;clip-rule:evenodd;stroke-miterlimit:10;">
    <g transform="matrix(1,0,0,1,-685.735,-753.479)">
        <g id="Layer-1" serif:id="Layer 1" transform="matrix(4.16667,0,0,4.16667,-72.8863,-1091.88)">
            <g transform="matrix(-1,0,0,1,619.574,206.261)">
                <rect x="182.069" y="236.626" width="255.436" height="162.377" style="fill:rgb(0,102,179);"/>
            </g>
            <g transform="matrix(1,0,0,1,181.34,467.937)">
                <path d="M0,0L256.86,0" style="fill:none;fill-rule:nonzero;stroke:white;stroke-width:2px;"/>
            </g>
            <g transform="matrix(1,0,0,1,335.759,455.615)">
                <path d="M0,5.18C-0.668,3.45 -1.169,1.731 -1.523,0L-0.108,0C0.049,1.209 0.334,2.409 0.747,3.617L1.553,0L2.909,0L3.734,3.617C4.157,2.409 4.441,1.209 4.599,0L5.984,0C5.611,1.731 5.12,3.45 4.432,5.18L2.968,5.18L2.211,1.848L1.474,5.18L0,5.18Z" style="fill:white;fill-rule:nonzero;"/>
            </g>
            <g transform="matrix(1,0,0,1,343.409,455.615)">
                <path d="M0,5.18C-0.668,3.45 -1.169,1.731 -1.523,0L-0.108,0C0.049,1.209 0.334,2.409 0.747,3.617L1.553,0L2.909,0L3.734,3.617C4.157,2.409 4.441,1.209 4.599,0L5.984,0C5.611,1.731 5.12,3.45 4.432,5.18L2.968,5.18L2.211,1.848L1.474,5.18L0,5.18Z" style="fill:white;fill-rule:nonzero;"/>
            </g>
            <g transform="matrix(1,0,0,1,351.059,455.615)">
                <path d="M0,5.18C-0.668,3.45 -1.169,1.731 -1.523,0L-0.108,0C0.049,1.209 0.334,2.409 0.747,3.617L1.553,0L2.909,0L3.734,3.617C4.157,2.409 4.441,1.209 4.599,0L5.984,0C5.611,1.731 5.12,3.45 4.432,5.18L2.968,5.18L2.211,1.848L1.475,5.18L0,5.18Z" style="fill:white;fill-rule:nonzero;"/>
            </g>
            <g transform="matrix(-1,0,0,1,357.894,460.854)">
                <path d="M0.01,-1.465C-0.629,-1.465 -0.776,-1.238 -0.776,-0.727C-0.776,-0.217 -0.629,0 0.01,0C0.649,0 0.786,-0.217 0.786,-0.727C0.786,-1.238 0.649,-1.465 0.01,-1.465" style="fill:white;fill-rule:nonzero;"/>
            </g>
            <g transform="matrix(1,0,0,1,364.41,459.046)">
                <path d="M0.01,-1.68L-1.356,-1.68C-1.465,-2.182 -1.632,-2.437 -2.329,-2.437C-3.066,-2.437 -3.381,-2.172 -3.381,-0.835C-3.381,0.502 -3.066,0.757 -2.398,0.757C-1.651,0.757 -1.396,0.432 -1.356,-0.088L0.01,-0.088C-0.099,1.071 -0.619,1.877 -2.329,1.877C-4.383,1.877 -4.786,0.717 -4.786,-0.785C-4.786,-2.437 -4.295,-3.557 -2.261,-3.557C-0.767,-3.557 -0.128,-2.948 0.01,-1.68Z" style="fill:white;fill-rule:nonzero;"/>
            </g>
            <g transform="matrix(1,0,0,1,368.511,458.692)">
                <path d="M0,-0.973C-0.059,-1.916 -0.433,-2.083 -1.062,-2.083C-1.857,-2.083 -2.063,-1.809 -2.112,-0.973L0,-0.973ZM1.307,0.619C1.14,1.808 0.354,2.23 -1.052,2.23C-2.653,2.23 -3.527,1.68 -3.527,-0.541C-3.527,-2.024 -3.135,-3.203 -0.992,-3.203C0.825,-3.203 1.366,-2.359 1.366,-0.108L-2.122,-0.108C-2.073,0.875 -1.828,1.11 -1.062,1.11C-0.54,1.11 -0.226,1.011 -0.089,0.619L1.307,0.619Z" style="fill:white;fill-rule:nonzero;"/>
            </g>
            <g transform="matrix(1,0,0,1,371.786,462.878)">
                <path d="M0,-7.262C0.256,-6.004 0.639,-4.746 1.149,-3.489L2.28,-7.262L3.715,-7.262L1.867,-2.082C1.287,-0.442 1.091,0 -0.167,0C-0.54,0 -0.854,-0.039 -0.854,-0.039L-0.854,-1.11C-0.854,-1.11 -0.728,-1.09 -0.629,-1.09C-0.099,-1.09 0.266,-1.149 0.433,-1.946C-0.373,-3.714 -1.012,-5.492 -1.503,-7.262L0,-7.262Z" style="fill:white;fill-rule:nonzero;"/>
            </g>
            <g transform="matrix(1,0,0,1,0,72.653)">
                <rect x="376.339" y="381.095" width="1.366" height="7.047" style="fill:white;"/>
            </g>
            <g transform="matrix(1,0,0,1,381.393,459.802)">
                <path d="M0,-3.203C-0.914,-3.203 -1.248,-2.79 -1.248,-1.601C-1.248,-0.403 -0.914,0 0.01,0C0.914,0 1.258,-0.393 1.258,-1.611C1.258,-2.77 0.943,-3.203 0,-3.203M-0.01,1.12C-1.346,1.12 -2.653,0.6 -2.653,-1.601C-2.653,-3.469 -1.71,-4.323 0,-4.323C1.71,-4.323 2.663,-3.469 2.663,-1.601C2.663,0.295 1.681,1.12 -0.01,1.12" style="fill:white;fill-rule:nonzero;"/>
            </g>
            <g transform="matrix(1,0,0,1,388.383,458.468)">
                <path d="M0,-0.651C0,-1.446 -0.01,-1.859 -0.884,-1.859C-1.857,-1.859 -1.965,-1.348 -1.965,-0.13L-1.965,2.328L-3.331,2.328L-3.331,-2.852L-2.034,-2.852L-2.034,-2.183C-1.66,-2.684 -1.258,-2.979 -0.305,-2.979C1.022,-2.979 1.366,-2.409 1.366,-0.837L1.366,2.328L0,2.328L0,-0.651Z" style="fill:white;fill-rule:nonzero;"/>
            </g>
            <g transform="matrix(1,0,0,1,393.447,458.494)">
                <path d="M0,-1.777L-0.884,-1.777L-0.884,0.444C-0.884,1.17 -0.884,1.308 -0.334,1.308C-0.127,1.308 0,1.288 0,1.288L0,2.301C0,2.301 -0.472,2.379 -0.973,2.379C-2.25,2.379 -2.25,1.858 -2.25,0.463L-2.25,-1.777L-2.928,-1.777L-2.928,-2.879L-2.25,-2.879L-2.25,-4.156L-0.884,-4.156L-0.884,-2.879L0,-2.879L0,-1.777Z" style="fill:white;fill-rule:nonzero;"/>
            </g>
            <g transform="matrix(1,0,0,1,396.682,459.802)">
                <path d="M0,-3.203C-0.914,-3.203 -1.248,-2.79 -1.248,-1.601C-1.248,-0.403 -0.914,0 0.01,0C0.914,0 1.258,-0.393 1.258,-1.611C1.258,-2.77 0.943,-3.203 0,-3.203M-0.01,1.12C-1.346,1.12 -2.653,0.6 -2.653,-1.601C-2.653,-3.469 -1.71,-4.323 0,-4.323C1.71,-4.323 2.663,-3.469 2.663,-1.601C2.663,0.295 1.681,1.12 -0.01,1.12" style="fill:white;fill-rule:nonzero;"/>
            </g>
            <g transform="matrix(1,0,0,1,402.641,458.062)">
                <path d="M0,-1.453C-0.953,-1.453 -1.189,-0.981 -1.189,0.11C-1.189,1.466 -0.826,1.74 -0.029,1.74C0.727,1.74 1.12,1.495 1.12,0.139C1.12,-1.139 0.776,-1.453 0,-1.453M1.13,2.734L1.13,2.241C0.786,2.773 0.255,2.86 -0.413,2.86C-2.015,2.851 -2.595,1.81 -2.595,0.129C-2.595,-1.886 -1.77,-2.573 -0.433,-2.573C0.432,-2.573 0.854,-2.288 1.081,-1.993L1.081,-4.313L2.446,-4.313L2.446,2.734L1.13,2.734Z" style="fill:white;fill-rule:nonzero;"/>
            </g>
            <g transform="matrix(1,0,0,1,409.227,458.005)">
                <path d="M0,0.402L-0.953,0.56C-1.474,0.638 -1.847,0.746 -1.847,1.297C-1.847,1.689 -1.65,1.906 -1.041,1.906C-0.206,1.906 0,1.454 0,0.815L0,0.402ZM-3.056,-0.817C-2.987,-2.153 -2.221,-2.516 -0.825,-2.516C0.609,-2.516 1.366,-2.133 1.366,-1.002L1.366,2.791L0.06,2.791L0.06,2.397C-0.206,2.672 -0.707,2.918 -1.532,2.918C-2.771,2.918 -3.213,2.368 -3.213,1.483C-3.213,0.334 -2.466,-0.099 -1.709,-0.217L0,-0.483L0,-0.797C0,-1.278 -0.245,-1.416 -0.884,-1.416C-1.562,-1.416 -1.699,-1.258 -1.769,-0.817L-3.056,-0.817Z" style="fill:white;fill-rule:nonzero;"/>
            </g>
            <g transform="matrix(1,0,0,1,412.76,462.878)">
                <path d="M0,-7.262C0.256,-6.004 0.639,-4.746 1.149,-3.489L2.28,-7.262L3.715,-7.262L1.867,-2.082C1.287,-0.442 1.091,0 -0.167,0C-0.54,0 -0.854,-0.039 -0.854,-0.039L-0.854,-1.11C-0.854,-1.11 -0.727,-1.09 -0.629,-1.09C-0.098,-1.09 0.266,-1.149 0.433,-1.946C-0.373,-3.714 -1.012,-5.492 -1.503,-7.262L0,-7.262Z" style="fill:white;fill-rule:nonzero;"/>
            </g>
            <g transform="matrix(-1,0,0,1,417.214,460.854)">
                <path d="M0.01,-1.465C-0.629,-1.465 -0.776,-1.238 -0.776,-0.727C-0.776,-0.217 -0.629,0 0.01,0C0.649,0 0.786,-0.217 0.786,-0.727C0.786,-1.238 0.649,-1.465 0.01,-1.465" style="fill:white;fill-rule:nonzero;"/>
            </g>
            <g transform="matrix(1,0,0,1,0,72.653)">
                <rect x="419.26" y="381.095" width="1.366" height="7.047" style="fill:white;"/>
            </g>
            <g transform="matrix(1,0,0,1,421.983,460.795)">
                <path d="M0,-7.047L1.366,-7.047L1.366,-3.264L3.047,-5.18L4.727,-5.18L2.919,-3.214L4.796,0L3.214,0L1.956,-2.251L1.366,-1.642L1.366,0L0,0L0,-7.047Z" style="fill:white;fill-rule:nonzero;"/>
            </g>
            <g transform="matrix(1,0,0,1,237.77,576.968)">
                <path d="M0,-28.568L-15.521,-28.568L-15.521,13.991L-30.897,13.991L-30.897,-28.568L-46.42,-28.568L-47.439,-29.589L-47.439,-42.559L1.02,-42.559L1.02,-29.589L0,-28.568Z" style="fill:white;fill-rule:nonzero;"/>
            </g>
            <g transform="matrix(1,0,0,1,264.092,578.278)">
                <path d="M0,-30.971C-2.139,-30.971 -4.117,-30.545 -5.938,-29.696C-7.761,-28.845 -9.328,-27.716 -10.64,-26.308C-11.951,-24.898 -12.983,-23.258 -13.736,-21.388C-14.49,-19.519 -14.866,-17.536 -14.866,-15.45C-14.866,-13.409 -14.49,-11.442 -13.736,-9.546C-12.983,-7.652 -11.951,-6 -10.64,-4.591C-9.328,-3.182 -7.761,-2.053 -5.938,-1.202C-4.117,-0.352 -2.139,0.072 0,0.072C2.138,0.072 4.118,-0.352 5.939,-1.202C7.761,-2.053 9.327,-3.182 10.64,-4.591C11.95,-6 12.982,-7.652 13.736,-9.546C14.489,-11.442 14.866,-13.409 14.866,-15.45C14.866,-17.536 14.489,-19.519 13.736,-21.388C12.982,-23.258 11.95,-24.898 10.64,-26.308C9.327,-27.716 7.761,-28.845 5.939,-29.696C4.118,-30.545 2.138,-30.971 0,-30.971M0,14.428C-4.179,14.428 -8.089,13.649 -11.732,12.095C-15.376,10.542 -18.559,8.417 -21.278,5.721C-24,3.022 -26.149,-0.146 -27.728,-3.79C-29.308,-7.433 -30.097,-11.32 -30.097,-15.45C-30.097,-19.578 -29.308,-23.465 -27.728,-27.109C-26.149,-30.753 -24,-33.922 -21.278,-36.618C-18.559,-39.316 -15.376,-41.451 -11.732,-43.031C-8.089,-44.611 -4.179,-45.399 0,-45.399C4.129,-45.399 8.026,-44.611 11.696,-43.031C15.363,-41.451 18.558,-39.316 21.278,-36.618C23.999,-33.922 26.148,-30.753 27.728,-27.109C29.306,-23.465 30.097,-19.578 30.097,-15.45C30.097,-11.32 29.306,-7.433 27.728,-3.79C26.148,-0.146 23.999,3.022 21.278,5.721C18.558,8.417 15.363,10.542 11.696,12.095C8.026,13.649 4.129,14.428 0,14.428" style="fill:white;fill-rule:nonzero;"/>
            </g>
            <g transform="matrix(1,0,0,1,315.982,577.186)">
                <path d="M0,-29.005L-8.672,-29.005L-8.672,-0.001L0,-0.001C2.04,-0.001 3.946,-0.377 5.721,-1.132C7.493,-1.884 9.036,-2.918 10.349,-4.228C11.659,-5.539 12.691,-7.081 13.444,-8.856C14.198,-10.628 14.574,-12.511 14.574,-14.503C14.574,-16.494 14.198,-18.377 13.444,-20.151C12.691,-21.925 11.659,-23.466 10.349,-24.778C9.036,-26.09 7.493,-27.12 5.721,-27.875C3.946,-28.628 2.04,-29.005 0,-29.005M1.749,13.772L-23.537,13.772L-23.537,-42.777L1.749,-42.777C5.685,-42.777 9.376,-42.036 12.825,-40.556C16.274,-39.073 19.286,-37.058 21.862,-34.507C24.437,-31.957 26.464,-28.956 27.946,-25.508C29.428,-22.056 30.169,-18.389 30.169,-14.503C30.169,-10.616 29.428,-6.948 27.946,-3.499C26.464,-0.049 24.437,2.949 21.862,5.5C19.286,8.051 16.274,10.067 12.825,11.549C9.376,13.031 5.685,13.772 1.749,13.772" style="fill:white;fill-rule:nonzero;"/>
            </g>
            <g transform="matrix(1,0,0,1,364.435,570.336)">
                <path d="M0,-15.304L-4.518,-0.366L4.445,-0.366L0,-15.304ZM11.587,20.623L8.672,12.825L-8.744,12.825L-11.66,20.623L-27.619,20.623L-6.705,-35.927L6.632,-35.927L27.546,20.623L11.587,20.623Z" style="fill:white;fill-rule:nonzero;"/>
            </g>
            <g transform="matrix(1,0,0,1,409.112,553.939)">
                <path d="M0,17.56L0,37.019L-16.105,37.019L-16.105,17.56L-35.854,-19.459L-18.072,-19.459L-8.018,0.217L1.967,-19.459L19.748,-19.459L0,17.56Z" style="fill:white;fill-rule:nonzero;"/>
            </g>
            <g transform="matrix(1,0,0,1,213.377,481.354)">
                <path d="M0,48.068C-3.353,48.068 -6.481,47.434 -9.386,46.169C-12.29,44.901 -14.823,43.167 -16.987,40.964C-19.151,38.761 -20.857,36.208 -22.104,33.303C-23.353,30.399 -23.976,27.309 -23.976,24.034C-23.976,20.759 -23.353,17.671 -22.104,14.765C-20.857,11.862 -19.151,9.308 -16.987,7.104C-14.823,4.903 -12.29,3.166 -9.386,1.9C-6.481,0.633 -3.353,0 0,0C3.042,0 5.966,0.555 8.772,1.667C11.579,2.777 14.171,4.386 16.55,6.491L7.192,14.678C4.932,13.08 2.554,12.28 0.06,12.28C-1.579,12.28 -3.099,12.592 -4.503,13.215C-5.906,13.84 -7.114,14.698 -8.128,15.79C-9.142,16.88 -9.94,18.138 -10.526,19.559C-11.11,20.985 -11.403,22.475 -11.403,24.034C-11.403,25.633 -11.11,27.143 -10.526,28.567C-9.94,29.99 -9.142,31.237 -8.128,32.309C-7.114,33.381 -5.915,34.238 -4.531,34.881C-3.148,35.526 -1.638,35.848 0,35.848C1.872,35.848 3.616,35.419 5.233,34.561C6.851,33.704 8.265,32.495 9.474,30.934L19.123,38.772C16.704,41.733 13.85,44.025 10.556,45.641C7.261,47.259 3.743,48.068 0,48.068" style="fill:white;fill-rule:nonzero;"/>
            </g>
            <g transform="matrix(1,0,0,1,232.523,482.64)">
                <path d="M0,45.38L0,0L36.197,0L36.197,10.819L11.813,10.819L11.813,17.311L34.794,17.311L34.794,28.128L11.813,28.128L11.813,34.619L36.197,34.619L36.197,45.38L0,45.38Z" style="fill:white;fill-rule:nonzero;"/>
            </g>
            <g transform="matrix(1,0,0,1,296.42,498.313)">
                <path d="M0,14.093L0,29.707L-12.923,29.707L-12.923,14.093L-28.771,-15.614L-14.503,-15.614L-6.433,0.174L1.579,-15.614L15.848,-15.614L0,14.093Z" style="fill:white;fill-rule:nonzero;"/>
            </g>
            <g transform="matrix(1,0,0,1,311.882,482.64)">
                <path d="M0,45.38L0,0L12.573,0L12.573,34.151L36.433,34.151L36.433,45.38L0,45.38Z" style="fill:white;fill-rule:nonzero;"/>
            </g>
            <g transform="matrix(1,0,0,1,364.911,481.412)">
                <path d="M0,48.01C-3.354,48.01 -6.491,47.386 -9.416,46.14C-12.339,44.892 -14.894,43.188 -17.076,41.023C-19.26,38.86 -20.984,36.314 -22.252,33.392C-23.52,30.467 -24.152,27.349 -24.152,24.033C-24.152,20.722 -23.52,17.602 -22.252,14.679C-20.984,11.754 -19.26,9.21 -17.076,7.046C-14.894,4.884 -12.339,3.168 -9.416,1.901C-6.491,0.634 -3.354,0 0,0C3.313,0 6.441,0.634 9.385,1.901C12.328,3.168 14.892,4.884 17.076,7.046C19.258,9.21 20.982,11.754 22.25,14.679C23.517,17.602 24.151,20.722 24.151,24.033C24.151,27.349 23.517,30.467 22.25,33.392C20.982,36.314 19.258,38.86 17.076,41.023C14.892,43.188 12.328,44.892 9.385,46.14C6.441,47.386 3.313,48.01 0,48.01" style="fill:white;fill-rule:nonzero;"/>
            </g>
            <g transform="matrix(1,0,0,1,415.743,482.64)">
                <path d="M0,45.32L-15.729,21.111L-15.729,45.32L-27.836,45.32L-27.836,0L-15.789,0L0,24.443L0,0L12.163,0L12.163,45.32L0,45.32Z" style="fill:white;fill-rule:nonzero;"/>
            </g>
            <g transform="matrix(1,0,0,1,356.672,506.077)">
                <path d="M0,-3.001C-0.004,-3.001 -0.008,-3.005 -0.017,-3.005C0.019,-3.079 0.048,-3.131 0.048,-3.131C0.048,-3.131 0.048,-3.001 0,-3.001M7.693,16.378C7.527,16.378 7.386,16.347 7.265,16.278C6.611,15.91 3.541,15.206 3.105,14.829C2.677,14.462 1.964,12.167 1.898,11.997L0.108,5.919L0.308,3.892C0.308,3.892 -0.285,0.458 -0.178,0.091C-0.06,-0.294 -1.154,-3.866 -0.881,-4.406C-0.843,-4.483 -0.799,-4.515 -0.761,-4.515C-0.519,-4.515 -0.259,-3.347 -0.116,-3.122C-0.072,-3.053 -0.042,-3.014 -0.017,-3.005C-0.087,-2.85 -0.164,-2.612 0.048,-2.612C0.092,-2.612 0.139,-2.616 0.199,-2.638C0.753,-2.798 0.108,-4.558 0.472,-5.851C0.879,-7.13 1.476,-8.047 1.476,-8.358C1.476,-8.687 1.25,-10.39 1.25,-10.39L1.312,-10.926L0.472,-11.786C0.472,-11.786 -1.972,-12.742 -0.881,-12.742C0.199,-12.742 0.986,-12.357 0.986,-12.357C0.986,-12.357 1.302,-11.488 1.747,-11.488C1.782,-11.488 1.817,-11.493 1.855,-11.505C2.331,-11.675 2.997,-13.706 2.997,-14.014C2.997,-14.333 2.4,-14.618 2.4,-14.926C2.4,-15.25 3.166,-15.786 3.166,-15.786L2.556,-16.746L4.424,-16.118L5.729,-16.118L5.729,-16.49L3.541,-17.433C3.541,-17.433 2.989,-17.261 2.525,-17.261C2.37,-17.261 2.227,-17.282 2.114,-17.329C1.687,-17.554 1.312,-17.606 1.312,-17.606L0.753,-17.433C0.602,-17.433 -0.064,-18.726 0.663,-18.726C0.688,-18.726 0.719,-18.722 0.753,-18.718C0.753,-18.718 1.476,-19.379 1.687,-19.379C1.898,-19.379 4.104,-19.197 4.104,-19.197L7.861,-15.829L9.712,-14.294L11.484,-10.926L13.555,-8.047C13.668,-7.878 13.114,-6.806 13.555,-6.711C13.581,-6.706 13.603,-6.702 13.629,-6.702C13.788,-6.702 13.958,-6.827 14.122,-6.948C14.276,-7.073 14.429,-7.194 14.537,-7.194C14.606,-7.194 14.663,-7.152 14.697,-7.035C14.873,-6.485 16.185,-2.53 16.288,-2.258C16.396,-1.993 17.932,-0.019 18.42,0.298C18.908,0.613 19.846,4.89 19.738,6.113C19.617,7.351 18.358,10.942 17.369,11.729C16.396,12.543 13.668,14.419 12.625,14.57C11.593,14.739 10.166,15.149 9.833,15.486C9.569,15.751 8.444,16.378 7.693,16.378" style="fill:rgb(0,102,179);fill-rule:nonzero;"/>
            </g>
        </g>
    </g>
</svg>
