<?xml version="1.0" encoding="UTF-8" standalone="no"?>
<!DOCTYPE svg PUBLIC "-//W3C//DTD SVG 1.1//EN" "http://www.w3.org/Graphics/SVG/1.1/DTD/svg11.dtd">
<svg width="100%" height="100%" viewBox="0 0 971 375" version="1.1" xmlns="http://www.w3.org/2000/svg" xmlns:xlink="http://www.w3.org/1999/xlink" xml:space="preserve" xmlns:serif="http://www.serif.com/" style="fill-rule:evenodd;clip-rule:evenodd;stroke-linejoin:round;stroke-miterlimit:2;">
    <g transform="matrix(4.16667,0,0,4.16667,0,0)">
        <path d="M124.336,27.457L118.303,27.457L114.9,32.974L120.93,32.974L124.336,27.457Z" style="fill:rgb(229,29,42);fill-rule:nonzero;"/>
        <path d="M160.443,16.338C160.443,16.338 156.675,17.839 152.296,22.667C147.901,27.514 145.368,32.934 147.256,34.371C147.978,34.921 149.649,35.013 152.69,32.281C155.061,30.151 157.473,27.362 159.109,23.37C161.07,18.584 160.444,16.394 160.443,16.338ZM184.43,25.015C179.559,22.522 176.005,19.474 172.299,17.573C168.762,15.759 166.478,15.007 163.627,15.387C163.153,15.45 162.446,15.68 162.446,15.68C162.446,15.68 163.923,20.7 158.075,29.144C152.151,37.698 146.771,37.654 145.244,35.29C143.642,32.81 145.704,27.75 149.157,23.252C152.77,18.546 159.12,14.635 159.12,14.635C159.12,14.635 157.093,13.399 152.119,16.219C147.275,18.965 138.909,25.501 131.179,36.526C123.449,47.55 121.904,53.617 120.787,58.393C119.671,63.168 120.692,68.277 125.991,68.277C131.289,68.277 137.443,60.198 139.178,57.387C142.405,52.157 144.512,44.137 140.116,45.242C137.948,45.787 136.195,48.19 135.091,50.497C133.955,52.869 133.499,55.138 133.499,55.138C133.499,55.138 131.669,55.791 129.21,57.632C126.751,59.474 125.147,61.232 125.147,61.232C125.147,61.232 125.159,57.419 128.2,51.241C131.242,45.063 136.825,42.236 139.985,41.975C142.837,41.739 146.543,44.16 143.407,53.095C140.27,62.028 131.004,72.863 121.263,73.005C112.276,73.136 106.384,61.663 118.887,41.642C132.715,19.498 148.967,12.702 154.241,11.942C159.516,11.182 161.227,13.51 161.227,13.51C161.227,13.51 165.646,11.467 171.253,11.847C177.694,12.284 182.679,16.839 189.247,20.036C187.529,21.701 185.897,23.409 184.43,25.015ZM213.356,17.549C208.899,20.418 202.718,23.014 196.787,22.443C195.287,24 193.678,25.795 192.064,27.758C202.36,29.789 211.366,23.411 216.16,17.977C219.15,14.588 220.627,11.562 220.627,11.562C220.627,11.562 217.772,14.708 213.356,17.549ZM199.671,46.553C199.801,46.326 199.861,46.125 199.861,46.125C199.861,46.125 199.743,45.259 198.918,45.222C197.938,45.178 196.598,45.365 193.097,49.246C189.61,53.112 187.488,56.469 185.652,59.826C183.645,63.497 182.837,66.23 183.99,66.93C184.315,67.128 184.806,67.151 185.202,67.055C185.987,66.865 186.868,66.138 188.218,64.579C188.85,63.85 189.55,62.812 190.388,61.664C192.694,58.505 198.515,48.556 199.671,46.553ZM163.252,50.795C163.837,49.263 164.578,46.259 163.026,45.084C161.363,43.825 157.122,46.772 157.1,49.781C157.077,52.868 160.088,54.26 160.815,54.457C161.227,54.568 161.37,54.552 161.569,54.22C161.698,54.003 162.666,52.327 163.252,50.795ZM160.049,56.407C159.938,56.367 158.564,55.739 157.134,54.547C155.711,53.362 154.99,51.995 154.935,51.892C154.88,51.789 154.817,51.869 154.753,51.955C154.689,52.043 154.432,52.268 152.166,55.594C149.901,58.921 146.437,65.78 149.585,66.944C151.599,67.689 154.949,64.166 156.779,61.826C158.477,59.653 160.065,56.89 160.152,56.692C160.239,56.494 160.16,56.446 160.049,56.407ZM195.71,64.317C194.855,65.687 193.889,68.301 196.708,66.669C200.142,64.683 205.032,57.26 205.032,57.26L207.242,57.26C207.242,57.26 204.326,61.872 200.526,66.083C197.045,69.94 192.802,73.446 189.811,73.1C186.318,72.696 187.41,68.11 187.41,68.11C187.41,68.11 182.397,73.433 178.952,73.053C174.286,72.538 175.705,66.764 175.705,66.764C175.705,66.764 170.43,73.259 166.835,73.053C161.192,72.729 162.605,65.844 164.173,61.03C165.014,58.45 165.791,56.414 165.791,56.414C165.791,56.414 165.23,56.562 164.031,56.738C163.404,56.83 162.257,56.89 162.257,56.89C162.257,56.89 159.913,61.039 158.037,63.534C156.159,66.028 148.174,74.612 143.471,72.895C139.13,71.31 140.559,64.654 143.09,59.367C146.78,51.66 157.156,40.581 163.145,42.031C169.35,43.534 163.289,54.865 163.289,54.865C163.289,54.865 163.296,54.908 163.358,54.932C163.482,54.981 163.802,55.011 164.554,54.869C165.746,54.642 166.824,54.19 166.824,54.19C166.824,54.19 173.059,41.119 179.95,32.566C186.84,24.012 200.586,9.285 205.991,12.845C207.313,13.716 206.71,16.736 204.935,20.398C204.15,20.646 203.335,20.865 202.498,21.039C203.688,18.88 204.476,17.06 204.708,15.791C205.516,11.372 195.204,20.686 187.838,30.712C180.473,40.739 176.053,49.815 176.053,49.815C176.053,49.815 177.538,48.975 179.855,47.107C182.273,45.157 185.6,42.101 189.216,38.363C191.645,35.852 194.503,32.694 197.178,29.166C197.977,29.125 198.759,29.044 199.523,28.923C196.539,32.943 193.4,36.612 190.737,39.314C187.807,42.285 184.621,45.489 181.85,47.82C177.452,51.521 174.057,53.617 174.057,53.617C174.057,53.617 167.6,66.608 171.111,67.445C173.171,67.937 177.241,61.664 177.241,61.664C177.241,61.664 182.547,53.554 185.747,49.911C190.114,44.938 193.872,42.071 197.627,42.007C199.818,41.969 201.112,44.304 201.112,44.304L202.142,42.711L208.486,42.711C208.486,42.711 196.653,62.807 195.71,64.317ZM213.356,17.549C208.899,20.418 202.718,23.014 196.787,22.443C195.287,24 193.678,25.795 192.064,27.758C202.36,29.789 211.366,23.411 216.16,17.977C219.15,14.588 220.627,11.562 220.627,11.562C220.627,11.562 217.772,14.708 213.356,17.549ZM95.791,46.537C98.357,43.02 105.43,30.697 105.43,30.697C105.43,30.696 105.313,29.831 104.488,29.794C103.508,29.75 101.888,30.079 98.632,34.141C95.377,38.204 92.876,41.445 91.039,44.802C89.032,48.473 88.153,51.063 89.305,51.764C89.63,51.962 90.122,51.986 90.517,51.889C91.274,51.701 92.255,50.948 93.605,49.388C94.237,48.658 94.954,47.685 95.791,46.537ZM63.43,29.893C61.767,28.633 57.526,31.581 57.504,34.59C57.481,37.677 61.335,38.556 61.83,38.579C61.83,38.579 62.266,38.696 62.439,38.33C62.547,38.103 63.07,37.136 63.656,35.604C64.241,34.072 64.983,31.068 63.43,29.893ZM60.92,40.517C60.809,40.478 59.209,40.018 57.649,39.021C56.089,38.023 55.368,36.542 55.312,36.438C55.257,36.336 55.193,36.415 55.13,36.502C55.067,36.589 54.734,37.017 52.469,40.343C50.204,43.67 46.846,50.481 49.994,51.645C52.008,52.389 55.387,48.853 57.217,46.513C58.915,44.341 60.935,41.001 61.023,40.803C61.11,40.605 61.03,40.557 60.92,40.517ZM110.19,42.545L112.4,42.545C112.4,42.545 101.335,58.546 95.078,57.823C91.586,57.419 92.62,53.106 92.62,53.106C92.62,53.106 87.706,58.851 83.222,57.704C79.136,56.658 81.767,49.863 81.767,49.863C81.302,50.052 72.465,60.024 66.258,57.632C59.761,55.129 63.126,46.783 64.364,44.276C65.41,42.16 66.567,40.098 66.567,40.098C66.567,40.098 65.569,40.383 64.951,40.525C64.333,40.668 63.391,40.85 63.391,40.85C63.391,40.85 60.318,45.848 58.441,48.342C56.564,50.837 48.58,59.414 43.876,57.704C39.171,55.993 40.33,49.417 42.973,44.184C47.258,35.702 57.427,25.279 63.549,26.839C69.736,28.416 64.618,38.458 64.618,38.458C64.618,38.458 65.85,38.615 68.8,36.605C73.053,33.706 78.647,25.905 84.719,26.816C87.57,27.243 90.226,30.17 86.596,35.726C85.432,37.508 83.483,39.105 81.987,37.531C81.06,36.557 81.867,34.767 82.842,33.54C84.22,31.805 86.121,32.043 86.121,32.043C86.121,32.043 87.119,29.738 84.577,29.786C82.51,29.824 77.285,34.64 74.336,39.504C71.627,43.97 67.533,51.58 71.651,53.237C75.429,54.758 82.605,46.228 85.931,41.761C89.257,37.294 96.823,27.159 103.181,26.744C105.367,26.602 106.674,28.598 106.674,28.598L107.41,27.434L113.754,27.434C113.754,27.434 101.791,47.423 100.853,48.936C100.116,50.124 99.142,52.785 101.851,51.289C104.559,49.792 110.19,42.545 110.19,42.545ZM106.741,74.572C101.933,71.193 96.077,69.703 90.758,69.916C85.38,70.131 82.966,74.147 82.966,74.147C80.535,69.916 75.738,67.318 68.325,67.382C56.353,67.523 44.47,73.053 35.061,73.053C26.029,73.053 19.448,67.383 19.664,57.308C20.044,39.646 34.966,23.727 46.122,16.559C52.532,12.44 57.902,11.218 61.416,11.609C63.977,11.894 67.062,14.853 65.117,19.213C62.266,25.604 58.321,25.069 58.463,22.016C58.545,20.034 59.866,18.785 60.855,18.102C61.488,17.665 62.6,17.54 63.181,17.529C63.742,17.051 64.175,13.558 59.58,14.711C54.986,15.864 49.459,20.377 44.186,26.193C38.911,32.009 30.712,43.039 28.684,54.602C27.743,59.969 28.376,69.743 41.08,69.631C51.851,69.536 67.754,62.44 82.359,62.567C88.03,62.616 92.964,64.141 96.811,66.518C100.602,68.86 105.137,72.254 106.741,74.572Z" style="fill:rgb(229,29,42);fill-rule:nonzero;"/>
        <path d="M202.763,70.524L203.333,70.524C203.4,70.524 203.454,70.505 203.493,70.469C203.532,70.433 203.551,70.384 203.551,70.323C203.551,70.261 203.532,70.212 203.493,70.175C203.454,70.139 203.4,70.121 203.333,70.121L202.763,70.121L202.763,70.524ZM203.996,70.687C203.929,70.796 203.834,70.879 203.711,70.935L204.256,71.741L203.652,71.741L203.165,70.986L202.763,70.986L202.763,71.741L202.234,71.741L202.234,69.667L203.434,69.667C203.635,69.667 203.796,69.731 203.916,69.857C204.037,69.983 204.097,70.138 204.097,70.323C204.097,70.457 204.063,70.579 203.996,70.687ZM204.076,72.333C204.358,72.172 204.578,71.954 204.735,71.673C204.891,71.394 204.97,71.078 204.97,70.725C204.97,70.378 204.891,70.065 204.735,69.786C204.578,69.505 204.357,69.286 204.072,69.126C203.787,68.967 203.465,68.887 203.107,68.887C202.748,68.887 202.427,68.967 202.142,69.126C201.856,69.286 201.635,69.505 201.478,69.786C201.322,70.065 201.244,70.378 201.244,70.725C201.244,71.078 201.322,71.394 201.478,71.673C201.635,71.954 201.855,72.172 202.138,72.333C202.42,72.492 202.743,72.572 203.107,72.572C203.47,72.572 203.793,72.492 204.076,72.333ZM204.311,68.741C204.671,68.945 204.955,69.223 205.163,69.576C205.37,69.928 205.473,70.311 205.473,70.725C205.473,71.145 205.37,71.53 205.163,71.879C204.955,72.229 204.671,72.505 204.311,72.709C203.95,72.915 203.549,73.016 203.107,73.016C202.664,73.016 202.263,72.915 201.902,72.709C201.541,72.505 201.258,72.229 201.051,71.879C200.844,71.53 200.74,71.145 200.74,70.725C200.74,70.311 200.844,69.928 201.051,69.576C201.258,69.223 201.541,68.945 201.902,68.741C202.263,68.537 202.664,68.434 203.107,68.434C203.549,68.434 203.95,68.537 204.311,68.741Z" style="fill:rgb(229,29,42);fill-rule:nonzero;"/>
    </g>
</svg>
