<?xml version="1.0" encoding="UTF-8" standalone="no"?>
<!DOCTYPE svg PUBLIC "-//W3C//DTD SVG 1.1//EN" "http://www.w3.org/Graphics/SVG/1.1/DTD/svg11.dtd">
<svg width="100%" height="100%" viewBox="0 0 1148 670" version="1.1" xmlns="http://www.w3.org/2000/svg" xmlns:xlink="http://www.w3.org/1999/xlink" xml:space="preserve" xmlns:serif="http://www.serif.com/" style="fill-rule:evenodd;clip-rule:evenodd;stroke-linejoin:round;stroke-miterlimit:2;">
    <g transform="matrix(1,0,0,1,-1184.52,-913.855)">
        <g transform="matrix(4.16667,0,0,4.16667,0,-256.445)">
            <path d="M391.46,374.823L379.503,374.823C379.538,372.046 379.589,367.104 379.66,359.987C379.726,352.868 379.761,342.655 379.761,329.347C379.761,324.081 379.745,317.169 379.71,308.618C379.674,300.071 379.604,291.196 379.503,281.999L391.46,281.999C391.39,288.612 391.327,296.292 391.281,305.052C391.226,313.81 391.202,320.958 391.202,326.501C391.202,340.556 391.233,351.425 391.304,359.122C391.37,366.817 391.425,372.046 391.46,374.823Z" style="fill:rgb(0,74,141);fill-rule:nonzero;"/>
        </g>
        <g transform="matrix(4.16667,0,0,4.16667,0,-259.261)">
            <path d="M468.075,347.895C468.075,352.532 466.817,356.702 464.312,360.407C461.8,364.12 458.163,367.155 453.394,369.517C449.151,371.601 444.503,373.122 439.438,374.071C434.37,375.022 428.571,375.499 422.052,375.499C417.225,375.499 412.269,375.433 407.18,375.298C402.091,375.173 399.255,375.085 398.672,375.048C398.771,366.171 398.841,357.794 398.88,349.909C398.912,342.026 398.931,334.503 398.931,327.337C398.931,313.745 398.888,302.983 398.802,295.058C398.711,287.128 398.672,282.997 398.672,282.675C399.354,282.626 402.041,282.501 406.734,282.302C411.427,282.103 415.989,281.999 420.416,281.999C425.423,281.999 430.048,282.313 434.28,282.933C438.513,283.556 442.091,284.417 445.013,285.52C449.44,287.181 452.913,289.565 455.444,292.669C457.972,295.776 459.239,299.585 459.239,304.097C459.239,308.837 457.642,313.036 454.454,316.698C451.263,320.36 447.62,322.854 443.538,324.188L443.538,324.88C446.903,325.161 450.177,325.915 453.347,327.138C456.524,328.368 459.31,330.118 461.702,332.388C463.8,334.382 465.39,336.585 466.462,338.995C467.538,341.407 468.075,344.376 468.075,347.895M455.601,348.101C455.601,345.755 455.157,343.651 454.28,341.79C453.403,339.929 452.081,338.149 450.323,336.442C448.663,334.882 446.382,333.616 443.472,332.653C440.565,331.688 437.405,331.202 433.981,331.202C431.249,331.202 429.034,331.226 427.351,331.272C425.665,331.319 424.56,331.339 424.019,331.339L422.847,323.003C426.45,322.911 429.632,322.511 432.388,321.796C435.14,321.081 437.597,320.011 439.739,318.583C441.784,317.202 443.472,315.438 444.786,313.296C446.104,311.153 446.759,308.745 446.759,306.075C446.759,303.265 446.032,300.835 444.565,298.788C443.108,296.739 441.106,295.11 438.571,293.911C436.421,292.948 433.788,292.222 430.665,291.735C427.552,291.255 424.206,291.013 420.651,291.013C418.354,291.013 416.247,291.05 414.323,291.124C412.395,291.2 411.162,291.235 410.63,291.235C410.497,297.962 410.423,305.104 410.399,312.661C410.376,320.218 410.368,325.702 410.368,329.11C410.368,337.038 410.407,344.997 410.497,352.989C410.583,360.985 410.63,365.257 410.63,365.812C411.604,365.851 412.906,365.892 414.541,365.952C416.173,366.007 417.744,366.034 419.255,366.034C424.858,366.034 430.065,365.761 434.872,365.21C439.669,364.657 443.726,363.507 447.046,361.757C449.776,360.333 451.88,358.472 453.372,356.173C454.853,353.874 455.601,351.181 455.601,348.101Z" style="fill:rgb(0,74,141);fill-rule:nonzero;"/>
        </g>
        <g transform="matrix(4.16667,0,0,4.16667,0,-255.518)">
            <path d="M519.962,348.517C519.962,353.284 518.774,357.462 516.405,361.054C514.028,364.646 510.833,367.548 506.821,369.771C503.147,371.81 498.944,373.345 494.19,374.39C489.444,375.431 484.181,375.95 478.409,375.95C475.271,375.95 472.026,375.849 468.677,375.653C465.321,375.448 463.38,375.325 462.841,375.274L462.255,365.589C462.938,365.679 464.843,365.856 467.972,366.108C471.101,366.362 474.79,366.487 479.04,366.487C481.63,366.487 484.981,366.159 489.089,365.497C493.185,364.841 496.341,363.993 498.544,362.956C501.425,361.593 503.632,359.944 505.175,358.017C506.714,356.085 507.485,353.636 507.485,350.669C507.485,347.567 506.714,344.94 505.179,342.786C503.64,340.632 501.091,338.56 497.522,336.565C495.224,335.271 492.247,333.81 488.581,332.188C484.919,330.569 481.622,328.903 478.698,327.188C473.718,324.319 470.163,321.183 468.034,317.78C465.911,314.374 464.856,310.587 464.856,306.419C464.856,302.159 465.819,298.466 467.749,295.339C469.681,292.214 472.185,289.542 475.267,287.317C478.397,285.095 482.222,283.431 486.745,282.317C491.267,281.206 496.292,280.649 501.813,280.649C504.845,280.649 507.915,280.716 511.017,280.847C514.124,280.981 515.899,281.065 516.333,281.101L517.36,291.015C516.923,290.968 515.146,290.806 512.019,290.528C508.894,290.255 505.042,290.114 500.458,290.114C497.729,290.114 494.907,290.407 492.005,290.995C489.103,291.589 486.55,292.493 484.356,293.716C482.401,294.802 480.741,296.312 479.378,298.247C478.011,300.179 477.329,302.44 477.329,305.032C477.329,307.3 478.048,309.491 479.493,311.595C480.933,313.706 483.628,315.87 487.589,318.093C489.587,319.249 492.229,320.579 495.532,322.083C498.831,323.591 502.06,325.22 505.241,326.979C510.124,329.712 513.794,332.853 516.263,336.394C518.728,339.935 519.962,343.976 519.962,348.517Z" style="fill:rgb(248,152,40);fill-rule:nonzero;"/>
        </g>
        <g transform="matrix(4.16667,0,0,4.16667,0,-256.445)">
            <path d="M559.716,374.823C559.128,374.823 558.136,374.786 552.573,374.71C547.005,374.636 560.688,374.595 552.038,374.595C546.351,374.595 540.938,374.636 535.813,374.71C530.688,374.786 526.347,374.823 522.802,374.823C522.872,366.864 522.935,358.798 522.985,350.628C523.032,342.46 523.063,334.44 523.063,326.567C523.063,313.425 523.026,303.405 522.956,296.509C522.89,289.612 522.835,284.776 522.802,281.999L535.017,281.999C534.849,287.978 534.712,294.878 534.632,302.7C534.542,310.526 534.499,316.942 534.499,321.944C534.499,334.126 534.542,344.29 534.632,352.44C534.712,360.593 534.759,364.897 534.759,365.358L549.608,365.358C558.294,365.358 545.058,365.323 551.493,365.245C557.923,365.175 559.274,365.136 559.716,365.136L559.716,374.823Z" style="fill:rgb(248,152,40);fill-rule:nonzero;"/>
        </g>
        <g transform="matrix(-4.16667,0,0,4.16667,2378.74,370.223)">
            <rect x="284.652" y="244.206" width="1.593" height="18.01" style="fill:rgb(0,74,141);"/>
        </g>
        <g transform="matrix(4.16667,0,0,4.16667,0,370.223)">
            <path d="M297.913,244.206L297.913,262.216L295.732,262.216L290.798,246.601L290.764,246.601L290.764,262.216L289.344,262.216L289.344,244.206L291.594,244.206L296.459,259.622L296.494,259.622L296.494,244.206L297.913,244.206Z" style="fill:rgb(0,74,141);fill-rule:nonzero;"/>
        </g>
        <g transform="matrix(4.16667,0,0,4.16667,0,370.435)">
            <path d="M302.016,256.802L302.016,257.325C302.016,259.771 303.089,260.544 304.111,260.544C305.375,260.544 306.344,259.771 306.344,257.626C306.344,253.634 300.735,254.083 300.735,248.671C300.735,245.478 302.31,243.782 304.405,243.782C306.69,243.782 307.971,245.378 307.867,249.044L306.205,249.044C306.223,247.075 305.79,245.778 304.284,245.778C303.332,245.778 302.362,246.476 302.362,248.421C302.362,252.388 307.971,251.813 307.971,257.524C307.971,261.317 306.153,262.538 304.093,262.538C300.406,262.589 300.406,258.522 300.44,256.802L302.016,256.802Z" style="fill:rgb(0,74,141);fill-rule:nonzero;"/>
        </g>
        <g transform="matrix(4.16667,0,0,4.16667,0,370.223)">
            <path d="M317.44,244.206L317.44,246.202L314.151,246.202L314.151,262.216L312.559,262.216L312.559,246.202L309.27,246.202L309.27,244.206L317.44,244.206Z" style="fill:rgb(0,74,141);fill-rule:nonzero;"/>
        </g>
        <g transform="matrix(-4.16667,0,0,4.16667,2667.41,370.223)">
            <rect x="319.293" y="244.206" width="1.593" height="18.01" style="fill:rgb(0,74,141);"/>
        </g>
        <g transform="matrix(4.16667,0,0,4.16667,0,370.223)">
            <path d="M330.909,244.206L330.909,246.202L327.62,246.202L327.62,262.216L326.027,262.216L326.027,246.202L322.738,246.202L322.738,244.206L330.909,244.206Z" style="fill:rgb(0,74,141);fill-rule:nonzero;"/>
        </g>
        <g transform="matrix(4.16667,0,0,4.16667,0,371.777)">
            <path d="M332.502,243.833L334.095,243.833L334.095,255.356C334.095,259.298 334.925,260.296 336.432,260.296C337.937,260.296 338.769,259.298 338.769,255.356L338.769,243.833L340.361,243.833L340.361,255.257C340.361,260.245 339.08,262.216 336.432,262.216C333.783,262.216 332.502,260.245 332.502,255.257L332.502,243.833Z" style="fill:rgb(0,74,141);fill-rule:nonzero;"/>
        </g>
        <g transform="matrix(4.16667,0,0,4.16667,0,370.223)">
            <path d="M350.142,244.206L350.142,246.202L346.853,246.202L346.853,262.216L345.26,262.216L345.26,246.202L341.971,246.202L341.971,244.206L350.142,244.206Z" style="fill:rgb(0,74,141);fill-rule:nonzero;"/>
        </g>
        <g transform="matrix(4.16667,0,0,4.16667,0,370.223)">
            <path d="M351.787,262.216L351.787,244.206L358.227,244.206L358.227,246.202L353.379,246.202L353.379,251.989L357.88,251.989L357.88,253.983L353.379,253.983L353.379,260.22L358.331,260.22L358.331,262.216L351.787,262.216Z" style="fill:rgb(0,74,141);fill-rule:nonzero;"/>
        </g>
        <g transform="matrix(4.16667,0,0,4.16667,0,370.223)">
            <path d="M364.234,255.63L364.234,249.72C364.234,246.128 365.515,243.833 368.164,243.833C370.812,243.833 372.093,246.128 372.093,249.72L372.093,255.63C372.093,260.618 370.812,262.589 368.164,262.589C365.515,262.589 364.234,260.618 364.234,255.63M370.466,255.729L370.466,249.644C370.466,245.878 368.666,245.753 368.164,245.753C367.662,245.753 365.861,245.878 365.861,249.644L365.861,255.729C365.861,259.671 366.657,260.669 368.164,260.669C369.669,260.669 370.466,259.671 370.466,255.729Z" style="fill:rgb(0,74,141);fill-rule:nonzero;"/>
        </g>
        <g transform="matrix(4.16667,0,0,4.16667,0,370.223)">
            <path d="M374.742,262.216L374.742,244.206L380.939,244.206L380.939,246.202L376.334,246.202L376.334,251.989L380.697,251.989L380.697,253.983L376.334,253.983L376.334,262.216L374.742,262.216Z" style="fill:rgb(0,74,141);fill-rule:nonzero;"/>
        </g>
        <g transform="matrix(4.16667,0,0,4.16667,0,370.223)">
            <path d="M386.548,262.216L386.548,244.206L390.616,244.206C392.347,244.206 392.936,245.056 393.403,246.052C393.836,247.026 393.905,248.099 393.905,248.446C393.905,250.692 393.369,252.188 391.759,252.712L391.759,252.837C393.542,253.136 394.321,254.683 394.321,257.151C394.321,261.767 391.984,262.216 390.564,262.216L386.548,262.216M388.141,251.79L390.46,251.79C391.707,251.765 392.313,250.667 392.313,248.921C392.313,247.425 391.724,246.202 390.391,246.202L388.141,246.202L388.141,251.79M388.141,260.22L390.391,260.22C392.087,260.22 392.693,258.474 392.693,257.151C392.693,254.284 391.464,253.784 389.837,253.784L388.141,253.784L388.141,260.22Z" style="fill:rgb(0,74,141);fill-rule:nonzero;"/>
        </g>
        <g transform="matrix(4.16667,0,0,4.16667,0,370.223)">
            <path d="M399.791,244.206L401.816,244.206L405.885,262.216L404.102,262.216L403.202,257.925L398.372,257.925L397.437,262.216L395.827,262.216L399.791,244.206M400.761,246.327L400.726,246.327L398.77,255.931L402.769,255.931L400.761,246.327Z" style="fill:rgb(0,74,141);fill-rule:nonzero;"/>
        </g>
        <g transform="matrix(4.16667,0,0,4.16667,0,370.223)">
            <path d="M416.202,244.206L416.202,262.216L414.021,262.216L409.088,246.601L409.053,246.601L409.053,262.216L407.633,262.216L407.633,244.206L409.884,244.206L414.748,259.622L414.783,259.622L414.783,244.206L416.202,244.206Z" style="fill:rgb(0,74,141);fill-rule:nonzero;"/>
        </g>
        <g transform="matrix(4.16667,0,0,4.16667,0,370.223)">
            <path d="M419.094,262.216L419.094,244.206L420.687,244.206L420.687,252.114L420.738,252.114L425.101,244.206L426.901,244.206L422.365,252.339L427.161,262.216L425.118,262.216L420.738,252.812L420.687,252.812L420.687,262.216L419.094,262.216Z" style="fill:rgb(0,74,141);fill-rule:nonzero;"/>
        </g>
        <g transform="matrix(4.16667,0,0,4.16667,0,370.223)">
            <path d="M428.719,262.216L428.719,244.206L435.158,244.206L435.158,246.202L430.312,246.202L430.312,251.989L434.813,251.989L434.813,253.983L430.312,253.983L430.312,260.22L435.263,260.22L435.263,262.216L428.719,262.216Z" style="fill:rgb(0,74,141);fill-rule:nonzero;"/>
        </g>
        <g transform="matrix(4.16667,0,0,4.16667,0,370.223)">
            <path d="M438.933,253.935L438.933,262.216L437.34,262.216L437.34,244.206L441.65,244.206C443.866,244.206 444.646,246.452 444.646,248.696C444.646,250.817 443.832,252.438 442.36,252.812L442.36,252.862C443.797,253.187 444.316,253.884 444.403,257.501C444.421,258.274 444.594,261.093 444.836,262.216L443.174,262.216C442.724,260.968 442.828,258.624 442.689,256.229C442.568,254.034 441.339,253.935 440.803,253.935L438.933,253.935M438.933,251.938L441.321,251.938C442.464,251.938 443.019,250.517 443.019,248.946C443.019,247.649 442.568,246.202 441.339,246.202L438.933,246.202L438.933,251.938Z" style="fill:rgb(0,74,141);fill-rule:nonzero;"/>
        </g>
        <g transform="matrix(4.16667,0,0,4.16667,0,370.435)">
            <path d="M448.212,256.802L448.212,257.325C448.212,259.771 449.285,260.544 450.307,260.544C451.57,260.544 452.54,259.771 452.54,257.626C452.54,253.634 446.931,254.083 446.931,248.671C446.931,245.478 448.506,243.782 450.601,243.782C452.886,243.782 454.167,245.378 454.063,249.044L452.401,249.044C452.418,247.075 451.985,245.778 450.479,245.778C449.527,245.778 448.558,246.476 448.558,248.421C448.558,252.388 454.167,251.813 454.167,257.524C454.167,261.317 452.35,262.538 450.289,262.538C446.602,262.589 446.602,258.522 446.637,256.802L448.212,256.802Z" style="fill:rgb(0,74,141);fill-rule:nonzero;"/>
        </g>
        <g transform="matrix(4.16667,0,0,4.16667,0,370.223)">
            <path d="M460.416,255.63L460.416,249.72C460.416,246.128 461.697,243.833 464.346,243.833C466.994,243.833 468.275,246.128 468.275,249.72L468.275,255.63C468.275,260.618 466.994,262.589 464.346,262.589C461.697,262.589 460.416,260.618 460.416,255.63M466.648,255.729L466.648,249.644C466.648,245.878 464.848,245.753 464.346,245.753C463.844,245.753 462.044,245.878 462.044,249.644L462.044,255.729C462.044,259.671 462.84,260.669 464.346,260.669C465.852,260.669 466.648,259.671 466.648,255.729Z" style="fill:rgb(0,74,141);fill-rule:nonzero;"/>
        </g>
        <g transform="matrix(4.16667,0,0,4.16667,0,370.223)">
            <path d="M470.924,262.216L470.924,244.206L477.122,244.206L477.122,246.202L472.517,246.202L472.517,251.989L476.88,251.989L476.88,253.983L472.517,253.983L472.517,262.216L470.924,262.216Z" style="fill:rgb(0,74,141);fill-rule:nonzero;"/>
        </g>
        <g transform="matrix(4.16667,0,0,4.16667,0,370.435)">
            <path d="M483.786,256.802L483.786,257.325C483.786,259.771 484.859,260.544 485.881,260.544C487.145,260.544 488.114,259.771 488.114,257.626C488.114,253.634 482.505,254.083 482.505,248.671C482.505,245.478 484.081,243.782 486.175,243.782C488.46,243.782 489.741,245.378 489.638,249.044L487.976,249.044C487.993,247.075 487.561,245.778 486.054,245.778C485.102,245.778 484.133,246.476 484.133,248.421C484.133,252.388 489.741,251.813 489.741,257.524C489.741,261.317 487.924,262.538 485.863,262.538C482.177,262.589 482.177,258.522 482.211,256.802L483.786,256.802Z" style="fill:rgb(0,74,141);fill-rule:nonzero;"/>
        </g>
        <g transform="matrix(4.16667,0,0,4.16667,0,370.223)">
            <path d="M493.758,253.935L493.758,262.216L492.165,262.216L492.165,244.206L496.476,244.206C498.691,244.206 499.471,246.452 499.471,248.696C499.471,250.817 498.657,252.438 497.186,252.812L497.186,252.862C498.622,253.187 499.142,253.884 499.229,257.501C499.245,258.274 499.419,261.093 499.661,262.216L497.999,262.216C497.549,260.968 497.653,258.624 497.515,256.229C497.394,254.034 496.164,253.935 495.628,253.935L493.758,253.935M493.758,251.938L496.146,251.938C497.289,251.938 497.844,250.517 497.844,248.946C497.844,247.649 497.394,246.202 496.164,246.202L493.758,246.202L493.758,251.938Z" style="fill:rgb(0,74,141);fill-rule:nonzero;"/>
        </g>
        <g transform="matrix(-4.16667,0,0,4.16667,4190.24,370.223)">
            <rect x="502.033" y="244.206" width="1.592" height="18.01" style="fill:rgb(0,74,141);"/>
        </g>
        <g transform="matrix(4.16667,0,0,4.16667,0,370.223)">
            <path d="M510.48,262.216L510.48,244.206L512.073,244.206L512.073,260.22L516.661,260.22L516.661,262.216L510.48,262.216Z" style="fill:rgb(0,74,141);fill-rule:nonzero;"/>
        </g>
        <g transform="matrix(4.16667,0,0,4.16667,0,370.223)">
            <path d="M520.988,244.206L523.014,244.206L527.082,262.216L525.299,262.216L524.399,257.925L519.569,257.925L518.634,262.216L517.024,262.216L520.988,244.206M521.958,246.327L521.924,246.327L519.967,255.931L523.966,255.931L521.958,246.327Z" style="fill:rgb(0,74,141);fill-rule:nonzero;"/>
        </g>
        <g transform="matrix(4.16667,0,0,4.16667,0,370.223)">
            <path d="M537.399,244.206L537.399,262.216L535.219,262.216L530.285,246.601L530.25,246.601L530.25,262.216L528.831,262.216L528.831,244.206L531.081,244.206L535.945,259.622L535.98,259.622L535.98,244.206L537.399,244.206Z" style="fill:rgb(0,74,141);fill-rule:nonzero;"/>
        </g>
        <g transform="matrix(4.16667,0,0,4.16667,0,370.223)">
            <path d="M540.291,262.216L540.291,244.206L541.884,244.206L541.884,252.114L541.936,252.114L546.298,244.206L548.099,244.206L543.562,252.339L548.358,262.216L546.315,262.216L541.936,252.812L541.884,252.812L541.884,262.216L540.291,262.216Z" style="fill:rgb(0,74,141);fill-rule:nonzero;"/>
        </g>
        <g transform="matrix(4.16667,0,0,4.16667,0,370.223)">
            <path d="M552.738,244.206L554.764,244.206L558.832,262.216L557.049,262.216L556.148,257.925L551.318,257.925L550.384,262.216L548.773,262.216L552.738,244.206M553.707,246.327L553.673,246.327L551.717,255.931L555.716,255.931L553.707,246.327Z" style="fill:rgb(0,74,141);fill-rule:nonzero;"/>
        </g>
        <g transform="matrix(-4.16667,0,0,4.16667,2378.74,370.223)">
            <rect x="284.652" y="244.206" width="1.593" height="18.01" style="fill:rgb(0,74,141);"/>
        </g>
        <g transform="matrix(4.16667,0,0,4.16667,0,370.223)">
            <path d="M297.913,244.206L297.913,262.216L295.732,262.216L290.798,246.601L290.764,246.601L290.764,262.216L289.344,262.216L289.344,244.206L291.594,244.206L296.459,259.622L296.494,259.622L296.494,244.206L297.913,244.206Z" style="fill:rgb(0,74,141);fill-rule:nonzero;"/>
        </g>
        <g transform="matrix(4.16667,0,0,4.16667,0,370.435)">
            <path d="M302.016,256.802L302.016,257.325C302.016,259.771 303.089,260.544 304.111,260.544C305.375,260.544 306.344,259.771 306.344,257.626C306.344,253.634 300.735,254.083 300.735,248.671C300.735,245.478 302.31,243.782 304.405,243.782C306.69,243.782 307.971,245.378 307.867,249.044L306.205,249.044C306.223,247.075 305.79,245.778 304.284,245.778C303.332,245.778 302.362,246.476 302.362,248.421C302.362,252.388 307.971,251.813 307.971,257.524C307.971,261.317 306.153,262.538 304.093,262.538C300.406,262.589 300.406,258.522 300.44,256.802L302.016,256.802Z" style="fill:rgb(0,74,141);fill-rule:nonzero;"/>
        </g>
        <g transform="matrix(4.16667,0,0,4.16667,0,370.223)">
            <path d="M317.44,244.206L317.44,246.202L314.151,246.202L314.151,262.216L312.559,262.216L312.559,246.202L309.27,246.202L309.27,244.206L317.44,244.206Z" style="fill:rgb(0,74,141);fill-rule:nonzero;"/>
        </g>
        <g transform="matrix(-4.16667,0,0,4.16667,2667.41,370.223)">
            <rect x="319.293" y="244.206" width="1.593" height="18.01" style="fill:rgb(0,74,141);"/>
        </g>
        <g transform="matrix(4.16667,0,0,4.16667,0,370.223)">
            <path d="M330.909,244.206L330.909,246.202L327.62,246.202L327.62,262.216L326.027,262.216L326.027,246.202L322.738,246.202L322.738,244.206L330.909,244.206Z" style="fill:rgb(0,74,141);fill-rule:nonzero;"/>
        </g>
        <g transform="matrix(4.16667,0,0,4.16667,0,371.777)">
            <path d="M332.502,243.833L334.095,243.833L334.095,255.356C334.095,259.298 334.925,260.296 336.432,260.296C337.937,260.296 338.769,259.298 338.769,255.356L338.769,243.833L340.361,243.833L340.361,255.257C340.361,260.245 339.08,262.216 336.432,262.216C333.783,262.216 332.502,260.245 332.502,255.257L332.502,243.833Z" style="fill:rgb(0,74,141);fill-rule:nonzero;"/>
        </g>
        <g transform="matrix(4.16667,0,0,4.16667,0,370.223)">
            <path d="M350.142,244.206L350.142,246.202L346.853,246.202L346.853,262.216L345.26,262.216L345.26,246.202L341.971,246.202L341.971,244.206L350.142,244.206Z" style="fill:rgb(0,74,141);fill-rule:nonzero;"/>
        </g>
        <g transform="matrix(4.16667,0,0,4.16667,0,370.223)">
            <path d="M351.787,262.216L351.787,244.206L358.227,244.206L358.227,246.202L353.379,246.202L353.379,251.989L357.88,251.989L357.88,253.983L353.379,253.983L353.379,260.22L358.331,260.22L358.331,262.216L351.787,262.216Z" style="fill:rgb(0,74,141);fill-rule:nonzero;"/>
        </g>
        <g transform="matrix(4.16667,0,0,4.16667,0,370.223)">
            <path d="M364.234,255.63L364.234,249.72C364.234,246.128 365.515,243.833 368.164,243.833C370.812,243.833 372.093,246.128 372.093,249.72L372.093,255.63C372.093,260.618 370.812,262.589 368.164,262.589C365.515,262.589 364.234,260.618 364.234,255.63M370.466,255.729L370.466,249.644C370.466,245.878 368.666,245.753 368.164,245.753C367.662,245.753 365.861,245.878 365.861,249.644L365.861,255.729C365.861,259.671 366.657,260.669 368.164,260.669C369.669,260.669 370.466,259.671 370.466,255.729Z" style="fill:rgb(0,74,141);fill-rule:nonzero;"/>
        </g>
        <g transform="matrix(4.16667,0,0,4.16667,0,370.223)">
            <path d="M374.742,262.216L374.742,244.206L380.939,244.206L380.939,246.202L376.334,246.202L376.334,251.989L380.697,251.989L380.697,253.983L376.334,253.983L376.334,262.216L374.742,262.216Z" style="fill:rgb(0,74,141);fill-rule:nonzero;"/>
        </g>
        <g transform="matrix(4.16667,0,0,4.16667,0,370.223)">
            <path d="M386.548,262.216L386.548,244.206L390.616,244.206C392.347,244.206 392.936,245.056 393.403,246.052C393.836,247.026 393.905,248.099 393.905,248.446C393.905,250.692 393.369,252.188 391.759,252.712L391.759,252.837C393.542,253.136 394.321,254.683 394.321,257.151C394.321,261.767 391.984,262.216 390.564,262.216L386.548,262.216M388.141,251.79L390.46,251.79C391.707,251.765 392.313,250.667 392.313,248.921C392.313,247.425 391.724,246.202 390.391,246.202L388.141,246.202L388.141,251.79M388.141,260.22L390.391,260.22C392.087,260.22 392.693,258.474 392.693,257.151C392.693,254.284 391.464,253.784 389.837,253.784L388.141,253.784L388.141,260.22Z" style="fill:rgb(0,74,141);fill-rule:nonzero;"/>
        </g>
        <g transform="matrix(4.16667,0,0,4.16667,0,370.223)">
            <path d="M399.791,244.206L401.816,244.206L405.885,262.216L404.102,262.216L403.202,257.925L398.372,257.925L397.437,262.216L395.827,262.216L399.791,244.206M400.761,246.327L400.726,246.327L398.77,255.931L402.769,255.931L400.761,246.327Z" style="fill:rgb(0,74,141);fill-rule:nonzero;"/>
        </g>
        <g transform="matrix(4.16667,0,0,4.16667,0,370.223)">
            <path d="M416.202,244.206L416.202,262.216L414.021,262.216L409.088,246.601L409.053,246.601L409.053,262.216L407.633,262.216L407.633,244.206L409.884,244.206L414.748,259.622L414.783,259.622L414.783,244.206L416.202,244.206Z" style="fill:rgb(0,74,141);fill-rule:nonzero;"/>
        </g>
        <g transform="matrix(4.16667,0,0,4.16667,0,370.223)">
            <path d="M419.094,262.216L419.094,244.206L420.687,244.206L420.687,252.114L420.738,252.114L425.101,244.206L426.901,244.206L422.365,252.339L427.161,262.216L425.118,262.216L420.738,252.812L420.687,252.812L420.687,262.216L419.094,262.216Z" style="fill:rgb(0,74,141);fill-rule:nonzero;"/>
        </g>
        <g transform="matrix(4.16667,0,0,4.16667,0,370.223)">
            <path d="M428.719,262.216L428.719,244.206L435.158,244.206L435.158,246.202L430.312,246.202L430.312,251.989L434.813,251.989L434.813,253.983L430.312,253.983L430.312,260.22L435.263,260.22L435.263,262.216L428.719,262.216Z" style="fill:rgb(0,74,141);fill-rule:nonzero;"/>
        </g>
        <g transform="matrix(4.16667,0,0,4.16667,0,370.223)">
            <path d="M438.933,253.935L438.933,262.216L437.34,262.216L437.34,244.206L441.65,244.206C443.866,244.206 444.646,246.452 444.646,248.696C444.646,250.817 443.832,252.438 442.36,252.812L442.36,252.862C443.797,253.187 444.316,253.884 444.403,257.501C444.421,258.274 444.594,261.093 444.836,262.216L443.174,262.216C442.724,260.968 442.828,258.624 442.689,256.229C442.568,254.034 441.339,253.935 440.803,253.935L438.933,253.935M438.933,251.938L441.321,251.938C442.464,251.938 443.019,250.517 443.019,248.946C443.019,247.649 442.568,246.202 441.339,246.202L438.933,246.202L438.933,251.938Z" style="fill:rgb(0,74,141);fill-rule:nonzero;"/>
        </g>
        <g transform="matrix(4.16667,0,0,4.16667,0,370.435)">
            <path d="M448.212,256.802L448.212,257.325C448.212,259.771 449.285,260.544 450.307,260.544C451.57,260.544 452.54,259.771 452.54,257.626C452.54,253.634 446.931,254.083 446.931,248.671C446.931,245.478 448.506,243.782 450.601,243.782C452.886,243.782 454.167,245.378 454.063,249.044L452.401,249.044C452.418,247.075 451.985,245.778 450.479,245.778C449.527,245.778 448.558,246.476 448.558,248.421C448.558,252.388 454.167,251.813 454.167,257.524C454.167,261.317 452.35,262.538 450.289,262.538C446.602,262.589 446.602,258.522 446.637,256.802L448.212,256.802Z" style="fill:rgb(0,74,141);fill-rule:nonzero;"/>
        </g>
        <g transform="matrix(4.16667,0,0,4.16667,0,370.223)">
            <path d="M460.416,255.63L460.416,249.72C460.416,246.128 461.697,243.833 464.346,243.833C466.994,243.833 468.275,246.128 468.275,249.72L468.275,255.63C468.275,260.618 466.994,262.589 464.346,262.589C461.697,262.589 460.416,260.618 460.416,255.63M466.648,255.729L466.648,249.644C466.648,245.878 464.848,245.753 464.346,245.753C463.844,245.753 462.044,245.878 462.044,249.644L462.044,255.729C462.044,259.671 462.84,260.669 464.346,260.669C465.852,260.669 466.648,259.671 466.648,255.729Z" style="fill:rgb(0,74,141);fill-rule:nonzero;"/>
        </g>
        <g transform="matrix(4.16667,0,0,4.16667,0,370.223)">
            <path d="M470.924,262.216L470.924,244.206L477.122,244.206L477.122,246.202L472.517,246.202L472.517,251.989L476.88,251.989L476.88,253.983L472.517,253.983L472.517,262.216L470.924,262.216Z" style="fill:rgb(0,74,141);fill-rule:nonzero;"/>
        </g>
        <g transform="matrix(4.16667,0,0,4.16667,0,370.435)">
            <path d="M483.786,256.802L483.786,257.325C483.786,259.771 484.859,260.544 485.881,260.544C487.145,260.544 488.114,259.771 488.114,257.626C488.114,253.634 482.505,254.083 482.505,248.671C482.505,245.478 484.081,243.782 486.175,243.782C488.46,243.782 489.741,245.378 489.638,249.044L487.976,249.044C487.993,247.075 487.561,245.778 486.054,245.778C485.102,245.778 484.133,246.476 484.133,248.421C484.133,252.388 489.741,251.813 489.741,257.524C489.741,261.317 487.924,262.538 485.863,262.538C482.177,262.589 482.177,258.522 482.211,256.802L483.786,256.802Z" style="fill:rgb(0,74,141);fill-rule:nonzero;"/>
        </g>
        <g transform="matrix(4.16667,0,0,4.16667,0,370.223)">
            <path d="M493.758,253.935L493.758,262.216L492.165,262.216L492.165,244.206L496.476,244.206C498.691,244.206 499.471,246.452 499.471,248.696C499.471,250.817 498.657,252.438 497.186,252.812L497.186,252.862C498.622,253.187 499.142,253.884 499.229,257.501C499.245,258.274 499.419,261.093 499.661,262.216L497.999,262.216C497.549,260.968 497.653,258.624 497.515,256.229C497.394,254.034 496.164,253.935 495.628,253.935L493.758,253.935M493.758,251.938L496.146,251.938C497.289,251.938 497.844,250.517 497.844,248.946C497.844,247.649 497.394,246.202 496.164,246.202L493.758,246.202L493.758,251.938Z" style="fill:rgb(0,74,141);fill-rule:nonzero;"/>
        </g>
        <g transform="matrix(-4.16667,0,0,4.16667,4190.24,370.223)">
            <rect x="502.033" y="244.206" width="1.592" height="18.01" style="fill:rgb(0,74,141);"/>
        </g>
        <g transform="matrix(4.16667,0,0,4.16667,0,370.223)">
            <path d="M510.48,262.216L510.48,244.206L512.073,244.206L512.073,260.22L516.661,260.22L516.661,262.216L510.48,262.216Z" style="fill:rgb(0,74,141);fill-rule:nonzero;"/>
        </g>
        <g transform="matrix(4.16667,0,0,4.16667,0,370.223)">
            <path d="M520.988,244.206L523.014,244.206L527.082,262.216L525.299,262.216L524.399,257.925L519.569,257.925L518.634,262.216L517.024,262.216L520.988,244.206M521.958,246.327L521.924,246.327L519.967,255.931L523.966,255.931L521.958,246.327Z" style="fill:rgb(0,74,141);fill-rule:nonzero;"/>
        </g>
        <g transform="matrix(4.16667,0,0,4.16667,0,370.223)">
            <path d="M537.399,244.206L537.399,262.216L535.219,262.216L530.285,246.601L530.25,246.601L530.25,262.216L528.831,262.216L528.831,244.206L531.081,244.206L535.945,259.622L535.98,259.622L535.98,244.206L537.399,244.206Z" style="fill:rgb(0,74,141);fill-rule:nonzero;"/>
        </g>
        <g transform="matrix(4.16667,0,0,4.16667,0,370.223)">
            <path d="M540.291,262.216L540.291,244.206L541.884,244.206L541.884,252.114L541.936,252.114L546.298,244.206L548.099,244.206L543.562,252.339L548.358,262.216L546.315,262.216L541.936,252.812L541.884,252.812L541.884,262.216L540.291,262.216Z" style="fill:rgb(0,74,141);fill-rule:nonzero;"/>
        </g>
        <g transform="matrix(4.16667,0,0,4.16667,0,370.223)">
            <path d="M552.738,244.206L554.764,244.206L558.832,262.216L557.049,262.216L556.148,257.925L551.318,257.925L550.384,262.216L548.773,262.216L552.738,244.206M553.707,246.327L553.673,246.327L551.717,255.931L555.716,255.931L553.707,246.327Z" style="fill:rgb(0,74,141);fill-rule:nonzero;"/>
        </g>
        <g transform="matrix(4.16667,0,0,4.16667,0,-125.09)">
            <path d="M371.985,343.663L371.985,300.442C362.754,288.975 348.653,281.634 332.839,281.634C309.648,281.634 290.13,297.403 284.284,318.859L284.284,343.663L371.985,343.663Z" style="fill:rgb(0,74,141);fill-rule:nonzero;"/>
        </g>
        <g transform="matrix(4.16667,0,0,4.16667,0,-406.97)">
            <path d="M329.823,345.793C347.34,345.793 362.791,354.625 371.985,368.077L371.985,319.158L284.284,319.158L284.284,373.79C292.709,357.182 309.931,345.793 329.823,345.793Z" style="fill:rgb(0,74,141);fill-rule:nonzero;"/>
        </g>
        <g transform="matrix(4.16667,0,0,4.16667,0,-226.469)">
            <path d="M372.068,324.871C372.042,324.832 372.012,324.796 371.985,324.757L371.985,324.773C372.012,324.807 372.041,324.838 372.068,324.871Z" style="fill:white;fill-rule:nonzero;"/>
        </g>
        <g transform="matrix(4.16667,0,0,4.16667,0,-242.989)">
            <path d="M332.839,309.93C348.653,309.93 362.754,317.27 371.985,328.738L371.985,328.722C362.791,315.27 347.34,306.437 329.823,306.437C309.931,306.437 292.709,317.826 284.284,334.435L284.284,347.155C290.13,325.699 309.648,309.93 332.839,309.93Z" style="fill:white;fill-rule:nonzero;"/>
        </g>
        <g transform="matrix(2.40968,3.3992,3.3992,-2.40968,-596.223,671.622)">
            <path d="M347.18,325.916C347.18,325.916 327.906,354.759 346.874,384.933C346.874,384.933 348.204,385.959 347.18,383.656C346.154,381.354 332.489,354.388 349.431,328.291C349.431,328.291 349.404,325.365 347.18,325.916Z" style="fill:rgb(248,152,40);fill-rule:nonzero;"/>
        </g>
        <g transform="matrix(-4.16667,0,0,4.16667,3516.12,615.784)">
            <rect x="284.921" y="215.264" width="274.027" height="16.96" style="fill:rgb(157,159,162);"/>
        </g>
        <g transform="matrix(4.16667,0,0,4.16667,0,613.623)">
            <path d="M345.293,226.087L345.161,228.969C344.65,229.205 344.193,229.323 343.789,229.323C342.838,229.323 342.037,228.901 341.388,228.059C340.66,227.114 340.297,225.776 340.297,224.046C340.297,222.427 340.638,221.127 341.321,220.146C342.004,219.171 342.917,218.683 344.059,218.683C344.43,218.683 344.808,218.767 345.194,218.934L345.194,221.871C344.853,221.443 344.501,221.229 344.142,221.229C343.671,221.229 343.304,221.478 343.04,221.976C342.775,222.477 342.644,223.17 342.644,224.054C342.644,224.483 342.676,224.866 342.742,225.203C342.809,225.541 342.903,225.826 343.026,226.059C343.149,226.291 343.301,226.469 343.48,226.592C343.661,226.715 343.866,226.776 344.098,226.776C344.494,226.776 344.893,226.547 345.293,226.087Z" style="fill:white;fill-rule:nonzero;"/>
        </g>
        <g transform="matrix(4.16667,0,0,4.16667,0,613.623)">
            <path d="M359.013,229.323L356.529,229.323L355.395,225.53C355.383,225.466 355.364,225.381 355.336,225.274C355.309,225.169 355.275,225.042 355.235,224.896L355.251,225.599L355.251,229.323L352.965,229.323L352.965,218.683L355.317,218.683C356.353,218.683 357.127,218.938 357.642,219.447C358.295,220.101 358.622,221.028 358.622,222.231C358.622,223.519 358.183,224.407 357.306,224.899L359.013,229.323M355.262,223.471L355.416,223.471C355.681,223.471 355.901,223.345 356.078,223.091C356.254,222.839 356.342,222.517 356.342,222.126C356.342,221.33 356.009,220.933 355.345,220.933L355.262,220.933L355.262,223.471Z" style="fill:white;fill-rule:nonzero;"/>
        </g>
        <g transform="matrix(4.16667,0,0,4.16667,0,613.623)">
            <path d="M366.543,229.323L366.543,218.683L370.813,218.683L370.813,221.229L368.84,221.229L368.84,222.729L370.609,222.729L370.609,225.276L368.84,225.276L368.84,226.776L370.813,226.776L370.813,229.323L366.543,229.323Z" style="fill:white;fill-rule:nonzero;"/>
        </g>
        <g transform="matrix(4.16667,0,0,4.16667,0,613.623)">
            <path d="M384.687,229.323L382.313,229.323L382.142,227.933L380.594,227.933L380.406,229.323L378.032,229.323L380.076,218.683L382.885,218.683L384.687,229.323M381.872,225.683L381.723,224.441C381.719,224.437 381.712,224.374 381.701,224.255C381.693,224.153 381.655,223.754 381.585,223.055C381.578,222.977 381.568,222.87 381.558,222.734C381.547,222.599 381.532,222.428 381.514,222.221L381.442,221.214C381.435,221.31 381.425,221.418 381.412,221.538C381.399,221.657 381.385,221.788 381.371,221.931C381.345,222.216 381.326,222.413 381.315,222.524C381.304,222.634 381.297,222.701 381.293,222.724L381.134,224.014L380.902,225.683L381.872,225.683Z" style="fill:white;fill-rule:nonzero;"/>
        </g>
        <g transform="matrix(4.16667,0,0,4.16667,0,613.623)">
            <path d="M395.096,229.323L392.798,229.323L392.798,221.229L391.532,221.229L391.532,218.683L396.412,218.683L396.412,221.229L395.096,221.229L395.096,229.323Z" style="fill:white;fill-rule:nonzero;"/>
        </g>
        <g transform="matrix(-4.16667,0,0,4.16667,3374.38,613.623)">
            <rect x="403.777" y="218.683" width="2.296" height="10.641" style="fill:white;"/>
        </g>
        <g transform="matrix(4.16667,0,0,4.16667,0,613.623)">
            <path d="M414.035,229.323L414.035,218.683L416.229,218.683L417.381,222.421C417.442,222.642 417.514,222.895 417.593,223.18C417.672,223.465 417.759,223.793 417.854,224.166L418.091,225.104C418.007,224.18 417.942,223.389 417.898,222.731C417.854,222.073 417.832,221.522 417.832,221.076L417.832,218.683L420.051,218.683L420.051,229.323L417.832,229.323L416.606,225.405C416.479,224.987 416.362,224.596 416.26,224.229C416.156,223.864 416.066,223.516 415.988,223.185C416.08,223.935 416.147,224.587 416.19,225.144C416.232,225.7 416.254,226.188 416.254,226.605L416.254,229.323L414.035,229.323Z" style="fill:white;fill-rule:nonzero;"/>
        </g>
        <g transform="matrix(4.16667,0,0,4.16667,0,613.623)">
            <path d="M430.937,223.167L434.143,223.167L434.143,223.595C434.143,225.585 433.898,227.017 433.41,227.892C432.877,228.846 432.09,229.323 431.047,229.323C430.022,229.323 429.218,228.857 428.634,227.926C428.054,226.985 427.764,225.694 427.764,224.053C427.764,222.39 428.056,221.078 428.64,220.12C429.224,219.162 430.022,218.683 431.036,218.683C432.38,218.683 433.354,219.555 433.961,221.298L431.735,222.319C431.702,221.983 431.626,221.718 431.507,221.522C431.388,221.327 431.237,221.229 431.058,221.229C430.426,221.229 430.11,222.251 430.11,224.294C430.11,225.163 430.18,225.794 430.319,226.187C430.459,226.58 430.682,226.776 430.986,226.776C431.107,226.776 431.218,226.744 431.316,226.68C431.416,226.614 431.499,226.523 431.567,226.406C431.635,226.289 431.688,226.146 431.727,225.979C431.766,225.811 431.785,225.624 431.785,225.417L430.937,225.417L430.937,223.167Z" style="fill:white;fill-rule:nonzero;"/>
        </g>
        <g transform="matrix(4.16667,0,0,4.16667,0,613.623)">
            <path d="M446.793,228.89L446.793,225.618C447.245,226.39 447.733,226.776 448.259,226.776C448.457,226.776 448.618,226.714 448.743,226.587C448.868,226.46 448.931,226.302 448.931,226.111C448.931,225.837 448.794,225.568 448.522,225.307L448.148,224.954C447.898,224.728 447.686,224.503 447.509,224.279C447.333,224.056 447.189,223.825 447.079,223.587C446.97,223.351 446.889,223.105 446.837,222.853C446.786,222.6 446.76,222.334 446.76,222.055C446.76,221.575 446.852,221.075 447.035,220.552C447.127,220.308 447.233,220.085 447.354,219.883C447.476,219.682 447.615,219.503 447.773,219.348C448.207,218.904 448.73,218.683 449.344,218.683C449.891,218.683 450.441,218.858 450.996,219.211L450.996,222.402C450.809,222.039 450.596,221.753 450.357,221.544C450.118,221.334 449.884,221.229 449.652,221.229C449.476,221.229 449.331,221.292 449.217,221.415C449.1,221.535 449.041,221.679 449.041,221.848C449.041,222.122 449.196,222.395 449.509,222.665L449.872,222.99C450.357,223.411 450.704,223.843 450.913,224.286C451.126,224.729 451.233,225.247 451.233,225.841C451.233,226.852 450.978,227.685 450.467,228.34C449.957,228.995 449.311,229.323 448.528,229.323C447.988,229.323 447.41,229.179 446.793,228.89Z" style="fill:white;fill-rule:nonzero;"/>
        </g>
        <g transform="matrix(4.16667,0,0,4.16667,0,613.623)">
            <path d="M461.876,229.323L459.579,229.323L459.579,221.229L458.312,221.229L458.312,218.683L463.192,218.683L463.192,221.229L461.876,221.229L461.876,229.323Z" style="fill:white;fill-rule:nonzero;"/>
        </g>
        <g transform="matrix(4.16667,0,0,4.16667,0,613.623)">
            <path d="M476.68,229.323L474.306,229.323L474.135,227.933L472.587,227.933L472.399,229.323L470.025,229.323L472.069,218.683L474.879,218.683L476.68,229.323M473.865,225.683L473.717,224.441C473.713,224.437 473.705,224.374 473.694,224.255C473.687,224.153 473.648,223.754 473.579,223.055C473.571,222.977 473.562,222.87 473.551,222.734C473.54,222.599 473.525,222.428 473.507,222.221L473.436,221.214C473.428,221.31 473.418,221.418 473.405,221.538C473.393,221.657 473.379,221.788 473.364,221.931C473.338,222.216 473.319,222.413 473.309,222.524C473.298,222.634 473.29,222.701 473.287,222.724L473.127,224.014L472.896,225.683L473.865,225.683Z" style="fill:white;fill-rule:nonzero;"/>
        </g>
        <g transform="matrix(4.16667,0,0,4.16667,0,613.623)">
            <path d="M490.167,229.323L487.683,229.323L486.548,225.53C486.537,225.466 486.518,225.381 486.49,225.274C486.463,225.169 486.429,225.042 486.389,224.896L486.404,225.599L486.404,229.323L484.119,229.323L484.119,218.683L486.471,218.683C487.507,218.683 488.281,218.938 488.795,219.447C489.449,220.101 489.775,221.028 489.775,222.231C489.775,223.519 489.337,224.407 488.459,224.899L490.167,229.323M486.416,223.471L486.57,223.471C486.834,223.471 487.055,223.345 487.231,223.091C487.407,222.839 487.495,222.517 487.495,222.126C487.495,221.33 487.163,220.933 486.498,220.933L486.416,220.933L486.416,223.471Z" style="fill:white;fill-rule:nonzero;"/>
        </g>
        <g transform="matrix(4.16667,0,0,4.16667,0,613.623)">
            <path d="M497.511,228.89L497.511,225.618C497.963,226.39 498.451,226.776 498.977,226.776C499.175,226.776 499.336,226.714 499.461,226.587C499.586,226.46 499.648,226.302 499.648,226.111C499.648,225.837 499.513,225.568 499.241,225.307L498.866,224.954C498.616,224.728 498.403,224.503 498.228,224.279C498.051,224.056 497.907,223.825 497.798,223.587C497.688,223.351 497.606,223.105 497.556,222.853C497.504,222.6 497.479,222.334 497.479,222.055C497.479,221.575 497.57,221.075 497.754,220.552C497.846,220.308 497.952,220.085 498.073,219.883C498.194,219.682 498.334,219.503 498.491,219.348C498.925,218.904 499.448,218.683 500.062,218.683C500.608,218.683 501.159,218.858 501.714,219.211L501.714,222.402C501.526,222.039 501.313,221.753 501.075,221.544C500.836,221.334 500.602,221.229 500.37,221.229C500.193,221.229 500.049,221.292 499.935,221.415C499.817,221.535 499.759,221.679 499.759,221.848C499.759,222.122 499.915,222.395 500.227,222.665L500.591,222.99C501.075,223.411 501.422,223.843 501.632,224.286C501.845,224.729 501.951,225.247 501.951,225.841C501.951,226.852 501.695,227.685 501.186,228.34C500.675,228.995 500.028,229.323 499.246,229.323C498.706,229.323 498.128,229.179 497.511,228.89Z" style="fill:white;fill-rule:nonzero;"/>
        </g>
    </g>
</svg>
