<?xml version="1.0" encoding="utf-8"?>
<!-- Generator: Adobe Illustrator 24.2.0, SVG Export Plug-In . SVG Version: 6.00 Build 0)  -->
<svg version="1.1" id="レイヤー_1" xmlns="http://www.w3.org/2000/svg" xmlns:xlink="http://www.w3.org/1999/xlink" x="0px"
	 y="0px" viewBox="0 0 255.12 131.22" style="enable-background:new 0 0 255.12 131.22;" xml:space="preserve">
<style type="text/css">
	.st0{fill:#0D955A;}
	.st1{fill:#8FC31F;}
	.st2{fill:#B8BBB2;}
	.st3{fill:#B8BCB3;}
	.st4{fill:#B9BCB4;}
	.st5{fill:#BABDB5;}
	.st6{fill:#BBBEB6;}
	.st7{fill:#BBBFB6;}
	.st8{fill:#BDC0B8;}
	.st9{fill:#BEC1B9;}
	.st10{fill:#BFC2BA;}
	.st11{fill:#C0C3BB;}
	.st12{fill:#C1C4BC;}
	.st13{fill:#C1C5BD;}
	.st14{fill:#C3C6BE;}
	.st15{fill:#C4C6BF;}
	.st16{fill:#C4C7BF;}
	.st17{fill:#C5C8C0;}
	.st18{fill:#C6C9C1;}
	.st19{fill:#C7C9C2;}
	.st20{fill:#C7CAC3;}
	.st21{fill:#C9CBC4;}
	.st22{fill:#C9CCC5;}
	.st23{fill:#CACDC6;}
	.st24{fill:#CBCEC6;}
	.st25{fill:#CCCEC8;}
	.st26{fill:#CCCFC8;}
	.st27{fill:#CDD0C9;}
	.st28{fill:#CFD1CB;}
	.st29{fill:#CFD2CB;}
	.st30{fill:#D0D2CC;}
	.st31{fill:#D1D3CD;}
	.st32{fill:#D2D4CE;}
	.st33{fill:#D2D5CF;}
	.st34{fill:#D3D5CF;}
	.st35{fill:#D4D6D1;}
	.st36{fill:#D5D7D1;}
	.st37{fill:#D6D8D2;}
	.st38{fill:#D7D9D3;}
	.st39{fill:#D7D9D4;}
	.st40{fill:#D8DAD5;}
	.st41{fill:#D9DBD6;}
	.st42{fill:#DADCD7;}
	.st43{fill:#DBDDD8;}
	.st44{fill:#DCDDD8;}
	.st45{fill:#DCDEDA;}
	.st46{fill:#DDDFDA;}
	.st47{fill:#DEE0DB;}
	.st48{fill:#DFE0DC;}
	.st49{fill:#E0E1DD;}
	.st50{fill:#E1E2DE;}
	.st51{fill:#E1E3DF;}
	.st52{fill:#E2E4E0;}
	.st53{fill:#E3E4E1;}
	.st54{fill:#E4E5E1;}
	.st55{fill:#E4E6E2;}
	.st56{fill:#E6E7E3;}
	.st57{fill:#E6E7E4;}
	.st58{fill:#E7E8E5;}
	.st59{fill:#E8E9E5;}
	.st60{fill:#E8E9E6;}
	.st61{fill:#E9EAE7;}
	.st62{fill:#EAEBE8;}
	.st63{fill:#EBECE9;}
	.st64{fill:#ECEDEA;}
	.st65{fill:#EDEDEB;}
	.st66{fill:#EDEEEB;}
	.st67{fill:#EEEFED;}
	.st68{fill:#EFEFED;}
	.st69{fill:#EFF0EE;}
	.st70{fill:#F1F1EF;}
	.st71{fill:#F1F2F0;}
	.st72{fill:#F2F2F1;}
	.st73{fill:#F3F3F1;}
	.st74{fill:#F3F4F3;}
	.st75{fill:#F4F5F3;}
	.st76{fill:#F5F5F4;}
	.st77{fill:#F6F6F5;}
	.st78{fill:#F7F7F6;}
	.st79{fill:#F7F7F7;}
	.st80{fill:#F8F8F7;}
	.st81{fill:#F9F9F8;}
	.st82{fill:#F9F9F9;}
	.st83{fill:#FAFAFA;}
	.st84{fill:#FBFBFB;}
	.st85{fill:#FCFCFB;}
	.st86{fill:#FCFCFC;}
	.st87{fill:#FDFDFD;}
	.st88{fill:#FFFFFF;}
	.st89{fill:#FAFBFA;}
	.st90{fill:#F6F7F5;}
	.st91{fill:#F5F6F5;}
	.st92{fill:#F4F4F3;}
	.st93{fill:#F3F4F2;}
	.st94{fill:#F0F1EF;}
	.st95{fill:#EFF0ED;}
	.st96{fill:#EEEFEC;}
	.st97{fill:#EBECE8;}
	.st98{fill:#EAEBE7;}
	.st99{fill:#E6E8E4;}
	.st100{fill:#E5E6E2;}
	.st101{fill:#E4E6E1;}
	.st102{fill:#E3E5E0;}
	.st103{fill:#E2E4DF;}
	.st104{fill:#E1E3DE;}
	.st105{fill:#E1E2DD;}
	.st106{fill:#E0E2DC;}
	.st107{fill:#DFE1DC;}
	.st108{fill:#DEE0DA;}
	.st109{fill:#DCDED9;}
	.st110{fill:#DCDED8;}
	.st111{fill:#DBDDD7;}
	.st112{fill:#DADCD6;}
	.st113{fill:#D9DBD5;}
	.st114{fill:#D8DAD4;}
	.st115{fill:#D7DAD4;}
	.st116{fill:#D7D9D2;}
	.st117{fill:#D5D8D1;}
	.st118{fill:#D4D6D0;}
	.st119{fill:#D3D6CF;}
	.st120{fill:#D2D5CE;}
	.st121{fill:#D2D4CD;}
	.st122{fill:#D1D3CC;}
	.st123{fill:#D0D3CB;}
	.st124{fill:#CFD2CA;}
	.st125{fill:#CED1C9;}
	.st126{fill:#CDCFC7;}
	.st127{fill:#CCCFC7;}
	.st128{fill:#CACDC5;}
	.st129{fill:#C9CCC4;}
	.st130{fill:#C8CBC3;}
	.st131{fill:#C7CBC2;}
	.st132{fill:#C7CAC1;}
	.st133{fill:#C6C9C0;}
	.st134{fill:#C4C8BF;}
	.st135{fill:#C4C7BE;}
	.st136{fill:#C2C6BC;}
	.st137{fill:#C1C5BC;}
</style>
<g>
	<g>
		<path class="st0" d="M17.33,101.32h1.49v2.99l2.8-2.99h1.96l-2.97,2.98l3.13,4.27h-1.95l-2.23-3.16l-0.73,0.74v2.42h-1.49V101.32z
			"/>
		<path class="st0" d="M28.82,101.32h1.72l-2.42,4.53v2.72h-1.51v-2.72l-2.51-4.53h1.78l1.5,3.16L28.82,101.32z"/>
		<path class="st0" d="M37.08,107.92c-0.55,0.56-1.34,0.85-2.38,0.85c-1.04,0-1.83-0.28-2.37-0.85c-0.73-0.69-1.1-1.69-1.1-2.99
			c0-1.33,0.37-2.32,1.1-2.99c0.55-0.56,1.34-0.85,2.37-0.85c1.04,0,1.83,0.28,2.38,0.85c0.73,0.67,1.1,1.66,1.1,2.99
			C38.18,106.24,37.81,107.23,37.08,107.92z M36.13,106.82c0.35-0.44,0.53-1.07,0.53-1.89c0-0.81-0.18-1.44-0.53-1.89
			c-0.35-0.44-0.83-0.67-1.43-0.67c-0.6,0-1.08,0.22-1.44,0.66s-0.54,1.07-0.54,1.89c0,0.82,0.18,1.45,0.54,1.89
			s0.84,0.66,1.44,0.66C35.3,107.49,35.78,107.26,36.13,106.82z"/>
		<path class="st0" d="M44.7,101.32v1.28h-2.17v5.96h-1.52v-5.96h-2.18v-1.28H44.7z"/>
		<path class="st0" d="M51.27,107.92c-0.55,0.56-1.34,0.85-2.38,0.85c-1.04,0-1.83-0.28-2.37-0.85c-0.73-0.69-1.1-1.69-1.1-2.99
			c0-1.33,0.37-2.32,1.1-2.99c0.55-0.56,1.34-0.85,2.37-0.85c1.04,0,1.83,0.28,2.38,0.85c0.73,0.67,1.1,1.66,1.1,2.99
			C52.36,106.24,52,107.23,51.27,107.92z M50.32,106.82c0.35-0.44,0.53-1.07,0.53-1.89c0-0.81-0.18-1.44-0.53-1.89
			c-0.35-0.44-0.83-0.67-1.43-0.67c-0.6,0-1.08,0.22-1.44,0.66s-0.54,1.07-0.54,1.89c0,0.82,0.18,1.45,0.54,1.89
			s0.84,0.66,1.44,0.66C49.49,107.49,49.97,107.26,50.32,106.82z"/>
		<path class="st0" d="M56.52,101.32h1.54v4.45c0,0.5,0.06,0.86,0.18,1.09c0.18,0.41,0.58,0.61,1.2,0.61c0.61,0,1.01-0.2,1.19-0.61
			c0.12-0.23,0.18-0.59,0.18-1.09v-4.45h1.54v4.46c0,0.77-0.12,1.37-0.36,1.8c-0.45,0.79-1.29,1.18-2.55,1.18
			c-1.25,0-2.1-0.39-2.55-1.18c-0.24-0.43-0.36-1.03-0.36-1.8V101.32z"/>
		<path class="st0" d="M63.87,101.32h1.59l2.88,5.05v-5.05h1.41v7.25h-1.51l-2.95-5.14v5.14h-1.41V101.32z"/>
		<path class="st0" d="M72.65,108.57h-1.5v-7.25h1.5V108.57z"/>
		<path class="st0" d="M78.4,101.32h1.57l-2.47,7.25h-1.43l-2.45-7.25h1.62l1.57,5.5L78.4,101.32z"/>
		<path class="st0" d="M86.34,102.6h-3.84v1.54h3.52v1.26h-3.52v1.86h4.01v1.3h-5.49v-7.25h5.32V102.6z"/>
		<path class="st0" d="M92.44,101.51c0.27,0.11,0.49,0.28,0.68,0.51c0.15,0.18,0.28,0.39,0.36,0.61c0.09,0.22,0.13,0.48,0.13,0.76
			c0,0.34-0.09,0.68-0.26,1.02c-0.17,0.33-0.46,0.57-0.86,0.71c0.33,0.13,0.57,0.33,0.71,0.57c0.14,0.25,0.21,0.63,0.21,1.13v0.49
			c0,0.33,0.01,0.56,0.04,0.67c0.04,0.19,0.13,0.32,0.28,0.41v0.18h-1.67c-0.05-0.16-0.08-0.29-0.1-0.39
			c-0.04-0.2-0.06-0.41-0.06-0.62l-0.01-0.67c-0.01-0.46-0.09-0.77-0.24-0.92c-0.15-0.15-0.44-0.23-0.86-0.23h-1.48v2.84h-1.48
			v-7.25h3.47C91.8,101.33,92.18,101.39,92.44,101.51z M89.31,102.58v1.95h1.63c0.32,0,0.57-0.04,0.73-0.12
			c0.29-0.14,0.43-0.41,0.43-0.82c0-0.44-0.14-0.73-0.42-0.89c-0.16-0.09-0.39-0.13-0.7-0.13H89.31z"/>
		<path class="st0" d="M96.26,106.33c0.05,0.33,0.14,0.58,0.28,0.74c0.25,0.3,0.68,0.45,1.29,0.45c0.36,0,0.66-0.04,0.89-0.12
			c0.43-0.15,0.65-0.43,0.65-0.84c0-0.24-0.11-0.42-0.32-0.56c-0.21-0.13-0.55-0.24-1.01-0.34l-0.78-0.17
			c-0.77-0.17-1.3-0.36-1.59-0.56c-0.49-0.33-0.73-0.86-0.73-1.57c0-0.65,0.24-1.19,0.72-1.62c0.48-0.43,1.18-0.64,2.11-0.64
			c0.77,0,1.43,0.2,1.98,0.61c0.55,0.4,0.83,0.99,0.86,1.76h-1.46c-0.03-0.44-0.22-0.75-0.58-0.93c-0.24-0.12-0.54-0.18-0.9-0.18
			c-0.4,0-0.72,0.08-0.96,0.24c-0.24,0.16-0.36,0.38-0.36,0.66c0,0.26,0.12,0.45,0.35,0.58c0.15,0.09,0.47,0.19,0.96,0.3l1.27,0.3
			c0.56,0.13,0.98,0.31,1.25,0.53c0.43,0.34,0.65,0.83,0.65,1.48c0,0.66-0.26,1.21-0.77,1.65c-0.51,0.44-1.23,0.66-2.17,0.66
			c-0.95,0-1.7-0.22-2.25-0.65c-0.55-0.43-0.82-1.02-0.82-1.78H96.26z"/>
		<path class="st0" d="M103.37,108.57h-1.5v-7.25h1.5V108.57z"/>
		<path class="st0" d="M110.16,101.32v1.28h-2.17v5.96h-1.52v-5.96h-2.18v-1.28H110.16z"/>
		<path class="st0" d="M115.28,101.32h1.72l-2.42,4.53v2.72h-1.51v-2.72l-2.51-4.53h1.78l1.5,3.16L115.28,101.32z"/>
		<path class="st0" d="M125.21,107.91c-0.45,0.56-1.14,0.84-2.06,0.84c-0.92,0-1.61-0.28-2.06-0.84s-0.68-1.23-0.68-2.02
			c0-0.77,0.23-1.44,0.68-2.01s1.14-0.85,2.06-0.85c0.92,0,1.61,0.28,2.06,0.85s0.68,1.24,0.68,2.01
			C125.89,106.68,125.67,107.35,125.21,107.91z M124.09,107.14c0.22-0.29,0.33-0.71,0.33-1.24c0-0.54-0.11-0.95-0.33-1.24
			c-0.22-0.29-0.53-0.43-0.94-0.43c-0.41,0-0.73,0.14-0.95,0.43c-0.22,0.29-0.33,0.7-0.33,1.24c0,0.54,0.11,0.95,0.33,1.24
			c0.22,0.29,0.54,0.44,0.95,0.44C123.56,107.57,123.87,107.43,124.09,107.14z"/>
		<path class="st0" d="M129.27,101.25c0.07,0,0.17,0.01,0.3,0.02v1.14c-0.08-0.01-0.21-0.02-0.4-0.02c-0.19,0-0.31,0.04-0.38,0.12
			c-0.07,0.09-0.11,0.18-0.11,0.29c0,0.1,0,0.26,0,0.45h0.92v0.99h-0.92v4.32h-1.39v-4.32h-0.79v-0.99h0.77v-0.34
			c0-0.57,0.1-0.97,0.29-1.18c0.2-0.32,0.69-0.48,1.47-0.48C129.12,101.25,129.2,101.25,129.27,101.25z"/>
		<path class="st1" d="M135.6,101.32h1.71l2.56,7.25h-1.64l-0.48-1.49h-2.67l-0.49,1.49h-1.58L135.6,101.32z M135.5,105.83h1.86
			l-0.92-2.85L135.5,105.83z"/>
		<path class="st1" d="M145.15,101.48c0.51,0.17,0.92,0.47,1.23,0.92c0.25,0.36,0.42,0.75,0.52,1.17c0.09,0.42,0.14,0.82,0.14,1.2
			c0,0.96-0.19,1.78-0.58,2.45c-0.53,0.9-1.34,1.35-2.43,1.35h-3.13v-7.25h3.13C144.47,101.33,144.85,101.38,145.15,101.48z
			 M142.37,102.58v4.73h1.4c0.72,0,1.22-0.35,1.5-1.06c0.15-0.39,0.23-0.85,0.23-1.38c0-0.74-0.12-1.3-0.35-1.7
			c-0.23-0.4-0.69-0.59-1.38-0.59H142.37z"/>
		<path class="st1" d="M152.51,101.32h1.57l-2.47,7.25h-1.43l-2.45-7.25h1.62l1.57,5.5L152.51,101.32z"/>
		<path class="st1" d="M157.16,101.32h1.71l2.56,7.25h-1.64l-0.48-1.49h-2.67l-0.49,1.49h-1.58L157.16,101.32z M157.06,105.83h1.86
			l-0.92-2.85L157.06,105.83z"/>
		<path class="st1" d="M162.44,101.32h1.59l2.88,5.05v-5.05h1.41v7.25h-1.51l-2.95-5.14v5.14h-1.41V101.32z"/>
		<path class="st1" d="M170.53,102.08c0.58-0.6,1.33-0.89,2.23-0.89c1.21,0,2.09,0.4,2.65,1.2c0.31,0.45,0.47,0.9,0.5,1.35h-1.51
			c-0.1-0.35-0.22-0.61-0.37-0.79c-0.27-0.31-0.67-0.47-1.2-0.47c-0.54,0-0.97,0.22-1.28,0.67c-0.31,0.44-0.47,1.07-0.47,1.89
			s0.16,1.42,0.49,1.83c0.33,0.4,0.75,0.61,1.25,0.61c0.52,0,0.92-0.17,1.19-0.52c0.15-0.19,0.28-0.47,0.38-0.84h1.5
			c-0.13,0.79-0.46,1.43-0.99,1.93c-0.53,0.5-1.22,0.74-2.05,0.74c-1.03,0-1.84-0.33-2.43-1c-0.59-0.67-0.89-1.59-0.89-2.76
			C169.52,103.74,169.86,102.76,170.53,102.08z"/>
		<path class="st1" d="M182.57,102.6h-3.84v1.54h3.52v1.26h-3.52v1.86h4.01v1.3h-5.49v-7.25h5.32V102.6z"/>
		<path class="st1" d="M188.28,101.48c0.51,0.17,0.92,0.47,1.23,0.92c0.25,0.36,0.42,0.75,0.52,1.17c0.09,0.42,0.14,0.82,0.14,1.2
			c0,0.96-0.19,1.78-0.58,2.45c-0.53,0.9-1.34,1.35-2.43,1.35h-3.13v-7.25h3.13C187.6,101.33,187.98,101.38,188.28,101.48z
			 M185.5,102.58v4.73h1.4c0.72,0,1.22-0.35,1.5-1.06c0.15-0.39,0.23-0.85,0.23-1.38c0-0.74-0.12-1.3-0.35-1.7
			c-0.23-0.4-0.69-0.59-1.38-0.59H185.5z"/>
		<path class="st0" d="M195.39,106.33c0.05,0.33,0.14,0.58,0.28,0.74c0.25,0.3,0.68,0.45,1.29,0.45c0.37,0,0.66-0.04,0.89-0.12
			c0.43-0.15,0.65-0.43,0.65-0.84c0-0.24-0.11-0.42-0.32-0.56c-0.21-0.13-0.55-0.24-1.01-0.34l-0.78-0.17
			c-0.77-0.17-1.3-0.36-1.59-0.56c-0.49-0.33-0.73-0.86-0.73-1.57c0-0.65,0.24-1.19,0.72-1.62c0.48-0.43,1.18-0.64,2.11-0.64
			c0.77,0,1.43,0.2,1.98,0.61s0.83,0.99,0.86,1.76h-1.46c-0.03-0.44-0.22-0.75-0.58-0.93c-0.24-0.12-0.54-0.18-0.9-0.18
			c-0.4,0-0.72,0.08-0.96,0.24s-0.36,0.38-0.36,0.66c0,0.26,0.12,0.45,0.35,0.58c0.15,0.09,0.47,0.19,0.96,0.3l1.27,0.3
			c0.56,0.13,0.97,0.31,1.25,0.53c0.43,0.34,0.65,0.83,0.65,1.48c0,0.66-0.26,1.21-0.77,1.65c-0.51,0.44-1.23,0.66-2.17,0.66
			c-0.95,0-1.7-0.22-2.25-0.65c-0.55-0.43-0.82-1.02-0.82-1.78H195.39z"/>
		<path class="st0" d="M201.81,102.08c0.58-0.6,1.33-0.89,2.23-0.89c1.21,0,2.09,0.4,2.65,1.2c0.31,0.45,0.47,0.9,0.5,1.35h-1.51
			c-0.1-0.35-0.22-0.61-0.37-0.79c-0.27-0.31-0.67-0.47-1.2-0.47c-0.54,0-0.97,0.22-1.28,0.67c-0.31,0.44-0.47,1.07-0.47,1.89
			s0.16,1.42,0.49,1.83c0.33,0.4,0.75,0.61,1.25,0.61c0.52,0,0.92-0.17,1.19-0.52c0.15-0.19,0.28-0.47,0.38-0.84h1.5
			c-0.13,0.79-0.46,1.43-0.99,1.93c-0.53,0.5-1.22,0.74-2.05,0.74c-1.03,0-1.84-0.33-2.43-1c-0.59-0.67-0.89-1.59-0.89-2.76
			C200.8,103.74,201.14,102.76,201.81,102.08z"/>
		<path class="st0" d="M209.87,108.57h-1.5v-7.25h1.5V108.57z"/>
		<path class="st0" d="M216.75,102.6h-3.84v1.54h3.52v1.26h-3.52v1.86h4.01v1.3h-5.49v-7.25h5.32V102.6z"/>
		<path class="st0" d="M218.18,101.32h1.59l2.88,5.05v-5.05h1.41v7.25h-1.51l-2.95-5.14v5.14h-1.41V101.32z"/>
		<path class="st0" d="M226.28,102.08c0.58-0.6,1.33-0.89,2.23-0.89c1.21,0,2.09,0.4,2.65,1.2c0.31,0.45,0.47,0.9,0.5,1.35h-1.51
			c-0.1-0.35-0.22-0.61-0.37-0.79c-0.27-0.31-0.67-0.47-1.2-0.47c-0.54,0-0.97,0.22-1.28,0.67c-0.31,0.44-0.47,1.07-0.47,1.89
			s0.16,1.42,0.49,1.83s0.75,0.61,1.25,0.61c0.52,0,0.92-0.17,1.19-0.52c0.15-0.19,0.28-0.47,0.38-0.84h1.5
			c-0.13,0.79-0.46,1.43-0.99,1.93c-0.53,0.5-1.22,0.74-2.05,0.74c-1.03,0-1.84-0.33-2.43-1c-0.59-0.67-0.89-1.59-0.89-2.76
			C225.27,103.74,225.6,102.76,226.28,102.08z"/>
		<path class="st0" d="M238.32,102.6h-3.84v1.54H238v1.26h-3.52v1.86h4.01v1.3H233v-7.25h5.32V102.6z"/>
	</g>
	<path class="st0" d="M17.34,27.95h11.67v23.39l21.93-23.39h15.33l-23.3,23.35l24.49,33.42H52.22L34.72,59.93l-5.71,5.79v18.99
		H17.34V27.95z"/>
	<path class="st0" d="M77.08,27.95h12.05v34.86c0,3.9,0.46,6.75,1.38,8.54c1.43,3.18,4.55,4.77,9.37,4.77
		c4.79,0,7.89-1.59,9.33-4.77c0.92-1.79,1.38-4.64,1.38-8.54V27.95h12.05v34.89c0,6.03-0.94,10.73-2.81,14.1
		c-3.49,6.16-10.14,9.24-19.96,9.24S83.4,83.1,79.88,76.93c-1.87-3.36-2.81-8.06-2.81-14.1V27.95z"/>
	<path class="st0" d="M204.37,67.19c0.37,2.59,1.09,4.53,2.16,5.82c1.96,2.34,5.33,3.5,10.11,3.5c2.86,0,5.18-0.31,6.96-0.92
		c3.38-1.18,5.07-3.38,5.07-6.59c0-1.87-0.83-3.32-2.48-4.35c-1.66-1-4.28-1.89-7.88-2.66l-6.15-1.35
		c-6.04-1.34-10.19-2.79-12.45-4.35c-3.83-2.62-5.74-6.71-5.74-12.29c0-5.08,1.87-9.31,5.61-12.67s9.24-5.05,16.49-5.05
		c6.06,0,11.22,1.59,15.5,4.76c4.28,3.17,6.52,7.77,6.73,13.81h-11.4c-0.21-3.41-1.74-5.84-4.58-7.28c-1.9-0.95-4.25-1.42-7.07-1.42
		c-3.13,0-5.63,0.62-7.5,1.85c-1.87,1.23-2.8,2.95-2.8,5.16c0,2.03,0.92,3.54,2.76,4.54c1.18,0.67,3.7,1.45,7.54,2.35l9.96,2.35
		c4.37,1.03,7.64,2.4,9.82,4.12c3.39,2.67,5.08,6.53,5.08,11.59c0,5.19-2.01,9.49-6.01,12.92c-4.01,3.43-9.67,5.14-16.99,5.14
		c-7.47,0-13.35-1.69-17.64-5.06c-4.28-3.38-6.42-8.02-6.42-13.92H204.37z"/>
	<g>
		<path class="st1" d="M156.66,40.82 M142.64,84.71h-12.55l26.57-76.46l26.57,76.46h-12.9l-13.67-43.9l-13.55,43.51L142.64,84.71z"
			/>
		<g>
			<path class="st2" d="M165.7,69.87c0,0,7.53-4.27,10.41-5.62l0.08,0.22c0,0-9.19,4.85-10.41,5.65L165.7,69.87z"/>
			<path class="st3" d="M165.8,70.17l-0.08-0.25c0,0,7.53-4.28,10.41-5.63l0.08,0.22C176.2,64.51,167.01,69.37,165.8,70.17z"/>
			<path class="st4" d="M165.81,70.21l-0.08-0.25c0,0,7.53-4.28,10.41-5.64l0.08,0.22C176.22,64.55,167.02,69.42,165.81,70.21z"/>
			<path class="st5" d="M165.83,70.26l-0.08-0.25c0,0,7.53-4.29,10.41-5.64l0.08,0.22C176.23,64.6,167.04,69.47,165.83,70.26z"/>
			<path class="st5" d="M165.84,70.31l-0.08-0.25c0,0,7.53-4.3,10.41-5.65l0.08,0.22C176.25,64.64,167.05,69.51,165.84,70.31z"/>
			<path class="st6" d="M165.85,70.36l-0.08-0.25c0,0,7.53-4.3,10.4-5.66l0.08,0.22C176.26,64.68,167.07,69.56,165.85,70.36z"/>
			<path class="st7" d="M165.87,70.4l-0.08-0.25c0,0,7.53-4.31,10.4-5.66l0.08,0.22C176.27,64.72,167.08,69.61,165.87,70.4z"/>
			<path class="st8" d="M165.88,70.45l-0.08-0.25c0,0,7.53-4.31,10.4-5.67l0.08,0.22C176.29,64.76,167.1,69.66,165.88,70.45z"/>
			<path class="st9" d="M165.9,70.5l-0.08-0.25c0,0,7.53-4.32,10.4-5.67l0.08,0.23C176.3,64.8,167.11,69.7,165.9,70.5z"/>
			<path class="st9" d="M165.91,70.54l-0.08-0.25c0,0,7.52-4.33,10.4-5.68l0.08,0.23C176.32,64.84,167.13,69.75,165.91,70.54z"/>
			<path class="st10" d="M165.93,70.59l-0.08-0.25c0,0,7.52-4.33,10.4-5.69l0.08,0.23C176.33,64.88,167.14,69.8,165.93,70.59z"/>
			<path class="st11" d="M165.94,70.64l-0.08-0.25c0,0,7.52-4.34,10.4-5.69l0.08,0.23C176.35,64.93,167.16,69.84,165.94,70.64z"/>
			<path class="st12" d="M165.96,70.69l-0.08-0.25c0,0,7.52-4.35,10.4-5.7l0.08,0.23C176.36,64.97,167.17,69.89,165.96,70.69z"/>
			<path class="st12" d="M165.97,70.73l-0.08-0.25c0,0,7.52-4.35,10.4-5.71l0.08,0.23C176.37,65.01,167.19,69.94,165.97,70.73z"/>
			<path class="st13" d="M165.99,70.78l-0.08-0.25c0,0,7.52-4.36,10.4-5.71l0.08,0.23C176.39,65.05,167.2,69.99,165.99,70.78z"/>
			<path class="st14" d="M166,70.83l-0.08-0.25c0,0,7.52-4.36,10.4-5.72l0.08,0.23C176.4,65.09,167.22,70.03,166,70.83z"/>
			<path class="st15" d="M166.02,70.87l-0.08-0.25c0,0,7.52-4.37,10.4-5.73l0.08,0.23C176.42,65.13,167.23,70.08,166.02,70.87z"/>
			<path class="st16" d="M166.03,70.92l-0.08-0.25c0,0,7.51-4.38,10.4-5.73l0.08,0.23C176.43,65.17,167.24,70.13,166.03,70.92z"/>
			<path class="st17" d="M166.05,70.97l-0.08-0.25c0,0,7.51-4.38,10.4-5.74l0.08,0.23C176.45,65.21,167.26,70.17,166.05,70.97z"/>
			<path class="st18" d="M166.06,71.02l-0.08-0.25c0,0,7.51-4.39,10.4-5.75l0.08,0.23C176.46,65.25,167.27,70.22,166.06,71.02z"/>
			<path class="st19" d="M166.07,71.06L166,70.82c0,0,7.51-4.4,10.4-5.75l0.08,0.23C176.47,65.3,167.29,70.27,166.07,71.06z"/>
			<path class="st20" d="M166.09,71.11l-0.08-0.25c0,0,7.51-4.4,10.4-5.76l0.08,0.23C176.49,65.34,167.3,70.32,166.09,71.11z"/>
			<path class="st20" d="M166.1,71.16l-0.08-0.25c0,0,7.51-4.41,10.39-5.77l0.08,0.23C176.5,65.38,167.32,70.36,166.1,71.16z"/>
			<path class="st21" d="M166.12,71.2l-0.08-0.25c0,0,7.51-4.41,10.39-5.77l0.08,0.23C176.52,65.42,167.33,70.41,166.12,71.2z"/>
			<path class="st22" d="M166.13,71.25l-0.08-0.25c0,0,7.51-4.42,10.39-5.78l0.08,0.24C176.53,65.46,167.35,70.46,166.13,71.25z"/>
			<path class="st23" d="M166.15,71.3l-0.08-0.25c0,0,7.51-4.43,10.39-5.79l0.08,0.24C176.55,65.5,167.36,70.5,166.15,71.3z"/>
			<path class="st24" d="M166.16,71.35l-0.08-0.25c0,0,7.5-4.43,10.39-5.79l0.08,0.24C176.56,65.54,167.38,70.55,166.16,71.35z"/>
			<path class="st25" d="M166.18,71.39l-0.08-0.25c0,0,7.5-4.44,10.39-5.8l0.08,0.24C176.57,65.58,167.39,70.6,166.18,71.39z"/>
			<path class="st26" d="M166.19,71.44l-0.08-0.25c0,0,7.5-4.45,10.39-5.81l0.08,0.24C176.59,65.63,167.41,70.64,166.19,71.44z"/>
			<path class="st27" d="M166.21,71.49l-0.08-0.25c0,0,7.5-4.45,10.39-5.81l0.08,0.24C176.6,65.67,167.42,70.69,166.21,71.49z"/>
			<path class="st28" d="M166.22,71.53l-0.08-0.25c0,0,7.5-4.46,10.39-5.82l0.08,0.24C176.62,65.71,167.44,70.74,166.22,71.53z"/>
			<path class="st28" d="M166.24,71.58l-0.08-0.25c0,0,7.5-4.46,10.39-5.83l0.08,0.24C176.63,65.75,167.45,70.79,166.24,71.58z"/>
			<path class="st29" d="M166.25,71.63l-0.08-0.25c0,0,7.5-4.47,10.39-5.83l0.08,0.24C176.65,65.79,167.46,70.83,166.25,71.63z"/>
			<path class="st30" d="M166.27,71.68l-0.08-0.25c0,0,7.5-4.48,10.39-5.84l0.08,0.24C176.66,65.83,167.48,70.88,166.27,71.68z"/>
			<path class="st31" d="M166.28,71.72l-0.08-0.25c0,0,7.49-4.48,10.39-5.85l0.08,0.24C176.68,65.87,167.49,70.93,166.28,71.72z"/>
			<path class="st32" d="M166.29,71.77l-0.08-0.25c0,0,7.49-4.49,10.39-5.85l0.08,0.24C176.69,65.91,167.51,70.97,166.29,71.77z"/>
			<path class="st33" d="M166.31,71.82l-0.08-0.25c0,0,7.49-4.5,10.39-5.86l0.08,0.24C176.7,65.95,167.52,71.02,166.31,71.82z"/>
			<path class="st34" d="M166.32,71.86l-0.08-0.25c0,0,7.49-4.5,10.39-5.87l0.08,0.24C176.72,66,167.54,71.07,166.32,71.86z"/>
			<path class="st35" d="M166.34,71.91l-0.08-0.25c0,0,7.49-4.51,10.39-5.87l0.08,0.24C176.73,66.04,167.55,71.12,166.34,71.91z"/>
			<path class="st35" d="M166.35,71.96l-0.08-0.25c0,0,7.49-4.52,10.38-5.88l0.09,0.25C176.75,66.08,167.57,71.16,166.35,71.96z"/>
			<path class="st36" d="M166.37,72l-0.08-0.25c0,0,7.49-4.52,10.38-5.89l0.09,0.25C176.76,66.12,167.58,71.21,166.37,72z"/>
			<path class="st37" d="M166.38,72.05l-0.08-0.25c0,0,7.49-4.53,10.38-5.89l0.09,0.25C176.78,66.16,167.6,71.26,166.38,72.05z"/>
			<path class="st38" d="M166.4,72.1l-0.08-0.25c0,0,7.49-4.53,10.38-5.9l0.09,0.25C176.79,66.2,167.61,71.3,166.4,72.1z"/>
			<path class="st39" d="M166.41,72.15l-0.08-0.25c0,0,7.48-4.54,10.38-5.9l0.09,0.25C176.8,66.24,167.63,71.35,166.41,72.15z"/>
			<path class="st40" d="M166.43,72.19l-0.08-0.25c0,0,7.48-4.55,10.38-5.91l0.09,0.25C176.82,66.28,167.64,71.4,166.43,72.19z"/>
			<path class="st41" d="M166.44,72.24l-0.08-0.25c0,0,7.48-4.55,10.38-5.92l0.09,0.25C176.83,66.33,167.66,71.45,166.44,72.24z"/>
			<path class="st42" d="M166.46,72.29l-0.08-0.25c0,0,7.48-4.56,10.38-5.92l0.09,0.25C176.85,66.37,167.67,71.49,166.46,72.29z"/>
			<path class="st43" d="M166.47,72.33l-0.08-0.25c0,0,7.48-4.57,10.38-5.93l0.09,0.25C176.86,66.41,167.69,71.54,166.47,72.33z"/>
			<path class="st43" d="M166.49,72.38l-0.08-0.25c0,0,7.48-4.57,10.38-5.94l0.09,0.25C176.88,66.45,167.7,71.59,166.49,72.38z"/>
			<path class="st44" d="M166.5,72.43l-0.08-0.25c0,0,7.48-4.58,10.38-5.94l0.09,0.25C176.89,66.49,167.71,71.63,166.5,72.43z"/>
			<path class="st45" d="M166.51,72.48l-0.08-0.25c0,0,7.48-4.58,10.38-5.95l0.09,0.25C176.9,66.53,167.73,71.68,166.51,72.48z"/>
			<path class="st46" d="M166.53,72.52l-0.08-0.25c0,0,7.48-4.59,10.38-5.96l0.09,0.25C176.92,66.57,167.74,71.73,166.53,72.52z"/>
			<path class="st47" d="M166.54,72.57l-0.08-0.25c0,0,7.47-4.6,10.38-5.96l0.09,0.25C176.93,66.61,167.76,71.78,166.54,72.57z"/>
			<path class="st48" d="M166.56,72.62l-0.08-0.25c0,0,7.47-4.6,10.38-5.97l0.09,0.25C176.95,66.65,167.77,71.82,166.56,72.62z"/>
			<path class="st49" d="M166.57,72.66l-0.08-0.25c0,0,7.47-4.61,10.38-5.98l0.09,0.25C176.96,66.7,167.79,71.87,166.57,72.66z"/>
			<path class="st50" d="M166.59,72.71l-0.08-0.25c0,0,7.47-4.62,10.38-5.98l0.09,0.26C176.98,66.74,167.8,71.92,166.59,72.71z"/>
			<path class="st51" d="M166.6,72.76l-0.08-0.25c0,0,7.47-4.62,10.37-5.99l0.09,0.26C176.99,66.78,167.82,71.96,166.6,72.76z"/>
			<path class="st51" d="M166.62,72.81l-0.08-0.25c0,0,7.47-4.63,10.37-6l0.09,0.26C177,66.82,167.83,72.01,166.62,72.81z"/>
			<path class="st52" d="M166.63,72.85l-0.08-0.25c0,0,7.47-4.63,10.37-6l0.09,0.26C177.02,66.86,167.85,72.06,166.63,72.85z"/>
			<path class="st53" d="M166.65,72.9l-0.08-0.25c0,0,7.47-4.64,10.37-6.01l0.09,0.26C177.03,66.9,167.86,72.11,166.65,72.9z"/>
			<path class="st54" d="M166.66,72.95l-0.08-0.25c0,0,7.46-4.65,10.37-6.02l0.09,0.26C177.05,66.94,167.88,72.15,166.66,72.95z"/>
			<path class="st55" d="M166.68,72.99l-0.08-0.25c0,0,7.46-4.65,10.37-6.02l0.09,0.26C177.06,66.98,167.89,72.2,166.68,72.99z"/>
			<path class="st56" d="M166.69,73.04l-0.08-0.25c0,0,7.46-4.66,10.37-6.03l0.09,0.26C177.08,67.03,167.91,72.25,166.69,73.04z"/>
			<path class="st57" d="M166.71,73.09l-0.08-0.25c0,0,7.46-4.67,10.37-6.04l0.09,0.26C177.09,67.07,167.92,72.29,166.71,73.09z"/>
			<path class="st58" d="M166.72,73.14l-0.08-0.25c0,0,7.46-4.67,10.37-6.04l0.09,0.26C177.1,67.11,167.93,72.34,166.72,73.14z"/>
			<path class="st59" d="M166.73,73.18l-0.08-0.25c0,0,7.46-4.68,10.37-6.05l0.09,0.26C177.12,67.15,167.95,72.39,166.73,73.18z"/>
			<path class="st60" d="M166.75,73.23l-0.08-0.25c0,0,7.46-4.68,10.37-6.06l0.09,0.26C177.13,67.19,167.96,72.44,166.75,73.23z"/>
			<path class="st61" d="M166.76,73.28l-0.08-0.25c0,0,7.46-4.69,10.37-6.06l0.09,0.26C177.15,67.23,167.98,72.48,166.76,73.28z"/>
			<path class="st61" d="M166.78,73.32l-0.08-0.25c0,0,7.46-4.7,10.37-6.07l0.09,0.26C177.16,67.27,167.99,72.53,166.78,73.32z"/>
			<path class="st62" d="M166.79,73.37l-0.08-0.25c0,0,7.45-4.7,10.37-6.08l0.09,0.26C177.18,67.31,168.01,72.58,166.79,73.37z"/>
			<path class="st63" d="M166.81,73.42l-0.08-0.25c0,0,7.45-4.71,10.37-6.08l0.09,0.27C177.19,67.35,168.02,72.62,166.81,73.42z"/>
			<path class="st64" d="M166.82,73.47l-0.08-0.25c0,0,7.45-4.72,10.37-6.09l0.09,0.27C177.2,67.4,168.04,72.67,166.82,73.47z"/>
			<path class="st65" d="M166.84,73.51l-0.08-0.25c0,0,7.45-4.72,10.37-6.1l0.09,0.27C177.22,67.44,168.05,72.72,166.84,73.51z"/>
			<path class="st66" d="M166.85,73.56l-0.08-0.25c0,0,7.45-4.73,10.36-6.1l0.09,0.27C177.23,67.48,168.07,72.77,166.85,73.56z"/>
			<path class="st67" d="M166.87,73.61l-0.08-0.25c0,0,7.45-4.74,10.36-6.11l0.09,0.27C177.25,67.52,168.08,72.81,166.87,73.61z"/>
			<path class="st67" d="M166.88,73.65l-0.08-0.25c0,0,7.45-4.74,10.36-6.12l0.09,0.27C177.26,67.56,168.1,72.86,166.88,73.65z"/>
			<path class="st68" d="M166.9,73.7l-0.08-0.25c0,0,7.45-4.75,10.36-6.12l0.09,0.27C177.28,67.6,168.11,72.91,166.9,73.7z"/>
			<path class="st69" d="M166.91,73.75l-0.08-0.25c0,0,7.44-4.75,10.36-6.13l0.09,0.27C177.29,67.64,168.13,72.95,166.91,73.75z"/>
			<path class="st70" d="M166.93,73.8l-0.08-0.25c0,0,7.44-4.76,10.36-6.13l0.09,0.27C177.3,67.68,168.14,73,166.93,73.8z"/>
			<path class="st71" d="M166.94,73.84l-0.08-0.25c0,0,7.44-4.77,10.36-6.14l0.09,0.27C177.32,67.73,168.15,73.05,166.94,73.84z"/>
			<path class="st72" d="M166.96,73.89l-0.08-0.25c0,0,7.44-4.77,10.36-6.15l0.09,0.27C177.33,67.77,168.17,73.09,166.96,73.89z"/>
			<path class="st73" d="M166.97,73.94l-0.08-0.25c0,0,7.44-4.78,10.36-6.15l0.09,0.27C177.35,67.81,168.18,73.14,166.97,73.94z"/>
			<path class="st74" d="M166.98,73.98l-0.08-0.25c0,0,7.44-4.79,10.36-6.16l0.09,0.27C177.36,67.85,168.2,73.19,166.98,73.98z"/>
			<path class="st75" d="M167,74.03l-0.08-0.25c0,0,7.44-4.79,10.36-6.17l0.1,0.27C177.38,67.89,168.21,73.24,167,74.03z"/>
			<path class="st75" d="M167.01,74.08l-0.08-0.25c0,0,7.44-4.8,10.36-6.17l0.1,0.27C177.39,67.93,168.23,73.28,167.01,74.08z"/>
			<path class="st76" d="M167.03,74.13l-0.08-0.25c0,0,7.44-4.8,10.36-6.18l0.1,0.27C177.4,67.97,168.24,73.33,167.03,74.13z"/>
			<path class="st77" d="M167.04,74.17l-0.08-0.25c0,0,7.43-4.81,10.36-6.19l0.1,0.28C177.42,68.01,168.26,73.38,167.04,74.17z"/>
			<path class="st78" d="M167.06,74.22l-0.08-0.25c0,0,7.43-4.82,10.36-6.19l0.1,0.28C177.43,68.05,168.27,73.42,167.06,74.22z"/>
			<path class="st79" d="M167.07,74.27L167,74.02c0,0,7.43-4.82,10.36-6.2l0.1,0.28C177.45,68.1,168.29,73.47,167.07,74.27z"/>
			<path class="st80" d="M167.09,74.31l-0.08-0.25c0,0,7.43-4.83,10.36-6.21l0.1,0.28C177.46,68.14,168.3,73.52,167.09,74.31z"/>
			<path class="st81" d="M167.1,74.36l-0.08-0.25c0,0,7.43-4.84,10.35-6.21l0.1,0.28C177.48,68.18,168.32,73.57,167.1,74.36z"/>
			<path class="st82" d="M167.12,74.41l-0.08-0.25c0,0,7.43-4.84,10.35-6.22l0.1,0.28C177.49,68.22,168.33,73.61,167.12,74.41z"/>
			<path class="st83" d="M167.13,74.45l-0.08-0.25c0,0,7.43-4.85,10.35-6.23l0.1,0.28C177.5,68.26,168.35,73.66,167.13,74.45z"/>
			<path class="st83" d="M167.15,74.5l-0.08-0.25c0,0,7.43-4.85,10.35-6.23l0.1,0.28C177.52,68.3,168.36,73.71,167.15,74.5z"/>
			<path class="st84" d="M167.16,74.55l-0.08-0.25c0,0,7.42-4.86,10.35-6.24l0.1,0.28C177.53,68.34,168.37,73.75,167.16,74.55z"/>
			<path class="st85" d="M167.18,74.6l-0.08-0.25c0,0,7.42-4.87,10.35-6.25l0.1,0.28C177.55,68.38,168.39,73.8,167.18,74.6z"/>
			<path class="st86" d="M167.19,74.64l-0.08-0.25c0,0,7.42-4.87,10.35-6.25l0.1,0.28C177.56,68.43,168.4,73.85,167.19,74.64z"/>
			<path class="st87" d="M167.2,74.69l-0.08-0.25c0,0,7.42-4.88,10.35-6.26l0.1,0.28C177.58,68.47,168.42,73.9,167.2,74.69z"/>
			<path class="st87" d="M167.22,74.74l-0.08-0.25c0,0,7.42-4.89,10.35-6.27l0.1,0.28C177.59,68.51,168.43,73.94,167.22,74.74z"/>
			<path class="st88" d="M167.23,74.78l-0.08-0.25c0,0,7.42-4.89,10.35-6.27l0.1,0.28C177.61,68.55,168.45,73.99,167.23,74.78z"/>
			<path class="st88" d="M167.25,74.83l-0.08-0.25c0,0,7.42-4.9,10.35-6.28l0.1,0.28C177.62,68.59,168.46,74.04,167.25,74.83z"/>
			<path class="st88" d="M167.19,74.63c0,0,7.42-4.9,10.35-6.29l0.1,0.29c0,0-9.16,5.45-10.37,6.25L167.19,74.63z"/>
		</g>
		<g>
			<path class="st88" d="M163,61.17c0,0,4.36-1.78,11.1-2.7l0.06,0.18c0,0-5.73,1.33-11.1,2.73L163,61.17z"/>
			<path class="st88" d="M163.01,61.19c0,0,4.38-1.78,11.1-2.7l0.06,0.18c0,0-5.73,1.33-11.1,2.74L163.01,61.19z"/>
			<path class="st88" d="M163.01,61.22c0,0,4.39-1.78,11.1-2.7l0.06,0.18c0,0-5.73,1.34-11.1,2.74L163.01,61.22z"/>
			<path class="st87" d="M163.02,61.24c0,0,4.41-1.78,11.1-2.71l0.06,0.18c0,0-5.73,1.34-11.09,2.75L163.02,61.24z"/>
			<path class="st87" d="M163.03,61.27c0,0,4.42-1.79,11.1-2.71l0.06,0.18c0,0-5.73,1.34-11.09,2.75L163.03,61.27z"/>
			<path class="st87" d="M163.04,61.29c0,0,4.44-1.79,11.1-2.71l0.06,0.18c0,0-5.73,1.35-11.09,2.76L163.04,61.29z"/>
			<path class="st86" d="M163.04,61.32c0,0,4.45-1.79,11.1-2.71l0.06,0.18c0,0-5.73,1.35-11.09,2.76L163.04,61.32z"/>
			<path class="st85" d="M163.05,61.34c0,0,4.47-1.79,11.1-2.72l0.06,0.18c0,0-5.73,1.36-11.09,2.77L163.05,61.34z"/>
			<path class="st89" d="M163.06,61.37c0,0,4.48-1.8,11.1-2.72l0.06,0.18c0,0-5.73,1.36-11.09,2.77L163.06,61.37z"/>
			<path class="st89" d="M163.07,61.39c0,0,4.5-1.8,11.1-2.72l0.06,0.18c0,0-5.73,1.37-11.09,2.78L163.07,61.39z"/>
			<path class="st83" d="M163.07,61.42c0,0,4.51-1.8,11.1-2.73l0.06,0.18c0,0-5.72,1.37-11.09,2.78L163.07,61.42z"/>
			<path class="st82" d="M163.08,61.44c0,0,4.53-1.8,11.1-2.73l0.06,0.18c0,0-5.72,1.38-11.09,2.78L163.08,61.44z"/>
			<path class="st81" d="M163.09,61.47c0,0,4.54-1.81,11.1-2.73l0.06,0.18c0,0-5.72,1.38-11.09,2.79L163.09,61.47z"/>
			<path class="st81" d="M163.1,61.49c0,0,4.56-1.81,11.1-2.74l0.06,0.18c0,0-5.72,1.39-11.09,2.79L163.1,61.49z"/>
			<path class="st80" d="M163.1,61.51c0,0,4.57-1.81,11.1-2.74l0.06,0.18c0,0-5.72,1.39-11.09,2.8L163.1,61.51z"/>
			<path class="st79" d="M163.11,61.54c0,0,4.59-1.81,11.1-2.74l0.06,0.18c0,0-5.72,1.39-11.09,2.8L163.11,61.54z"/>
			<path class="st90" d="M163.12,61.56c0,0,4.6-1.82,11.1-2.75l0.06,0.18c0,0-5.72,1.4-11.09,2.81L163.12,61.56z"/>
			<path class="st90" d="M163.13,61.59c0,0,4.62-1.82,11.11-2.75l0.06,0.18c0,0-5.72,1.4-11.09,2.81L163.13,61.59z"/>
			<path class="st91" d="M163.13,61.61c0,0,4.63-1.82,11.11-2.75l0.06,0.18c0,0-5.72,1.41-11.09,2.82L163.13,61.61z"/>
			<path class="st76" d="M163.14,61.64c0,0,4.65-1.82,11.11-2.76l0.06,0.18c0,0-5.72,1.41-11.09,2.82L163.14,61.64z"/>
			<path class="st92" d="M163.15,61.66c0,0,4.66-1.82,11.11-2.76l0.06,0.18c0,0-5.72,1.42-11.09,2.82L163.15,61.66z"/>
			<path class="st92" d="M163.16,61.69c0,0,4.68-1.83,11.11-2.76l0.06,0.18c0,0-5.72,1.42-11.09,2.83L163.16,61.69z"/>
			<path class="st93" d="M163.16,61.71c0,0,4.69-1.83,11.11-2.77l0.06,0.18c0,0-5.72,1.43-11.08,2.83L163.16,61.71z"/>
			<path class="st73" d="M163.17,61.74c0,0,4.71-1.83,11.11-2.77l0.06,0.18c0,0-5.72,1.43-11.08,2.84L163.17,61.74z"/>
			<path class="st71" d="M163.18,61.76c0,0,4.72-1.83,11.11-2.77l0.06,0.18c0,0-5.72,1.43-11.08,2.84L163.18,61.76z"/>
			<path class="st70" d="M163.19,61.79c0,0,4.74-1.84,11.11-2.78l0.06,0.18c0,0-5.72,1.44-11.08,2.85L163.19,61.79z"/>
			<path class="st70" d="M163.19,61.81c0,0,4.75-1.84,11.11-2.78l0.06,0.18c0,0-5.72,1.44-11.08,2.85L163.19,61.81z"/>
			<path class="st94" d="M163.2,61.84c0,0,4.77-1.84,11.11-2.78l0.06,0.18c0,0-5.72,1.45-11.08,2.86L163.2,61.84z"/>
			<path class="st95" d="M163.21,61.86c0,0,4.78-1.84,11.11-2.79l0.06,0.18c0,0-5.72,1.45-11.08,2.86L163.21,61.86z"/>
			<path class="st68" d="M163.22,61.89c0,0,4.8-1.85,11.11-2.79l0.06,0.17c0,0-5.72,1.46-11.08,2.87L163.22,61.89z"/>
			<path class="st68" d="M163.22,61.91c0,0,4.82-1.85,11.11-2.79l0.06,0.17c0,0-5.71,1.46-11.08,2.87L163.22,61.91z"/>
			<path class="st96" d="M163.23,61.94c0,0,4.83-1.85,11.11-2.79l0.06,0.17c0,0-5.71,1.47-11.08,2.87L163.23,61.94z"/>
			<path class="st66" d="M163.24,61.96c0,0,4.85-1.85,11.11-2.8l0.06,0.17c0,0-5.71,1.47-11.08,2.88L163.24,61.96z"/>
			<path class="st64" d="M163.25,61.99c0,0,4.86-1.86,11.11-2.8l0.06,0.17c0,0-5.71,1.48-11.08,2.88L163.25,61.99z"/>
			<path class="st64" d="M163.25,62.01c0,0,4.88-1.86,11.11-2.8l0.06,0.17c0,0-5.71,1.48-11.08,2.89L163.25,62.01z"/>
			<path class="st63" d="M163.26,62.03c0,0,4.89-1.86,11.11-2.81l0.06,0.17c0,0-5.71,1.48-11.08,2.89L163.26,62.03z"/>
			<path class="st97" d="M163.27,62.06c0,0,4.91-1.86,11.11-2.81l0.06,0.17c0,0-5.71,1.49-11.08,2.9L163.27,62.06z"/>
			<path class="st98" d="M163.28,62.08c0,0,4.92-1.87,11.11-2.81l0.06,0.17c0,0-5.71,1.49-11.08,2.9L163.28,62.08z"/>
			<path class="st98" d="M163.28,62.11c0,0,4.94-1.87,11.11-2.82l0.06,0.17c0,0-5.71,1.5-11.08,2.91L163.28,62.11z"/>
			<path class="st61" d="M163.29,62.13c0,0,4.95-1.87,11.11-2.82l0.06,0.17c0,0-5.71,1.5-11.08,2.91L163.29,62.13z"/>
			<path class="st59" d="M163.3,62.16c0,0,4.97-1.87,11.11-2.82l0.06,0.17c0,0-5.71,1.51-11.08,2.91L163.3,62.16z"/>
			<path class="st58" d="M163.31,62.18c0,0,4.98-1.87,11.11-2.83l0.06,0.17c0,0-5.71,1.51-11.08,2.92L163.31,62.18z"/>
			<path class="st58" d="M163.31,62.21c0,0,5-1.88,11.11-2.83l0.06,0.17c0,0-5.71,1.52-11.07,2.92L163.31,62.21z"/>
			<path class="st99" d="M163.32,62.23c0,0,5.01-1.88,11.11-2.83l0.06,0.17c0,0-5.71,1.52-11.07,2.93L163.32,62.23z"/>
			<path class="st56" d="M163.33,62.26c0,0,5.03-1.88,11.11-2.84l0.06,0.17c0,0-5.71,1.52-11.07,2.93L163.33,62.26z"/>
			<path class="st100" d="M163.34,62.28c0,0,5.04-1.88,11.11-2.84l0.06,0.17c0,0-5.71,1.53-11.07,2.94L163.34,62.28z"/>
			<path class="st100" d="M163.34,62.31c0,0,5.06-1.89,11.11-2.84l0.06,0.17c0,0-5.71,1.53-11.07,2.94L163.34,62.31z"/>
			<path class="st101" d="M163.35,62.33c0,0,5.07-1.89,11.11-2.85l0.06,0.17c0,0-5.71,1.54-11.07,2.95L163.35,62.33z"/>
			<path class="st102" d="M163.36,62.36c0,0,5.09-1.89,11.11-2.85l0.06,0.17c0,0-5.71,1.54-11.07,2.95L163.36,62.36z"/>
			<path class="st103" d="M163.36,62.38c0,0,5.1-1.89,11.11-2.85l0.06,0.17c0,0-5.7,1.55-11.07,2.96L163.36,62.38z"/>
			<path class="st104" d="M163.37,62.41c0,0,5.12-1.9,11.11-2.86l0.06,0.17c0,0-5.7,1.55-11.07,2.96L163.37,62.41z"/>
			<path class="st104" d="M163.38,62.43c0,0,5.13-1.9,11.11-2.86l0.06,0.17c0,0-5.7,1.56-11.07,2.96L163.38,62.43z"/>
			<path class="st105" d="M163.39,62.46c0,0,5.15-1.9,11.11-2.86l0.06,0.17c0,0-5.7,1.56-11.07,2.97L163.39,62.46z"/>
			<path class="st106" d="M163.39,62.48c0,0,5.16-1.9,11.11-2.87l0.06,0.17c0,0-5.7,1.57-11.07,2.97L163.39,62.48z"/>
			<path class="st107" d="M163.4,62.51c0,0,5.18-1.91,11.11-2.87l0.06,0.17c0,0-5.7,1.57-11.07,2.98L163.4,62.51z"/>
			<path class="st107" d="M163.41,62.53c0,0,5.19-1.91,11.11-2.87l0.06,0.17c0,0-5.7,1.57-11.07,2.98L163.41,62.53z"/>
			<path class="st108" d="M163.42,62.55c0,0,5.21-1.91,11.11-2.87l0.06,0.17c0,0-5.7,1.58-11.07,2.99L163.42,62.55z"/>
			<path class="st46" d="M163.42,62.58c0,0,5.22-1.91,11.11-2.88l0.06,0.17c0,0-5.7,1.58-11.07,2.99L163.42,62.58z"/>
			<path class="st109" d="M163.43,62.6c0,0,5.24-1.92,11.11-2.88l0.06,0.17c0,0-5.7,1.59-11.07,3L163.43,62.6z"/>
			<path class="st109" d="M163.44,62.63c0,0,5.25-1.92,11.11-2.88l0.06,0.17c0,0-5.7,1.59-11.07,3L163.44,62.63z"/>
			<path class="st110" d="M163.45,62.65c0,0,5.27-1.92,11.11-2.89l0.06,0.17c0,0-5.7,1.6-11.07,3L163.45,62.65z"/>
			<path class="st111" d="M163.45,62.68c0,0,5.28-1.92,11.11-2.89l0.06,0.17c0,0-5.7,1.6-11.06,3.01L163.45,62.68z"/>
			<path class="st112" d="M163.46,62.7c0,0,5.3-1.93,11.11-2.89l0.06,0.17c0,0-5.7,1.61-11.06,3.01L163.46,62.7z"/>
			<path class="st112" d="M163.47,62.73c0,0,5.32-1.93,11.11-2.9l0.06,0.17c0,0-5.7,1.61-11.06,3.02L163.47,62.73z"/>
			<path class="st113" d="M163.48,62.75c0,0,5.33-1.93,11.11-2.9l0.06,0.17c0,0-5.7,1.61-11.06,3.02L163.48,62.75z"/>
			<path class="st114" d="M163.48,62.78c0,0,5.35-1.93,11.11-2.9l0.06,0.17c0,0-5.7,1.62-11.06,3.03L163.48,62.78z"/>
			<path class="st115" d="M163.49,62.8c0,0,5.36-1.93,11.11-2.91l0.06,0.17c0,0-5.7,1.62-11.06,3.03L163.49,62.8z"/>
			<path class="st115" d="M163.5,62.83c0,0,5.38-1.94,11.11-2.91l0.06,0.17c0,0-5.7,1.63-11.06,3.04L163.5,62.83z"/>
			<path class="st116" d="M163.51,62.85c0,0,5.39-1.94,11.11-2.91l0.06,0.17c0,0-5.7,1.63-11.06,3.04L163.51,62.85z"/>
			<path class="st37" d="M163.51,62.88c0,0,5.41-1.94,11.11-2.92l0.06,0.17c0,0-5.69,1.64-11.06,3.05L163.51,62.88z"/>
			<path class="st117" d="M163.52,62.9c0,0,5.42-1.94,11.11-2.92l0.06,0.17c0,0-5.69,1.64-11.06,3.05L163.52,62.9z"/>
			<path class="st117" d="M163.53,62.93c0,0,5.44-1.95,11.11-2.92l0.06,0.17c0,0-5.69,1.65-11.06,3.05L163.53,62.93z"/>
			<path class="st118" d="M163.54,62.95c0,0,5.45-1.95,11.11-2.93l0.06,0.17c0,0-5.69,1.65-11.06,3.06L163.54,62.95z"/>
			<path class="st119" d="M163.54,62.98c0,0,5.47-1.95,11.11-2.93l0.06,0.17c0,0-5.69,1.66-11.06,3.06L163.54,62.98z"/>
			<path class="st120" d="M163.55,63c0,0,5.48-1.95,11.11-2.93l0.06,0.17c0,0-5.69,1.66-11.06,3.07L163.55,63z"/>
			<path class="st121" d="M163.56,63.03c0,0,5.5-1.96,11.11-2.94l0.06,0.17c0,0-5.69,1.66-11.06,3.07L163.56,63.03z"/>
			<path class="st121" d="M163.57,63.05c0,0,5.51-1.96,11.11-2.94l0.06,0.17c0,0-5.69,1.67-11.06,3.08L163.57,63.05z"/>
			<path class="st122" d="M163.57,63.08c0,0,5.53-1.96,11.11-2.94l0.06,0.17c0,0-5.69,1.67-11.06,3.08L163.57,63.08z"/>
			<path class="st123" d="M163.58,63.1c0,0,5.54-1.96,11.11-2.94l0.06,0.17c0,0-5.69,1.68-11.06,3.09L163.58,63.1z"/>
			<path class="st124" d="M163.59,63.12c0,0,5.56-1.97,11.11-2.95l0.06,0.17c0,0-5.69,1.68-11.06,3.09L163.59,63.12z"/>
			<path class="st124" d="M163.6,63.15c0,0,5.57-1.97,11.11-2.95l0.06,0.17c0,0-5.69,1.69-11.06,3.09L163.6,63.15z"/>
			<path class="st125" d="M163.6,63.17c0,0,5.59-1.97,11.11-2.95l0.06,0.17c0,0-5.69,1.69-11.05,3.1L163.6,63.17z"/>
			<path class="st27" d="M163.61,63.2c0,0,5.6-1.97,11.11-2.96l0.06,0.17c0,0-5.69,1.7-11.05,3.1L163.61,63.2z"/>
			<path class="st126" d="M163.62,63.22c0,0,5.62-1.98,11.11-2.96l0.06,0.17c0,0-5.69,1.7-11.05,3.11L163.62,63.22z"/>
			<path class="st126" d="M163.63,63.25c0,0,5.63-1.98,11.11-2.96l0.06,0.17c0,0-5.69,1.7-11.05,3.11L163.63,63.25z"/>
			<path class="st127" d="M163.63,63.27c0,0,5.65-1.98,11.11-2.97l0.06,0.17c0,0-5.69,1.71-11.05,3.12L163.63,63.27z"/>
			<path class="st24" d="M163.64,63.3c0,0,5.66-1.98,11.11-2.97l0.06,0.17c0,0-5.69,1.71-11.05,3.12L163.64,63.3z"/>
			<path class="st128" d="M163.65,63.32c0,0,5.68-1.98,11.11-2.97l0.06,0.17c0,0-5.69,1.72-11.05,3.13L163.65,63.32z"/>
			<path class="st128" d="M163.66,63.35c0,0,5.69-1.99,11.11-2.98l0.06,0.17c0,0-5.68,1.72-11.05,3.13L163.66,63.35z"/>
			<path class="st129" d="M163.66,63.37c0,0,5.71-1.99,11.11-2.98l0.06,0.17c0,0-5.68,1.73-11.05,3.14L163.66,63.37z"/>
			<path class="st130" d="M163.67,63.4c0,0,5.72-1.99,11.11-2.98l0.06,0.17c0,0-5.68,1.73-11.05,3.14L163.67,63.4z"/>
			<path class="st131" d="M163.68,63.42c0,0,5.74-1.99,11.11-2.99l0.06,0.17c0,0-5.68,1.74-11.05,3.14L163.68,63.42z"/>
			<path class="st131" d="M163.69,63.45c0,0,5.75-2,11.11-2.99l0.06,0.17c0,0-5.68,1.74-11.05,3.15L163.69,63.45z"/>
			<path class="st132" d="M163.69,63.47c0,0,5.77-2,11.11-2.99l0.06,0.17c0,0-5.68,1.75-11.05,3.15L163.69,63.47z"/>
			<path class="st133" d="M163.7,63.5c0,0,5.78-2,11.11-3l0.06,0.17c0,0-5.68,1.75-11.05,3.16L163.7,63.5z"/>
			<path class="st134" d="M163.71,63.52c0,0,5.8-2,11.11-3l0.06,0.17c0,0-5.68,1.75-11.05,3.16L163.71,63.52z"/>
			<path class="st134" d="M163.72,63.55c0,0,5.81-2.01,11.11-3l0.06,0.16c0,0-5.68,1.76-11.05,3.17L163.72,63.55z"/>
			<path class="st135" d="M163.72,63.57c0,0,5.83-2.01,11.11-3.01l0.06,0.16c0,0-5.68,1.76-11.05,3.17L163.72,63.57z"/>
			<path class="st14" d="M163.73,63.6c0,0,5.85-2.01,11.11-3.01l0.06,0.16c0,0-5.68,1.77-11.05,3.18L163.73,63.6z"/>
			<path class="st136" d="M163.74,63.62c0,0,5.86-2.01,11.11-3.01l0.06,0.16c0,0-5.68,1.77-11.05,3.18L163.74,63.62z"/>
			<path class="st137" d="M163.75,63.64c0,0,5.88-2.02,11.11-3.02l0.05,0.16c0,0-5.68,1.78-11.04,3.18L163.75,63.64z"/>
			<path class="st137" d="M163.75,63.67c0,0,5.89-2.02,11.11-3.02l0.05,0.16c0,0-5.68,1.78-11.04,3.19L163.75,63.67z"/>
		</g>
		<path class="st1" d="M123.74,98.83c0,0,39.24-31.83,71.05-42.17c0,0-28.69,3.01-46.93,12.4l8.8-28.25V8.26
			C156.66,8.26,134.55,71.98,123.74,98.83z"/>
	</g>
</g>
</svg>
