<?xml version="1.0" encoding="UTF-8" standalone="no"?>
<!DOCTYPE svg PUBLIC "-//W3C//DTD SVG 1.1//EN" "http://www.w3.org/Graphics/SVG/1.1/DTD/svg11.dtd">
<svg width="100%" height="100%" viewBox="0 0 3508 2481" version="1.1" xmlns="http://www.w3.org/2000/svg" xmlns:xlink="http://www.w3.org/1999/xlink" xml:space="preserve" xmlns:serif="http://www.serif.com/" style="fill-rule:evenodd;clip-rule:evenodd;stroke-linejoin:round;stroke-miterlimit:2;">
    <g id="Layer-1" serif:id="Layer 1" transform="matrix(4.16667,0,0,4.16667,0,0)">
        <g transform="matrix(1,0,0,1,202.573,335.535)">
            <path d="M0,-42.825C0.133,-41.199 0.202,-39.701 0.202,-38.321C0.202,-36.014 -0.138,-33.471 -0.823,-30.702C-1.784,-27.007 -2.331,-24.818 -2.469,-24.129C-2.74,-22.275 -2.878,-20.659 -2.878,-19.279C-2.878,-12.35 -0.897,-8.772 3.08,-8.546C4.992,-8.309 6.574,-10.162 7.801,-14.085C9.038,-18.008 9.654,-22.393 9.654,-27.233C9.654,-32.308 8.964,-36.241 7.599,-39.011C5.544,-43.17 3.006,-44.432 0,-42.825M-28.765,30.582C-26.981,43.05 -23.078,52.522 -17.051,58.978C-11.576,64.753 -4.933,67.641 2.873,67.641C20.402,67.641 31.357,54.828 35.743,29.202C38.621,12.349 39.779,-4.959 39.237,-22.739C38.133,-57.363 34.166,-81.372 27.321,-94.757C22.659,-103.765 14.237,-108.95 2.05,-110.339C-5.342,-111.265 -11.645,-110.221 -16.849,-107.224C-23.699,-103.292 -28.011,-97.181 -29.785,-88.872C-42.115,-88.646 -49.995,-88.646 -53.41,-88.872C-51.359,-111.265 -43.825,-127.769 -30.815,-138.389C-22.186,-145.313 -12.059,-149.004 -0.414,-149.468C14.922,-149.93 26.705,-146.23 34.92,-138.389C42.726,-130.992 49.3,-118.825 54.637,-101.853C59.984,-84.891 63.133,-61.522 64.089,-31.737C65.183,1.497 62.719,30.474 56.692,55.173C51.079,78.029 41.701,93.493 28.553,101.575C22.526,105.262 13.483,107.105 1.439,107.105C-10.753,107.105 -19.382,105.154 -24.448,101.221C-42.252,87.6 -52.385,62.22 -54.854,25.043C-55.948,9.116 -55.878,-5.077 -54.646,-17.545C-53.966,-25.389 -52.385,-33.58 -49.92,-42.125C-46.915,-53.43 -43.036,-61.975 -38.315,-67.751C-33.589,-73.517 -28.144,-76.405 -21.984,-76.405C-12.808,-76.405 -7.126,-71.211 -4.933,-60.822L-4.933,-73.635C-2.331,-77.331 1.71,-79.174 7.185,-79.174C14.853,-79.174 20.88,-73.635 25.266,-62.557C28.686,-53.785 30.401,-41.662 30.401,-26.198C30.401,-10.044 27.932,2.769 23.004,12.231C18.076,21.702 10.812,26.423 1.232,26.423C-10.275,26.423 -18.012,18.351 -21.984,2.197C-22.669,-0.809 -23.078,-5.195 -23.216,-10.961C-23.216,-16.963 -22.738,-21.704 -21.777,-25.163C-20.274,-30.702 -19.929,-34.044 -20.747,-35.197C-21.166,-35.66 -21.575,-35.896 -21.984,-35.896C-24.724,-35.896 -27.05,-29.776 -28.967,-17.545C-30.065,-10.616 -30.613,-3.223 -30.613,4.621C-30.613,13.394 -29.997,22.047 -28.765,30.582" style="fill:rgb(0,102,179);fill-rule:nonzero;"/>
        </g>
        <g transform="matrix(1,0,0,1,339.128,357.237)">
            <path d="M0,-99.842L-55.134,-99.842L-55.134,-129.617L-44.249,-129.617C-49.176,-137.925 -51.365,-146.239 -50.822,-154.548C-49.448,-174.861 -33.086,-184.554 -1.725,-183.633C11.975,-183.165 22.171,-181.558 28.883,-178.784C39.02,-174.634 46.279,-166.784 50.66,-155.238C53.671,-147.161 55.184,-136.773 55.184,-124.078L32.579,-124.078C33.54,-137.236 28.065,-145.313 16.145,-148.314C7.111,-150.62 -3.775,-150.852 -16.514,-149.009C-22.403,-148.082 -25.345,-144.854 -25.345,-139.315C-25.345,-137.699 -25.004,-136.083 -24.32,-134.466L1.153,-134.466C25.808,-134.466 42.785,-120.145 52.099,-91.533C55.524,-80.908 57.914,-67.751 59.289,-52.06C59.969,-44.204 60.314,-35.896 60.314,-27.124C60.314,-4.041 58.121,16.154 53.74,33.471C48.812,53.094 39.222,67.976 24.985,78.138C18.958,82.524 8.89,84.712 -5.214,84.712C-15.484,84.712 -22.955,83.559 -27.606,81.253C-36.511,76.867 -43.085,71.554 -47.329,65.325C-55.682,52.857 -59.855,36.812 -59.855,17.188C-59.855,-3.805 -55.268,-19.742 -46.097,-30.583C-39.247,-38.665 -30.962,-42.706 -21.24,-42.706L-11.581,-42.706C-11.581,-48.472 -12.749,-52.523 -15.075,-54.829C-16.854,-56.672 -19.253,-57.481 -22.27,-57.254C-24.867,-57.018 -26.853,-56.091 -28.223,-54.485C-30.825,-51.479 -32.062,-47.782 -31.918,-43.406C-35.344,-42.706 -43.085,-42.48 -55.134,-42.706C-55.411,-48.088 -54.997,-53.479 -53.902,-58.861C-51.434,-71.269 -46.712,-80.514 -39.729,-86.605C-35.344,-90.351 -29.322,-92.223 -21.648,-92.223C-12.611,-92.223 -5.623,-88.872 -0.7,-82.19C4.238,-75.488 7.727,-64.409 9.782,-48.936C10.053,-46.865 10.462,-32.89 11.014,-7.047L-12.611,-7.047C-27.128,-7.047 -34.383,0.345 -34.383,15.119C-34.383,35.659 -23.162,45.938 -0.7,45.938C17.514,45.938 28.745,32.317 32.993,5.075C35.319,-10.153 35.94,-26.197 34.841,-43.052C32.382,-80.908 20.767,-99.842 0,-99.842" style="fill:rgb(0,102,179);fill-rule:nonzero;"/>
        </g>
        <g transform="matrix(1,0,0,1,450.763,220.234)">
            <path d="M0,174.978C-0.409,171.509 -0.616,167.931 -0.616,164.236C-0.616,155.7 0.276,147.914 2.055,140.867C3.834,133.83 6.091,129.148 8.831,126.851C16.095,120.839 19.722,112.875 19.722,102.951C19.722,98.101 18.45,93.893 15.923,90.315C13.385,86.738 10.206,85.062 6.367,85.289C-7.185,86.452 -14.173,102.951 -14.587,134.805C-14.857,155.582 -12.527,170.011 -7.599,178.093C-5.682,181.326 -2.809,182.942 1.03,182.942C0.34,176.013 0,173.362 0,174.978M22.807,37.162L-12.733,37.162C-19.722,37.162 -25.197,33.82 -29.169,27.119C-33.141,20.426 -35.127,11.772 -35.127,1.148C-35.127,-2.075 -34.92,-5.308 -34.506,-8.545C-31.505,-35.088 -12.94,-47.782 21.161,-46.629C34.855,-46.161 44.993,-44.555 51.557,-41.78C61.699,-37.631 68.953,-29.78 73.339,-18.234C76.345,-10.157 77.862,0.231 77.862,12.926L55.258,12.926C56.219,-0.232 50.739,-8.309 38.828,-11.31C28.691,-13.848 17.465,-14.085 5.14,-12.005C-4.588,-10.389 -9.521,-7.388 -9.659,-3.001C-9.787,0.694 -6.233,2.538 1.03,2.538L24.039,2.538C49.093,2.538 66.282,16.858 75.591,45.47C79.706,58.165 82.308,73.866 83.401,92.562C84.91,118.651 84.155,140.818 81.145,159.041C77.996,178.438 73.955,192.522 69.026,201.285C62.314,213.752 52.449,220.681 39.439,222.061C33.146,222.76 26.976,221.597 20.954,218.601C14.922,215.605 10.546,211.672 7.811,206.824C6.16,203.836 4.859,201.067 3.908,198.515L3.908,219.666C0.754,221.272 -2.464,222.061 -5.751,222.061C-19.998,222.061 -29.716,209.514 -34.92,184.401C-37.798,170.336 -39.232,153.64 -39.232,134.292C-39.232,86.136 -29.307,57.337 -9.447,47.895C-4.514,45.588 0.686,44.436 6.16,44.436C17.258,44.436 26.021,48.821 32.461,57.593C39.853,67.755 43.554,82.993 43.554,103.295C43.554,109.761 43.066,115.537 42.115,120.613C40.606,128.231 38.005,134.805 34.304,140.344C32.116,142.887 29.992,145.43 27.937,147.963C25.611,151.422 24.448,156.282 24.448,162.51C24.448,164.364 24.517,166.433 24.65,168.74C25.473,178.438 29.381,183.288 36.359,183.288C38.143,183.288 39.922,182.824 41.706,181.897C47.176,178.901 51.631,170.592 55.056,156.961C57.929,145.883 59.373,130.193 59.373,109.879C59.373,101.108 58.959,93.489 58.136,87.023C54.302,53.779 42.524,37.162 22.807,37.162" style="fill:rgb(0,102,179);fill-rule:nonzero;"/>
        </g>
        <g transform="matrix(1,0,0,1,602.072,335.535)">
            <path d="M0,-42.825C0.139,-41.199 0.207,-39.701 0.207,-38.321C0.207,-36.014 -0.138,-33.471 -0.818,-30.702C-1.773,-27.007 -2.326,-24.818 -2.464,-24.129C-2.729,-22.275 -2.878,-20.659 -2.878,-19.279C-2.878,-12.35 -0.887,-8.772 3.085,-8.546C5.007,-8.309 6.584,-10.162 7.816,-14.085C9.038,-18.008 9.659,-22.393 9.659,-27.233C9.659,-32.308 8.969,-36.241 7.609,-39.011C5.549,-43.17 3.017,-44.432 0,-42.825M-28.75,30.582C-26.976,43.05 -23.063,52.522 -17.041,58.978C-11.561,64.753 -4.928,67.641 2.878,67.641C20.412,67.641 31.362,54.828 35.748,29.202C38.626,12.349 39.789,-4.959 39.237,-22.739C38.143,-57.363 34.181,-81.372 27.331,-94.757C22.669,-103.765 14.242,-108.95 2.061,-110.339C-5.332,-111.265 -11.64,-110.221 -16.834,-107.224C-23.684,-103.292 -28.001,-97.181 -29.785,-88.872C-42.104,-88.646 -49.979,-88.646 -53.404,-88.872C-51.35,-111.265 -43.819,-127.769 -30.81,-138.389C-22.186,-145.313 -12.044,-149.004 -0.404,-149.468C14.932,-149.93 26.71,-146.23 34.93,-138.389C42.736,-130.992 49.31,-118.825 54.642,-101.853C59.994,-84.891 63.138,-61.522 64.094,-31.737C65.188,1.497 62.724,30.474 56.702,55.173C51.084,78.029 41.711,93.493 28.563,101.575C22.531,105.262 13.493,107.105 1.449,107.105C-10.743,107.105 -19.377,105.154 -24.433,101.221C-42.248,87.6 -52.375,62.22 -54.839,25.043C-55.938,9.116 -55.869,-5.077 -54.632,-17.545C-53.946,-25.389 -52.375,-33.58 -49.906,-42.125C-46.899,-53.43 -43.026,-61.975 -38.311,-67.751C-33.579,-73.517 -28.139,-76.405 -21.969,-76.405C-12.803,-76.405 -7.116,-71.211 -4.928,-60.822L-4.928,-73.635C-2.326,-77.331 1.715,-79.174 7.195,-79.174C14.863,-79.174 20.885,-73.635 25.271,-62.557C28.701,-53.785 30.406,-41.662 30.406,-26.198C30.406,-10.044 27.942,2.769 23.014,12.231C18.086,21.702 10.822,26.423 1.242,26.423C-10.27,26.423 -18.007,18.351 -21.969,2.197C-22.659,-0.809 -23.063,-5.195 -23.201,-10.961C-23.201,-16.963 -22.728,-21.704 -21.771,-25.163C-20.264,-30.702 -19.919,-34.044 -20.737,-35.197C-21.15,-35.66 -21.564,-35.896 -21.969,-35.896C-24.719,-35.896 -27.045,-29.776 -28.957,-17.545C-30.051,-10.616 -30.603,-3.223 -30.603,4.621C-30.603,13.394 -29.981,22.047 -28.75,30.582" style="fill:rgb(0,102,179);fill-rule:nonzero;"/>
        </g>
        <g transform="matrix(1,0,0,1,191.963,331.808)">
            <path d="M0,-51.389C0,-51.389 1.025,-52.335 1.34,-52.335C1.661,-52.335 4.82,-52.099 4.82,-52.099L10.275,-47.121L12.965,-44.825L15.494,-39.847C15.494,-39.847 18.342,-35.807 18.495,-35.57C18.657,-35.334 17.864,-33.757 18.495,-33.599C19.13,-33.441 19.924,-34.861 20.161,-34.072C20.392,-33.284 22.294,-27.43 22.452,-27.035C22.61,-26.64 24.822,-23.723 25.537,-23.24C26.247,-22.767 27.587,-16.449 27.429,-14.626C27.271,-12.803 25.453,-7.511 24.029,-6.327C22.61,-5.135 18.657,-2.375 17.149,-2.139C15.651,-1.902 13.596,-1.271 13.123,-0.799C12.645,-0.315 10.354,0.946 9.408,0.395C8.457,-0.158 4.031,-1.182 3.4,-1.734C2.765,-2.297 1.74,-5.697 1.661,-5.933C1.582,-6.17 -0.951,-14.941 -0.951,-14.941L-0.65,-17.928C-0.65,-17.928 -1.503,-23.004 -1.345,-23.556C-1.188,-24.107 -2.77,-29.41 -2.375,-30.199C-1.976,-30.987 -1.503,-28.701 -1.267,-28.306C-1.03,-27.912 -1.025,-28.316 -1.025,-28.316C-1.025,-28.316 -1.582,-27.35 -0.793,-27.587C0,-27.823 -0.951,-30.435 -0.394,-32.338C0.158,-34.23 1.025,-35.57 1.025,-36.053C1.025,-36.526 0.709,-39.05 0.709,-39.05L0.789,-39.847L-0.394,-41.109C-0.394,-41.109 -3.952,-42.529 -2.375,-42.529C-0.793,-42.529 0.335,-41.976 0.335,-41.976C0.335,-41.976 0.867,-40.478 1.582,-40.715C2.292,-40.951 3.243,-43.958 3.243,-44.431C3.243,-44.904 2.371,-45.298 2.371,-45.771C2.371,-46.244 3.479,-47.033 3.479,-47.033C3.479,-47.033 2.371,-48.383 2.607,-48.462C2.843,-48.541 5.292,-47.516 5.292,-47.516L7.195,-47.516L7.195,-48.068L4.031,-49.487C4.031,-49.487 2.607,-49.014 1.976,-49.329C1.34,-49.645 0.789,-49.723 0.789,-49.723C0.789,-49.723 0.236,-49.487 0,-49.487C-0.242,-49.487 -1.267,-51.547 0,-51.389" style="fill:white;fill-rule:nonzero;"/>
        </g>
    </g>
</svg>
