<?xml version="1.0" encoding="UTF-8" standalone="no"?>
<!DOCTYPE svg PUBLIC "-//W3C//DTD SVG 1.1//EN" "http://www.w3.org/Graphics/SVG/1.1/DTD/svg11.dtd">
<svg width="100%" height="100%" viewBox="0 0 932 226" version="1.1" xmlns="http://www.w3.org/2000/svg" xmlns:xlink="http://www.w3.org/1999/xlink" xml:space="preserve" xmlns:serif="http://www.serif.com/" style="fill-rule:evenodd;clip-rule:evenodd;stroke-linejoin:round;stroke-miterlimit:2;">
    <g transform="matrix(1,0,0,1,-774.602,-862.688)">
        <g transform="matrix(4.16667,0,0,4.16667,0,0)">
            <g transform="matrix(1,0,0,1,235.682,207.045)">
                <path d="M0,10.059C2.776,10.059 5.025,7.809 5.025,5.025C5.025,2.26 2.776,0 0,0C-2.784,0 -5.035,2.26 -5.035,5.025C-5.035,7.809 -2.784,10.059 0,10.059" style="fill:rgb(35,31,32);fill-rule:nonzero;"/>
            </g>
        </g>
        <g transform="matrix(4.16667,0,0,4.16667,0,0)">
            <g transform="matrix(1,0,0,1,248.797,236.495)">
                <path d="M0,-5.259C-5.596,-16.456 -12.289,-16.167 -17.06,-17.279C-21.836,-18.392 -24.584,-27.095 -24.584,-27.095C-24.874,-28.352 -25.598,-28.604 -25.598,-28.604C-26.972,-28.885 -27.201,-27.267 -27.201,-27.267C-28.028,-19.702 -21.742,-13.754 -21.742,-13.754C-20.365,-12.644 -20.263,-7.563 -20.263,-7.563L-20.293,-7.563L-20.263,23.626L-10.395,23.626L-10.395,-7.563C-10.395,-8.858 -9.157,-9.941 -7.606,-8.945C-6.051,-7.952 -2.657,-3.524 -2.657,-3.524C-1.836,-2.14 0,-2.691 0,-2.691C0.642,-3.613 0,-5.259 0,-5.259" style="fill:rgb(35,31,32);fill-rule:nonzero;"/>
            </g>
        </g>
        <g transform="matrix(4.16667,0,0,4.16667,0,0)">
            <g transform="matrix(1,0,0,1,204.735,237.5)">
                <path d="M0,-2.838C1.219,-2.838 2.386,-2.93 3.511,-3.11C4.638,-3.29 5.626,-3.641 6.482,-4.157C7.333,-4.674 8.02,-5.406 8.54,-6.346C9.056,-7.294 9.317,-8.533 9.317,-10.06C9.317,-11.589 9.056,-12.836 8.54,-13.776C8.02,-14.724 7.333,-15.455 6.482,-15.971C5.626,-16.486 4.638,-16.839 3.511,-17.02C2.386,-17.192 1.219,-17.282 0,-17.282L-8.233,-17.282L-8.233,-2.838L0,-2.838ZM2.906,-25.514C5.921,-25.514 8.487,-25.082 10.603,-24.204C12.717,-23.328 14.433,-22.171 15.764,-20.726C17.09,-19.288 18.056,-17.643 18.663,-15.798C19.273,-13.956 19.577,-12.039 19.577,-10.06C19.577,-8.126 19.273,-6.229 18.663,-4.367C18.056,-2.495 17.09,-0.831 15.764,0.606C14.433,2.042 12.717,3.198 10.603,4.076C8.487,4.953 5.921,5.395 2.906,5.395L-8.233,5.395L-8.233,22.676L-18.831,22.676L-18.831,-25.514L2.906,-25.514Z" style="fill:rgb(35,31,32);fill-rule:nonzero;"/>
            </g>
        </g>
        <g transform="matrix(4.16667,0,0,4.16667,0,0)">
            <g transform="matrix(1,0,0,1,258.602,253.832)">
                <path d="M0,-22.28C-1.532,-22.28 -2.815,-21.927 -3.849,-21.231C-4.882,-20.535 -5.731,-19.631 -6.381,-18.53C-7.032,-17.426 -7.494,-16.214 -7.763,-14.886C-8.035,-13.559 -8.17,-12.238 -8.17,-10.936C-8.17,-9.671 -8.035,-8.398 -7.763,-7.085C-7.494,-5.786 -7.059,-4.602 -6.449,-3.544C-5.838,-2.487 -5.017,-1.628 -3.986,-0.948C-2.946,-0.272 -1.691,0.063 -0.203,0.063C2.088,0.063 3.859,-0.579 5.093,-1.862C6.335,-3.145 7.108,-4.862 7.425,-7.024L16.669,-7.024C16.044,-2.387 14.245,1.148 11.271,3.571C8.302,6 4.501,7.222 -0.135,7.222C-2.748,7.222 -5.142,6.777 -7.326,5.901C-9.508,5.025 -11.365,3.803 -12.891,2.221C-14.424,0.65 -15.618,-1.23 -16.471,-3.416C-17.326,-5.594 -17.751,-7.991 -17.751,-10.603C-17.751,-13.306 -17.362,-15.808 -16.572,-18.122C-15.785,-20.444 -14.629,-22.452 -13.095,-24.14C-11.57,-25.821 -9.698,-27.142 -7.494,-28.082C-5.286,-29.032 -2.766,-29.502 0.063,-29.502C2.132,-29.502 4.131,-29.238 6.036,-28.687C7.953,-28.146 9.661,-27.323 11.17,-26.22C12.676,-25.127 13.905,-23.754 14.85,-22.108C15.793,-20.462 16.331,-18.52 16.466,-16.268L7.087,-16.268C6.454,-20.281 4.093,-22.28 0,-22.28" style="fill:rgb(35,31,32);fill-rule:nonzero;"/>
            </g>
        </g>
        <g transform="matrix(4.16667,0,0,4.16667,0,0)">
            <g transform="matrix(1,0,0,1,287.086,260.176)">
                <path d="M0,-48.19L0,-22.343L12.079,-34.895L23.421,-34.895L10.258,-22.071L24.904,0L13.298,0L3.709,-15.599L0,-12.012L0,0L-9.586,0L-9.586,-48.19L0,-48.19Z" style="fill:rgb(35,31,32);fill-rule:nonzero;"/>
            </g>
        </g>
        <g transform="matrix(4.16667,0,0,4.16667,0,0)">
            <g transform="matrix(1,0,0,1,328.593,260.176)">
                <path d="M0,-48.19L11.274,-15.058L11.405,-15.058L22.07,-48.19L36.993,-48.19L36.993,0L27.068,0L27.068,-34.155L26.932,-34.155L15.12,0L6.955,0L-4.854,-33.82L-4.994,-33.82L-4.994,0L-14.913,0L-14.913,-48.19L0,-48.19Z" style="fill:rgb(251,181,75);fill-rule:nonzero;"/>
            </g>
        </g>
        <g transform="matrix(4.16667,0,0,4.16667,0,0)">
            <g transform="matrix(1,0,0,1,390.928,251.943)">
                <path d="M0,-18.502C-1.148,-19.759 -2.893,-20.392 -5.233,-20.392C-6.76,-20.392 -8.03,-20.126 -9.041,-19.614C-10.056,-19.097 -10.864,-18.456 -11.474,-17.687C-12.079,-16.929 -12.51,-16.107 -12.757,-15.256C-13.001,-14.408 -13.151,-13.64 -13.196,-12.97L2.403,-12.97C1.948,-15.392 1.148,-17.235 0,-18.502M-10.827,-0.136C-9.391,1.255 -7.321,1.951 -4.618,1.951C-2.685,1.951 -1.026,1.471 0.371,0.504C1.765,-0.462 2.621,-1.483 2.937,-2.568L11.373,-2.568C10.023,1.616 7.953,4.609 5.165,6.409C2.377,8.205 -1.003,9.11 -4.963,9.11C-7.705,9.11 -10.178,8.666 -12.383,7.789C-14.588,6.913 -16.458,5.665 -17.987,4.048C-19.512,2.422 -20.698,0.488 -21.529,-1.754C-22.366,-4.005 -22.776,-6.481 -22.776,-9.184C-22.776,-11.786 -22.352,-14.227 -21.497,-16.477C-20.644,-18.718 -19.427,-20.671 -17.85,-22.317C-16.278,-23.953 -14.398,-25.254 -12.214,-26.192C-10.032,-27.143 -7.615,-27.612 -4.963,-27.612C-1.989,-27.612 0.595,-27.034 2.802,-25.894C5.007,-24.748 6.82,-23.202 8.233,-21.269C9.653,-19.333 10.674,-17.128 11.306,-14.651C11.934,-12.175 12.165,-9.591 11.98,-6.888L-13.196,-6.888C-13.059,-3.779 -12.274,-1.538 -10.827,-0.136" style="fill:rgb(251,181,75);fill-rule:nonzero;"/>
            </g>
        </g>
        <g transform="matrix(4.16667,0,0,4.16667,0,0)">
            <g transform="matrix(1,0,0,1,402.642,254.95)">
                <path d="M0,4.341L0,0.506L-1.433,0.506L-1.433,0L2.005,0L2.005,0.506L0.574,0.506L0.574,4.341L0,4.341Z" style="fill:rgb(35,31,32);fill-rule:nonzero;"/>
            </g>
        </g>
        <g transform="matrix(4.16667,0,0,4.16667,0,0)">
            <g transform="matrix(1,0,0,1,405.227,254.95)">
                <path d="M0,4.341L0,0L0.861,0L1.888,3.073C1.987,3.363 2.05,3.572 2.096,3.716C2.151,3.563 2.223,3.318 2.332,3.018L3.369,0L4.145,0L4.145,4.341L3.587,4.341L3.587,0.708L2.325,4.341L1.808,4.341L0.549,0.643L0.549,4.341L0,4.341Z" style="fill:rgb(35,31,32);fill-rule:nonzero;"/>
            </g>
        </g>
    </g>
</svg>
