<?xml version="1.0" encoding="UTF-8" standalone="no"?>
<!DOCTYPE svg PUBLIC "-//W3C//DTD SVG 1.1//EN" "http://www.w3.org/Graphics/SVG/1.1/DTD/svg11.dtd">
<svg width="100%" height="100%" viewBox="0 0 2481 2019" version="1.1" xmlns="http://www.w3.org/2000/svg" xmlns:xlink="http://www.w3.org/1999/xlink" xml:space="preserve" xmlns:serif="http://www.serif.com/" style="fill-rule:evenodd;clip-rule:evenodd;stroke-linejoin:round;stroke-miterlimit:2;">
    <g id="Layer-1" serif:id="Layer 1" transform="matrix(4.16667,0,0,4.16667,0,0)">
        <g transform="matrix(1,0,0,1,148.519,122.788)">
            <path d="M0,-51.382L13.137,-51.224C17.315,-69.404 41.535,-77.075 50.911,-63.99C61.035,-73.551 75.882,-72.71 83.345,-62.413L83.345,-51.382L76.778,-51.382L76.979,-49.019C97.109,-41.403 78.967,-1.755 52.962,-1.422C43.236,-1.299 37.633,-3.837 34.899,-11.034C28.262,-3.418 20.665,0.313 11.497,-0.319C-15.515,-2.013 -17.671,-29.359 3.285,-42.716L-4.721,-42.873L0,-51.382ZM117.729,-16.868C113.75,-17.86 113.384,-21.883 114.955,-25.773C116.051,-29.186 118.379,-30.819 121.528,-30.895C126.213,-30.629 126.287,-27.94 125.223,-23.093C124.325,-19.005 121.618,-15.894 117.729,-16.868M225.516,-51.382L238.649,-51.224C242.826,-69.404 267.047,-77.075 276.425,-63.99C286.55,-73.551 301.398,-72.71 308.856,-62.413L308.856,-51.382L302.289,-51.382L302.494,-49.019C322.625,-41.403 304.479,-1.755 278.478,-1.422C268.744,-1.299 263.145,-3.837 260.411,-11.034C253.775,-3.418 246.181,0.313 237.009,-0.319C209.994,-2.013 207.842,-29.359 228.8,-42.716L220.791,-42.873L225.516,-51.382ZM243.166,-42.873L291.612,-42.873C307.206,-38.253 298.938,-18.595 284.84,-18.599C270.534,-18.602 267.936,-27.111 277.246,-39.877L263.491,-39.719C263.363,-27.878 255.677,-19.341 241.525,-18.757C224.921,-18.076 225.399,-36.463 243.166,-42.873M280.324,-52.173L290.793,-52.173C291.747,-56.477 289.765,-59.315 285.045,-58.319C282.1,-57.896 280.119,-55.69 280.324,-52.173M255.075,-51.382L268.827,-51.382C269.441,-56.109 267.595,-58.319 263.284,-58.002C259.112,-57.371 256.234,-54.48 255.075,-51.382M74.988,12.99L63.062,12.99C64.297,6.672 67.176,0.358 71.699,-5.956C75.675,-11.22 81.294,-16.06 88.562,-20.482C85.953,-37.163 88.905,-50.442 99.047,-59.006C111.611,-69.611 125.299,-73.265 142.438,-68.793C152.993,-73.637 154.776,-80.16 147.787,-88.372L172.87,-88.372C172.596,-76.058 165.741,-68.37 152.31,-65.323L152.31,-62.479L158.479,-56.792C166.154,-70.637 175.61,-75.581 187.681,-67.529C252.866,-100.46 209.82,49.078 140.381,4.782C133.25,11.306 125.024,14.044 115.703,12.99C104.94,13.148 95.344,5.991 87.736,2.57C79.647,1.515 75.397,5.624 74.988,12.99M170.589,-32.784L186.601,-32.309C183.709,-45.209 186.981,-60.619 194.605,-60.051C208.349,-59.029 192.149,-11.519 166.484,3.467C159.059,4.541 152.832,3.384 149.24,-2.682C160.175,-14.531 165.864,-26.631 164.431,-40.352C163.701,-47.319 168.446,-54.382 172.438,-53.588C177.294,-52.623 174.626,-41.609 170.589,-32.784M107.893,-13.532C90.473,-22.113 99.662,-53.478 122.284,-53.952C154.095,-49.641 147.242,1.512 115.295,4.462C109.125,3.62 103.301,1.67 98.43,-1.852C94.181,-3.748 89.658,-4.586 84.86,-4.377L93.081,-11.955C98.156,-6.482 104.878,-2.487 113.238,-1.852C140.794,-7.431 144.904,-37.531 124.342,-41.007C108.762,-39.191 102.63,-30.506 107.893,-13.532M29.564,-51.382L43.315,-51.382C43.933,-56.109 42.083,-58.319 37.772,-58.002C33.599,-57.371 30.725,-54.48 29.564,-51.382M54.811,-52.173L65.281,-52.173C66.236,-56.477 64.254,-59.315 59.532,-58.319C56.591,-57.896 54.603,-55.69 54.811,-52.173M17.658,-42.873L66.103,-42.873C81.694,-38.253 73.423,-18.595 59.328,-18.599C45.025,-18.602 42.427,-27.111 51.73,-39.877L37.98,-39.719C37.85,-27.878 30.168,-19.341 16.016,-18.757C-0.591,-18.076 -0.109,-36.463 17.658,-42.873" style="fill:rgb(41,171,226);"/>
        </g>
        <g transform="matrix(1,0,0,1,229.459,215.84)">
            <path d="M0,25.83L0,99.066L-137.497,99.066C-137.497,99.066 -137.606,49.899 -137.606,14.255L-137.606,-48.525L-137.497,-73.169C-137.497,-73.169 -69.175,-73.236 -69.175,-73.169C-88.989,-70.617 -104.335,-54.235 -104.335,-33.704L-104.335,27.823C-104.335,50.123 -86.267,68.191 -63.967,68.191L-55.638,68.191C-51.899,68.504 -48.025,68.527 -44.063,68.191L-40.726,68.191C-32.084,68.191 -24.091,65.482 -17.531,60.87C-7.142,53.571 -0.336,41.48 -0.336,27.823L-0.336,26.255C-0.246,26.099 -0.112,25.964 0,25.83" style="fill:rgb(246,146,32);fill-rule:nonzero;"/>
        </g>
        <g transform="matrix(1,0,0,1,310.18,142.537)">
            <path d="M0,183.026L0,80.471L-14.934,80.471L-14.934,54.199L0,54.199L0,49.854C0,36.085 4.154,20.9 14.188,11.447C23.088,2.985 35.149,0 45.451,0C53.152,0 59.177,1.042 64.057,2.433L51.296,28.113C39.754,28.113 34.893,37.306 34.893,48.386L34.893,54.199L57.495,54.199L57.495,80.471L35.166,80.471L35.166,141.862C35.166,141.862 34.006,154.839 26.258,165.21C20.58,172.809 0,183.026 0,183.026" style="fill:rgb(246,146,32);fill-rule:nonzero;"/>
        </g>
        <g transform="matrix(1,0,0,1,467.793,251.215)">
            <path d="M0,-20.753C0,-41.976 -9.216,-57.837 -27.751,-57.837C-44.962,-57.837 -57.965,-45.155 -57.965,-20.753L0,-20.753ZM-57.632,3.866C-56.418,22.154 -39.713,36.409 -20.706,36.409C-6.928,36.409 -3.066,34.559 7.922,30.551L25.749,54.648C12.194,60.626 -4.156,63.609 -21.719,63.609C-66.102,63.609 -91.59,35.647 -91.59,-8.523C-91.59,-44.54 -70.828,-84.362 -25.55,-84.362C16.914,-84.362 32.952,-48.655 32.952,-13.584C32.952,-5.906 32.214,0.605 31.495,3.866L-57.632,3.866Z" style="fill:rgb(246,146,32);fill-rule:nonzero;"/>
        </g>
        <g transform="matrix(1,0,0,1,261.858,147.013)">
            <path d="M0,57.686C-4.913,57.778 -9.288,56.717 -13.435,54.666C-14.309,54.234 -15.252,53.751 -14.709,52.561C-14.221,51.491 -13.235,51.527 -12.273,51.882C-10.607,52.497 -8.957,53.159 -7.288,53.769C-6.582,54.027 -5.583,54.625 -5.193,53.734C-4.738,52.697 -5.975,52.598 -6.623,52.335C-9.529,51.157 -12.458,50.038 -15.378,48.896C-15.621,48.801 -15.868,48.713 -16.105,48.602C-17.129,48.123 -18.011,47.436 -17.508,46.199C-17.014,44.985 -15.867,45.223 -14.927,45.574C-11.697,46.783 -8.494,48.064 -5.28,49.317C-5.085,49.393 -4.897,49.493 -4.696,49.545C-3.998,49.729 -3.081,50.114 -2.757,49.26C-2.455,48.462 -3.396,48.172 -3.999,47.932C-7.398,46.58 -10.807,45.253 -14.221,43.94C-16.075,43.226 -16.785,42.429 -16.39,41.414C-15.981,40.361 -14.88,40.159 -13.108,40.848C-9.991,42.061 -6.881,43.291 -3.767,44.511C-3.426,44.644 -3.088,44.797 -2.735,44.881C-2.076,45.038 -1.292,45.291 -1.013,44.394C-0.761,43.583 -1.507,43.32 -2.075,43.093C-4.598,42.084 -7.135,41.109 -9.665,40.12C-10.541,39.778 -11.442,39.475 -12.185,38.875C-12.691,38.467 -13.074,37.941 -12.927,37.25C-12.768,36.504 -12.196,36.131 -11.492,35.967C-10.428,35.718 -9.418,35.998 -8.419,36.328C-3.754,37.871 0.91,39.417 5.574,40.961C5.822,41.043 6.071,41.124 6.321,41.198C9.616,42.173 10.305,41.544 9.636,38.14C9.462,37.258 9.374,36.37 9.519,35.491C9.685,34.495 10.238,33.71 11.271,33.509C12.275,33.314 12.78,34.057 13.175,34.828C14.414,37.247 15.6,39.695 16.88,42.092C17.798,43.81 18.765,43.879 19.667,42.19C23.664,34.703 25.825,26.879 23.584,18.363C22.103,12.736 18.763,8.313 14.32,4.717C12.914,3.579 13.095,2.231 13.322,0.902C13.506,-0.176 14.337,0.573 14.785,0.815C18.233,2.677 21.158,5.193 23.567,8.265C35.847,23.928 30.711,46.206 12.784,54.854C8.695,56.827 4.322,57.862 0,57.686" style="fill:rgb(246,146,32);fill-rule:nonzero;"/>
        </g>
        <g transform="matrix(1,0,0,1,254.224,151.28)">
            <path d="M0,30.516C-3.042,30.636 -6.323,30.121 -9.49,28.919C-17.286,25.957 -20.048,18.571 -18.797,11.427C-18.062,7.228 -15.982,3.713 -13.093,0.642C-12.817,0.35 -12.546,-0.12 -12.088,0.017C-11.585,0.167 -11.721,0.714 -11.713,1.107C-11.691,2.234 -11.456,3.342 -10.819,4.232C-9.889,5.532 -9.98,6.696 -10.536,8.139C-11.674,11.088 -12.237,14.178 -11.619,17.349C-11.437,18.286 -11.323,19.658 -10.266,19.789C-9.17,19.925 -9.063,18.531 -8.732,17.715C-7.888,15.634 -7.154,13.51 -6.364,11.407C-5.997,10.431 -5.508,9.487 -4.243,9.805C-3.088,10.096 -2.548,10.992 -2.608,12.17C-2.658,13.158 -2.84,14.139 -2.9,15.127C-2.97,16.283 -2.331,16.745 -1.235,16.617C-0.123,16.486 0.845,15.952 1.819,15.448C5.901,13.336 9.979,11.217 14.061,9.105C14.431,8.914 14.809,8.714 15.206,8.602C16.174,8.331 17.163,8.327 17.676,9.342C18.24,10.458 17.425,11.132 16.579,11.595C14.655,12.647 12.686,13.618 10.737,14.625C9.717,15.153 8.694,15.678 7.685,16.227C7.275,16.45 6.778,16.714 7.024,17.295C7.234,17.792 7.763,17.922 8.229,17.781C8.872,17.587 9.495,17.302 10.092,16.988C12.587,15.675 15.068,14.334 17.557,13.009C17.926,12.813 18.298,12.613 18.688,12.472C19.648,12.126 20.639,12.056 21.11,13.146C21.553,14.173 20.845,14.813 19.984,15.241C17.366,16.544 14.741,17.835 12.115,19.125C11.6,19.378 11.043,19.558 10.557,19.856C9.994,20.201 8.852,20.361 9.363,21.297C9.785,22.07 10.692,21.569 11.333,21.244C14.035,19.874 16.72,18.471 19.416,17.09C19.88,16.853 20.353,16.617 20.847,16.462C21.569,16.234 22.218,16.415 22.604,17.1C22.993,17.786 22.801,18.45 22.242,18.938C21.818,19.31 21.307,19.601 20.799,19.857C18.235,21.153 15.658,22.424 13.088,23.708C12.714,23.894 12.333,24.074 11.986,24.303C11.644,24.529 11.207,24.794 11.467,25.292C11.716,25.766 12.185,25.654 12.573,25.467C13.797,24.878 15.006,24.26 16.224,23.66C17.02,23.267 17.81,22.86 18.624,22.507C19.25,22.235 19.875,22.264 20.294,22.895C20.723,23.543 20.445,24.173 19.955,24.577C19.237,25.169 18.431,25.672 17.613,26.123C12.396,29.004 6.359,30.527 0,30.516" style="fill:rgb(41,171,226);fill-rule:nonzero;"/>
        </g>
        <g transform="matrix(1,0,0,1,254.288,163.236)">
            <path d="M0,2.45C2.802,-1.808 6.53,-4.928 11.106,-7.139C5.916,-10.071 4.421,-13.843 6.849,-17.621C9.003,-20.973 13.561,-21.728 16.731,-19.258C20.143,-16.599 20.092,-12.486 16.475,-8.341C20.424,-8.46 23.577,-6.928 26.052,-4.069C28.859,-0.828 29.781,3.146 29.919,7.279C30.106,12.852 28.892,18.168 26.371,23.162C26.17,23.559 26.078,24.178 25.519,24.174C24.964,24.17 24.887,23.548 24.681,23.154C23.49,20.889 22.359,18.593 21.131,16.348C20.62,15.414 20.727,14.834 21.51,14.061C25.731,9.894 26.403,3.378 23.201,-1.452C21.055,-4.69 17.43,-5.87 13.24,-4.696C9.667,-3.695 6.566,-1.758 3.488,0.223C2.328,0.97 1.163,1.708 0,2.45" style="fill:rgb(28,57,106);fill-rule:nonzero;"/>
        </g>
        <g transform="matrix(1,0,0,1,244.743,164.256)">
            <path d="M0,35.078C-9.896,32.053 -17.163,10.344 -11.666,0C-11.101,0.531 -11.359,1.189 -11.365,1.738C-11.41,5.602 -10.614,9.225 -8.334,12.41C-6.274,15.288 -3.367,17.006 -0.071,18.076C1.271,18.512 1.71,18.91 0.82,20.315C-1.98,24.739 -2.375,29.398 -0.127,34.204C-0.001,34.474 0.213,34.75 0,35.078" style="fill:rgb(28,57,106);fill-rule:nonzero;"/>
        </g>
        <g transform="matrix(-0.999919,-0.0127203,-0.0127203,0.999919,250.686,158.537)">
            <path d="M-0.047,-13.511C-3.76,-13.521 -6.832,-10.441 -6.806,-6.735C-6.781,-3.202 -3.542,-0.008 -0.047,-0.068C3.555,-0.131 6.702,-3.301 6.646,-6.811C6.588,-10.471 3.56,-13.501 -0.047,-13.511" style="fill:rgb(41,171,226);fill-rule:nonzero;"/>
        </g>
        <g transform="matrix(1,0,0,1,285.433,316.092)">
            <path d="M0,-107.089L0,0L-40.055,0C-40.055,0 -45.361,-20.733 -44.533,-41.98L-44.533,-42.092C-45.16,-62.511 -42.316,-86.043 -28.076,-97.058C-16.837,-105.746 0,-107.089 0,-107.089" style="fill:rgb(246,146,32);fill-rule:nonzero;"/>
        </g>
        <g transform="matrix(1,0,0,1,0,233.034)">
            <path d="M100.104,119.322L96.116,119.322L96.116,123.307L100.104,123.307L100.104,119.322ZM100.104,125.996L95.64,125.996C93.704,125.996 92.736,126.913 92.736,128.751C92.736,130.85 93.954,131.898 96.393,131.898C98.878,131.898 100.115,130.602 100.104,128.006L100.104,125.996ZM103.948,119.322L103.948,123.307L107.936,123.307L107.936,125.996L103.948,125.996L103.948,128.044C103.948,130.238 103.233,131.936 101.805,133.139C100.519,134.23 98.828,134.775 96.733,134.775C94.84,134.775 93.298,134.274 92.108,133.27C90.81,132.169 90.161,130.619 90.161,128.627C90.161,127.536 90.486,126.51 91.136,125.544C91.786,124.58 92.599,123.939 93.576,123.627L93.576,116.634L109.063,116.634L109.063,119.322L103.948,119.322Z" style="fill:rgb(41,171,226);fill-rule:nonzero;"/>
        </g>
        <g transform="matrix(1,0,0,1,135.054,362.713)">
            <path d="M0,-8.103C-1.043,-6.625 -1.565,-4.781 -1.565,-2.566C-1.565,0.324 -1.062,1.769 -0.053,1.769C0.953,1.769 1.457,0.16 1.457,-3.054C1.457,-5.281 0.972,-6.964 0,-8.103M-9.647,-7.99C-10.626,-6.552 -11.113,-4.73 -11.113,-2.529C-11.113,0.335 -10.631,1.769 -9.665,1.769C-8.629,1.769 -8.11,0.16 -8.11,-3.054C-8.11,-5.131 -8.622,-6.775 -9.647,-7.99M-18.159,-2.753C-18.457,-3.273 -18.821,-3.533 -19.25,-3.533C-20.156,-3.533 -20.609,-2.646 -20.609,-0.871C-20.609,-0.113 -20.502,0.55 -20.287,1.122C-19.978,1.891 -19.512,2.277 -18.893,2.277C-18.452,2.277 -18.106,1.953 -17.856,1.308C-17.676,0.798 -17.587,0.271 -17.587,-0.275C-17.587,-1.205 -17.778,-2.032 -18.159,-2.753M11.113,-10.395L11.113,5.02L7.233,5.02L7.233,-10.395L5.719,-10.395C4.413,-10.395 3.398,-10.282 2.673,-10.058C3.472,-9.216 4.116,-8.141 4.605,-6.829C5.093,-5.516 5.337,-4.277 5.337,-3.112C5.337,2.398 3.728,5.151 0.51,5.151C-1.231,5.151 -2.501,4.187 -3.299,2.261C-3.86,0.896 -4.14,-0.762 -4.14,-2.715C-4.14,-3.918 -3.961,-5.144 -3.603,-6.396C-3.198,-7.797 -2.65,-8.919 -1.958,-9.756C-2.721,-10.182 -3.585,-10.395 -4.551,-10.395C-5.564,-10.395 -6.399,-10.257 -7.055,-9.983C-5.195,-8.081 -4.264,-5.782 -4.264,-3.092C-4.264,2.405 -5.868,5.151 -9.075,5.151C-10.827,5.151 -12.104,4.169 -12.902,2.203C-13.463,0.84 -13.742,-0.8 -13.742,-2.715C-13.742,-5.645 -13.039,-7.961 -11.632,-9.663C-12.646,-10.264 -13.904,-10.565 -15.405,-10.565C-17.265,-10.565 -18.789,-10.02 -19.974,-8.93C-21.16,-7.839 -21.885,-6.372 -22.147,-4.53C-21.206,-5.997 -19.983,-6.729 -18.481,-6.729C-16.884,-6.729 -15.632,-6.106 -14.726,-4.858C-13.916,-3.748 -13.51,-2.365 -13.51,-0.705C-13.51,0.905 -13.975,2.263 -14.904,3.374C-15.871,4.559 -17.122,5.151 -18.66,5.151C-20.949,5.151 -22.672,3.996 -23.828,1.685C-24.459,0.435 -24.775,-1.214 -24.775,-3.265C-24.775,-6.088 -23.891,-8.458 -22.12,-10.377C-20.35,-12.294 -18.124,-13.254 -15.441,-13.254C-12.831,-13.254 -10.786,-12.751 -9.308,-11.749C-7.842,-12.713 -6.155,-13.196 -4.247,-13.196C-3.603,-13.196 -2.823,-13.072 -1.905,-12.822C-0.891,-12.545 -0.129,-12.212 0.385,-11.824C1.826,-12.664 3.8,-13.083 6.304,-13.083L13.617,-13.083L13.617,-10.395L11.113,-10.395Z" style="fill:rgb(41,171,226);fill-rule:nonzero;"/>
        </g>
        <g transform="matrix(1,0,0,1,0,233.034)">
            <path d="M159.776,119.322L155.788,119.322L155.788,123.307L159.776,123.307L159.776,119.322ZM159.776,125.996L155.312,125.996C153.376,125.996 152.408,126.913 152.408,128.751C152.408,130.85 153.626,131.898 156.065,131.898C158.55,131.898 159.787,130.602 159.776,128.006L159.776,125.996ZM163.62,119.322L163.62,123.307L167.607,123.307L167.607,125.996L163.62,125.996L163.62,128.044C163.62,130.238 162.905,131.936 161.477,133.139C160.191,134.23 158.5,134.775 156.404,134.775C154.512,134.775 152.97,134.274 151.78,133.27C150.482,132.169 149.833,130.619 149.833,128.627C149.833,127.536 150.157,126.51 150.808,125.544C151.457,124.58 152.271,123.939 153.248,123.627L153.248,116.634L168.734,116.634L168.734,119.322L163.62,119.322Z" style="fill:rgb(41,171,226);fill-rule:nonzero;"/>
        </g>
        <g transform="matrix(1,0,0,1,205.632,362.733)">
            <path d="M0,-8.01C-0.983,-6.572 -1.475,-4.852 -1.475,-2.85C-1.475,0.215 -0.941,1.749 0.126,1.749C1.074,1.749 1.547,0.14 1.547,-3.074C1.547,-5.151 1.032,-6.795 0,-8.01M-8.502,-2.773C-8.8,-3.293 -9.164,-3.553 -9.593,-3.553C-10.499,-3.553 -10.952,-2.666 -10.952,-0.891C-10.952,-0.133 -10.845,0.53 -10.63,1.102C-10.321,1.871 -9.855,2.257 -9.236,2.257C-8.795,2.257 -8.449,1.933 -8.199,1.288C-8.019,0.778 -7.93,0.251 -7.93,-0.295C-7.93,-1.225 -8.121,-2.052 -8.502,-2.773M10.882,3.551C9.558,4.692 8.355,5.264 7.27,5.264C6.233,5.264 5.714,4.83 5.714,3.965C5.714,3.376 5.982,2.935 6.519,2.647C6.686,2.56 7.18,2.389 8.002,2.139C8.551,1.838 8.987,0.909 9.308,-0.647C9.535,-1.813 9.648,-2.906 9.648,-3.923C9.648,-5.716 9.219,-7.234 8.36,-8.478C7.406,-9.845 6.12,-10.528 4.498,-10.528C3.627,-10.528 2.936,-10.39 2.424,-10.116C4.403,-8.096 5.393,-5.765 5.393,-3.121C5.393,2.381 3.789,5.131 0.582,5.131C-1.17,5.131 -2.44,4.149 -3.227,2.183C-3.776,0.831 -4.049,-0.809 -4.049,-2.735C-4.049,-5.627 -3.352,-7.937 -1.957,-9.666C-2.971,-10.277 -4.234,-10.585 -5.748,-10.585C-7.608,-10.585 -9.132,-10.04 -10.317,-8.95C-11.503,-7.859 -12.228,-6.392 -12.49,-4.55C-11.549,-6.017 -10.326,-6.749 -8.824,-6.749C-7.214,-6.749 -5.963,-6.126 -5.069,-4.878C-4.259,-3.768 -3.853,-2.385 -3.853,-0.725C-3.853,0.885 -4.318,2.243 -5.247,3.354C-6.214,4.539 -7.465,5.131 -9.003,5.131C-11.292,5.131 -13.015,3.976 -14.171,1.665C-14.802,0.415 -15.118,-1.234 -15.118,-3.285C-15.118,-6.108 -14.234,-8.478 -12.463,-10.397C-10.693,-12.314 -8.467,-13.274 -5.784,-13.274C-3.269,-13.274 -1.242,-12.766 0.296,-11.751C1.63,-12.766 3.186,-13.274 4.963,-13.274C7.574,-13.274 9.648,-12.394 11.186,-10.639C12.688,-8.932 13.439,-6.705 13.439,-3.958C13.439,-0.408 12.586,2.095 10.882,3.551" style="fill:rgb(41,171,226);fill-rule:nonzero;"/>
        </g>
        <g transform="matrix(1,0,0,1,227.083,356.487)">
            <path d="M0,3.487C-0.298,2.957 -0.662,2.694 -1.09,2.694C-1.997,2.694 -2.45,3.596 -2.45,5.398C-2.45,6.169 -2.343,6.843 -2.128,7.423C-1.819,8.206 -1.353,8.596 -0.734,8.596C-0.293,8.596 0.053,8.268 0.304,7.612C0.483,7.095 0.572,6.559 0.572,6.003C0.572,5.058 0.381,4.218 0,3.487M-4.095,1.865C-3.165,0.286 -1.907,-0.503 -0.321,-0.503C1.276,-0.503 2.527,0.118 3.433,1.357C4.243,2.474 4.649,3.87 4.649,5.551C4.649,7.166 4.185,8.534 3.255,9.649C2.288,10.839 1.037,11.435 -0.501,11.435C-2.802,11.435 -4.53,10.245 -5.686,7.862C-6.307,6.597 -6.616,4.899 -6.616,2.767C-6.616,0.111 -5.967,-2.114 -4.667,-3.907C-3.237,-5.924 -1.27,-6.932 1.233,-6.932C3.832,-6.932 5.919,-6.268 7.493,-4.935C9.233,-3.477 10.104,-1.391 10.104,1.322L10.104,3.64C10.104,5.36 10.234,6.548 10.497,7.202C10.878,8.13 11.665,8.596 12.858,8.596C14.276,8.596 15.331,7.805 16.023,6.222C16.547,5.016 16.809,3.516 16.809,1.718C16.809,-0.731 16.207,-2.515 15.003,-3.634C14.812,-3.809 14.103,-4.073 12.875,-4.426C11.647,-4.776 11.033,-5.443 11.033,-6.423C11.033,-7.44 11.6,-7.948 12.732,-7.948C14.532,-7.948 16.177,-6.786 17.667,-4.463C18.835,-2.655 19.42,-0.596 19.42,1.714C19.42,4.201 18.96,6.324 18.043,8.082C16.887,10.318 15.169,11.435 12.893,11.435C10.485,11.435 8.744,10.73 7.671,9.323C6.729,8.068 6.259,6.158 6.259,3.596L6.259,1.089C6.259,-0.607 5.746,-1.901 4.721,-2.794C3.767,-3.637 2.461,-4.058 0.805,-4.058C-0.674,-4.058 -1.854,-3.442 -2.736,-2.214C-3.488,-1.161 -3.94,0.198 -4.095,1.865" style="fill:rgb(41,171,226);fill-rule:nonzero;"/>
        </g>
        <g transform="matrix(1,0,0,1,266.673,350.185)">
            <path d="M0,11.392C-0.274,10.935 -0.62,10.705 -1.037,10.705C-1.406,10.705 -1.699,10.891 -1.913,11.261C-2.128,11.631 -2.235,12.052 -2.235,12.529C-2.235,13.105 -2.11,13.608 -1.86,14.034C-1.586,14.497 -1.216,14.73 -0.75,14.73C-0.417,14.73 -0.14,14.548 0.081,14.185C0.301,13.821 0.411,13.42 0.411,12.981C0.411,12.378 0.275,11.851 0,11.392M-0.286,17.587C-1.561,17.587 -2.634,17.068 -3.504,16.029C-4.339,15.054 -4.756,13.897 -4.756,12.558C-4.756,11.219 -4.339,10.062 -3.504,9.087C-2.634,8.061 -1.561,7.546 -0.286,7.546C1.002,7.546 2.068,8.045 2.915,9.04C3.761,10.033 4.185,11.206 4.185,12.558C4.185,13.91 3.761,15.071 2.915,16.049C2.057,17.073 0.99,17.587 -0.286,17.587M-7.242,-2.348C-7.516,-2.806 -7.862,-3.037 -8.279,-3.037C-8.649,-3.037 -8.941,-2.851 -9.155,-2.481C-9.37,-2.108 -9.477,-1.683 -9.477,-1.204C-9.477,-0.625 -9.352,-0.122 -9.102,0.305C-8.828,0.773 -8.458,1.006 -7.992,1.006C-7.659,1.006 -7.382,0.822 -7.161,0.458C-6.941,0.093 -6.831,-0.311 -6.831,-0.752C-6.831,-1.355 -6.967,-1.889 -7.242,-2.348M-7.528,3.843C-8.804,3.843 -9.876,3.331 -10.746,2.302C-11.57,1.325 -11.981,0.166 -11.981,-1.175C-11.981,-2.516 -11.57,-3.675 -10.746,-4.653C-9.876,-5.681 -8.804,-6.195 -7.528,-6.195C-6.24,-6.195 -5.174,-5.697 -4.328,-4.702C-3.481,-3.704 -3.058,-2.529 -3.058,-1.175C-3.058,0.177 -3.481,1.343 -4.328,2.32C-5.185,3.335 -6.253,3.843 -7.528,3.843M-14.386,11.392C-14.666,10.935 -15.015,10.705 -15.432,10.705C-15.802,10.705 -16.097,10.891 -16.317,11.261C-16.538,11.631 -16.648,12.052 -16.648,12.529C-16.648,13.105 -16.517,13.608 -16.254,14.034C-15.98,14.497 -15.61,14.73 -15.146,14.73C-14.812,14.73 -14.532,14.548 -14.305,14.185C-14.079,13.821 -13.966,13.42 -13.966,12.981C-13.966,12.378 -14.105,11.851 -14.386,11.392M-14.681,17.587C-15.956,17.587 -17.03,17.068 -17.9,16.029C-18.734,15.054 -19.151,13.897 -19.151,12.558C-19.151,11.219 -18.734,10.062 -17.9,9.087C-17.03,8.061 -15.956,7.546 -14.681,7.546C-13.393,7.546 -12.32,8.054 -11.462,9.067C-10.64,10.042 -10.228,11.206 -10.228,12.558C-10.228,13.91 -10.646,15.071 -11.48,16.049C-12.338,17.073 -13.405,17.587 -14.681,17.587" style="fill:rgb(41,171,226);fill-rule:nonzero;"/>
        </g>
        <g transform="matrix(1,0,0,1,272.664,349.668)">
            <path d="M0,18.066L0,0L3.844,0L3.844,15.377L13.804,15.377L13.804,0L17.685,0L17.685,18.066L0,18.066Z" style="fill:rgb(41,171,226);fill-rule:nonzero;"/>
        </g>
        <g transform="matrix(1,0,0,1,280.87,342.598)">
            <path d="M0,5.452C-0.715,5.452 -1.329,5.193 -1.842,4.672C-2.354,4.153 -2.61,3.517 -2.61,2.763C-2.61,1.988 -2.359,1.332 -1.86,0.8C-1.359,0.268 -0.738,0 0,0C0.716,0 1.327,0.272 1.833,0.817C2.341,1.363 2.593,2.012 2.593,2.763C2.593,3.517 2.341,4.153 1.833,4.672C1.327,5.193 0.716,5.452 0,5.452" style="fill:rgb(41,171,226);fill-rule:nonzero;"/>
        </g>
        <g transform="matrix(1,0,0,1,333.801,351.49)">
            <path d="M0,14.553C-1.133,17.146 -3.003,19.17 -5.614,20.624C-5.222,20.648 -4.834,20.661 -4.453,20.661C-2.926,20.661 -1.698,20.36 -0.769,19.759C0.352,19.032 0.913,17.949 0.913,16.508C0.913,15.706 0.607,15.054 0,14.553M-9.71,4.025C-9.806,3.974 -9.901,3.95 -9.996,3.95C-10.557,3.95 -10.836,4.457 -10.836,5.472C-10.836,6.787 -10.473,7.445 -9.746,7.445C-9.269,7.445 -9.03,6.889 -9.03,5.772C-9.03,4.883 -9.256,4.3 -9.71,4.025M-6.598,13.141C-9.721,13.141 -12.463,13.751 -14.823,14.965C-13.644,16.947 -12.017,18.432 -9.943,19.42C-6.736,18.343 -4.559,16.306 -3.416,13.312C-4.309,13.199 -5.37,13.141 -6.598,13.141M-17.078,16.488C-17.96,17.315 -18.401,18.137 -18.401,18.95C-18.401,19.866 -17.603,20.325 -16.005,20.325C-15.229,20.325 -14.473,20.291 -13.733,20.229C-15.045,19.201 -16.16,17.955 -17.078,16.488M5.096,22.242L5.096,6.299C5.096,2.828 4.167,0.027 2.305,-2.106C0.395,-4.287 -2.194,-5.375 -5.464,-5.375C-8.97,-5.375 -11.745,-4.222 -13.784,-1.917C-15.79,0.339 -16.792,3.329 -16.792,7.05C-16.792,9.043 -16.512,10.867 -15.952,12.521C-13.201,11.106 -10.087,10.397 -6.612,10.397C-5.087,10.397 -3.801,10.473 -2.753,10.623C-2.622,9.732 -2.558,8.812 -2.558,7.859C-2.558,5.891 -2.968,4.255 -3.788,2.952C-4.739,1.474 -6.084,0.734 -7.82,0.734C-8.819,0.734 -9.675,0.915 -10.388,1.279C-10.067,1.192 -9.735,1.148 -9.389,1.148C-8.196,1.148 -7.223,1.574 -6.474,2.427C-5.723,3.278 -5.346,4.331 -5.346,5.585C-5.346,6.964 -5.823,8.059 -6.778,8.875C-7.647,9.639 -8.739,10.02 -10.049,10.02C-11.492,10.02 -12.66,9.488 -13.553,8.422C-14.425,7.407 -14.859,6.148 -14.859,4.643C-14.859,2.602 -14.145,0.96 -12.713,-0.282C-11.39,-1.434 -9.757,-2.01 -7.815,-2.01C-5.049,-2.01 -2.826,-1.084 -1.144,0.771C0.501,2.589 1.323,4.951 1.323,7.859C1.323,9.163 1.199,10.397 0.949,11.563C3.462,12.591 4.721,14.227 4.721,16.47C4.721,18.939 3.69,20.775 1.627,21.978C0.007,22.931 -2.021,23.408 -4.453,23.408C-6.372,23.408 -8.232,23.049 -10.032,22.335C-11.975,22.825 -14.121,23.069 -16.47,23.069C-19.604,23.069 -21.171,21.745 -21.171,19.101C-21.171,17.235 -20.225,15.542 -18.33,14.025C-19.177,11.92 -19.598,9.595 -19.598,7.05C-19.598,2.276 -18.334,-1.547 -15.808,-4.417C-13.208,-7.374 -9.65,-8.855 -5.131,-8.855C-1.126,-8.855 2.044,-7.45 4.382,-4.644C6.574,-1.997 7.671,1.449 7.671,5.696L7.671,22.242L5.096,22.242Z" style="fill:rgb(41,171,226);fill-rule:nonzero;"/>
        </g>
        <g transform="matrix(1,0,0,1,358.208,362.6)">
            <path d="M0,-7.877C-0.977,-6.439 -1.465,-4.719 -1.465,-2.717C-1.465,0.348 -0.935,1.882 0.126,1.882C1.068,1.882 1.538,0.273 1.538,-2.941C1.538,-5.018 1.026,-6.662 0,-7.877M-8.511,-2.64C-8.81,-3.16 -9.174,-3.42 -9.602,-3.42C-10.508,-3.42 -10.96,-2.533 -10.96,-0.758C-10.96,0 -10.854,0.663 -10.639,1.235C-10.329,2.004 -9.865,2.39 -9.245,2.39C-8.804,2.39 -8.458,2.066 -8.207,1.421C-8.028,0.911 -7.939,0.384 -7.939,-0.162C-7.939,-1.092 -8.13,-1.919 -8.511,-2.64M11.177,-10.244L11.177,5.133L7.297,5.133L7.297,-10.244L5.818,-10.244C4.44,-10.244 3.378,-10.107 2.629,-9.832C4.466,-7.941 5.384,-5.656 5.384,-2.979C5.384,2.518 3.779,5.264 0.572,5.264C-1.179,5.264 -2.456,4.282 -3.254,2.316C-3.814,0.953 -4.094,-0.687 -4.094,-2.602C-4.094,-5.532 -3.391,-7.848 -1.984,-9.55C-2.997,-10.151 -4.256,-10.452 -5.758,-10.452C-7.618,-10.452 -9.141,-9.907 -10.326,-8.817C-11.512,-7.726 -12.237,-6.259 -12.498,-4.417C-11.556,-5.884 -10.335,-6.616 -8.832,-6.616C-7.237,-6.616 -5.984,-5.993 -5.078,-4.745C-4.267,-3.635 -3.861,-2.252 -3.861,-0.592C-3.861,1.018 -4.326,2.376 -5.257,3.487C-6.222,4.672 -7.474,5.264 -9.012,5.264C-11.302,5.264 -13.024,4.109 -14.181,1.798C-14.812,0.548 -15.127,-1.101 -15.127,-3.152C-15.127,-5.975 -14.243,-8.345 -12.472,-10.264C-10.701,-12.181 -8.476,-13.141 -5.794,-13.141C-3.183,-13.141 -1.133,-12.638 0.359,-11.636C1.742,-12.5 3.757,-12.933 6.403,-12.933L13.68,-12.933L13.68,-10.244L11.177,-10.244Z" style="fill:rgb(41,171,226);fill-rule:nonzero;"/>
        </g>
        <g transform="matrix(1,0,0,1,361.052,342.598)">
            <path d="M0,5.452C-0.714,5.452 -1.328,5.193 -1.842,4.672C-2.354,4.153 -2.611,3.517 -2.611,2.763C-2.611,1.988 -2.361,1.332 -1.86,0.8C-1.359,0.268 -0.738,0 0,0C0.716,0 1.328,0.272 1.833,0.817C2.341,1.363 2.593,2.012 2.593,2.763C2.593,3.517 2.341,4.153 1.833,4.672C1.328,5.193 0.716,5.452 0,5.452" style="fill:rgb(41,171,226);fill-rule:nonzero;"/>
        </g>
        <g transform="matrix(1,0,0,1,404.255,362.207)">
            <path d="M0,-0.076L-0.787,0.279L-1.789,2.839L0,2.839L0,-0.076ZM-5.257,-10.021C-6.306,-10.021 -7.135,-9.631 -7.742,-8.855C-8.327,-8.128 -8.62,-7.189 -8.62,-6.036C-8.62,-4.806 -8.314,-3.786 -7.707,-2.971C-7.064,-2.093 -6.186,-1.654 -5.078,-1.654C-4.745,-1.654 -4.422,-1.712 -4.111,-1.825C-2.979,-4.832 -2.414,-6.723 -2.414,-7.501C-2.414,-9.181 -3.362,-10.021 -5.257,-10.021M-25.07,-2.237C-25.369,-2.765 -25.733,-3.026 -26.161,-3.026C-27.067,-3.026 -27.519,-2.131 -27.519,-0.34C-27.519,0.425 -27.413,1.096 -27.198,1.673C-26.888,2.451 -26.424,2.839 -25.804,2.839C-25.363,2.839 -25.017,2.513 -24.766,1.861C-24.587,1.347 -24.498,0.815 -24.498,0.263C-24.498,-0.677 -24.689,-1.51 -25.07,-2.237M-5.175,1.039C-7.004,1.001 -8.489,0.23 -9.635,-1.273C-10.71,-2.663 -11.248,-4.327 -11.248,-6.269C-11.248,-8.133 -10.652,-9.68 -9.46,-10.905C-8.267,-12.133 -6.782,-12.747 -5.007,-12.747C-0.714,-12.747 1.432,-10.903 1.432,-7.22C1.432,-6.191 1.241,-5.059 0.858,-3.817C1.204,-4.006 1.835,-4.349 2.755,-4.85L2.755,5.527L-2.861,5.527L-5.723,12.671L-9.817,12.671L-6.915,5.527L-19.509,5.527L-19.509,3.852C-18.711,2.723 -18.175,1.617 -17.9,0.538C-17.685,-0.34 -17.579,-1.543 -17.579,-3.075C-17.579,-5.121 -18.108,-6.745 -19.17,-7.951C-20.267,-9.192 -21.768,-9.813 -23.676,-9.813C-25.25,-9.813 -26.584,-9.104 -27.681,-7.683C-28.552,-6.526 -29.053,-5.231 -29.184,-3.797C-28.253,-5.415 -26.989,-6.222 -25.391,-6.222C-23.796,-6.222 -22.543,-5.602 -21.637,-4.363C-20.826,-3.246 -20.42,-1.849 -20.42,-0.169C-20.42,1.447 -20.885,2.814 -21.816,3.929C-22.78,5.119 -24.033,5.716 -25.571,5.716C-27.872,5.716 -29.6,4.523 -30.757,2.14C-31.376,0.873 -31.686,-0.827 -31.686,-2.96C-31.686,-5.746 -30.857,-8.062 -29.201,-9.906C-27.508,-11.799 -25.345,-12.747 -22.71,-12.747C-19.943,-12.747 -17.745,-11.876 -16.111,-10.134C-14.478,-8.392 -13.662,-6.067 -13.662,-3.159C-13.662,-0.714 -14.09,1.285 -14.95,2.839L-5.858,2.839L-5.175,1.039Z" style="fill:rgb(41,171,226);fill-rule:nonzero;"/>
        </g>
        <g transform="matrix(1,0,0,1,411.336,357.789)">
            <path d="M0,-5.001C-0.499,-5.001 -0.749,-4.589 -0.749,-3.762C-0.749,-2.96 -0.547,-2.558 -0.142,-2.558C0.381,-2.558 0.645,-2.971 0.645,-3.797C0.645,-4.6 0.43,-5.001 0,-5.001M-0.16,3.158L-0.16,0.545C3.083,0.545 4.703,-0.546 4.703,-2.727C4.703,-3.454 4.597,-4.012 4.382,-4.4L4.382,-3.649C4.382,-2.47 3.959,-1.51 3.112,-0.772C2.314,-0.083 1.361,0.263 0.25,0.263C-0.749,0.263 -1.642,-0.12 -2.423,-0.883C-3.203,-1.648 -3.593,-2.565 -3.593,-3.638C-3.593,-4.068 -3.515,-4.54 -3.36,-5.059L-6.044,-5.059L-6.044,-8.159L-1.913,-8.159C-1.055,-8.159 -0.363,-8.097 0.162,-7.973C0.687,-8.097 1.104,-8.159 1.414,-8.159C3.083,-8.159 4.442,-7.741 5.49,-6.9C6.683,-5.961 7.279,-4.613 7.279,-2.858C7.279,1.152 4.799,3.158 -0.16,3.158" style="fill:rgb(41,171,226);fill-rule:nonzero;"/>
        </g>
        <g transform="matrix(1,0,0,1,91.7789,387.961)">
            <path d="M0,13.068C1.479,13.857 3.802,14.608 6.19,14.608C8.755,14.608 10.115,13.551 10.115,11.938C10.115,10.433 8.936,9.546 5.98,8.513C1.86,7.061 -0.832,4.834 -0.832,1.254C-0.832,-2.926 2.703,-6.102 8.509,-6.102C11.325,-6.102 13.358,-5.548 14.815,-4.87L13.581,-0.426C12.602,-0.889 10.824,-1.589 8.426,-1.589C5.994,-1.589 4.834,-0.472 4.834,0.782C4.834,2.338 6.202,3.028 9.405,4.227C13.777,5.849 15.802,8.101 15.802,11.567C15.802,15.659 12.645,19.17 5.847,19.17C3.048,19.17 0.247,18.414 -1.129,17.647L0,13.068Z" style="fill:rgb(246,146,32);fill-rule:nonzero;"/>
        </g>
        <g transform="matrix(1,0,0,1,123.375,392.662)">
            <path d="M0,3.666L-1.538,-1.543C-1.962,-2.992 -2.4,-4.827 -2.778,-6.261L-2.856,-6.261C-3.218,-4.821 -3.591,-2.959 -3.986,-1.536L-5.464,3.666L0,3.666ZM-6.274,7.795L-8.016,14.088L-13.79,14.088L-6.253,-10.422L1.055,-10.422L8.743,14.088L2.726,14.088L0.828,7.795L-6.274,7.795Z" style="fill:rgb(246,146,32);fill-rule:nonzero;"/>
        </g>
        <g transform="matrix(1,0,0,1,135.41,382.241)">
            <path d="M0,24.509L0,0L6.505,0L11.632,8.99C13.11,11.558 14.554,14.628 15.667,17.396L15.762,17.385C15.419,14.145 15.312,10.849 15.312,7.145L15.312,0L20.438,0L20.438,24.509L14.589,24.509L9.295,15.071C7.822,12.427 6.202,9.284 5.005,6.412L4.882,6.423C5.055,9.67 5.126,13.139 5.126,17.142L5.126,24.509L0,24.509Z" style="fill:rgb(246,146,32);fill-rule:nonzero;"/>
        </g>
        <g transform="matrix(1,0,0,1,172.684,392.662)">
            <path d="M0,3.666L-1.538,-1.543C-1.962,-2.992 -2.4,-4.827 -2.778,-6.261L-2.856,-6.261C-3.218,-4.821 -3.591,-2.959 -3.986,-1.536L-5.464,3.666L0,3.666ZM-6.274,7.795L-8.016,14.088L-13.79,14.088L-6.253,-10.422L1.055,-10.422L8.743,14.088L2.726,14.088L0.828,7.795L-6.274,7.795Z" style="fill:rgb(246,146,32);fill-rule:nonzero;"/>
        </g>
        <g transform="matrix(1,0,0,1,184.901,387.961)">
            <path d="M0,13.068C1.479,13.857 3.802,14.608 6.19,14.608C8.755,14.608 10.114,13.551 10.114,11.938C10.114,10.433 8.936,9.546 5.98,8.513C1.86,7.061 -0.832,4.834 -0.832,1.254C-0.832,-2.926 2.703,-6.102 8.509,-6.102C11.325,-6.102 13.358,-5.548 14.815,-4.87L13.581,-0.426C12.602,-0.889 10.824,-1.589 8.426,-1.589C5.994,-1.589 4.834,-0.472 4.834,0.782C4.834,2.338 6.202,3.028 9.405,4.227C13.777,5.849 15.802,8.101 15.802,11.567C15.802,15.659 12.645,19.17 5.847,19.17C3.048,19.17 0.247,18.414 -1.129,17.647L0,13.068Z" style="fill:rgb(246,146,32);fill-rule:nonzero;"/>
        </g>
        <g transform="matrix(1,0,0,1,216.497,392.662)">
            <path d="M0,3.666L-1.538,-1.543C-1.962,-2.992 -2.4,-4.827 -2.778,-6.261L-2.856,-6.261C-3.218,-4.821 -3.591,-2.959 -3.986,-1.536L-5.464,3.666L0,3.666ZM-6.274,7.795L-8.016,14.088L-13.79,14.088L-6.253,-10.422L1.055,-10.422L8.743,14.088L2.726,14.088L0.828,7.795L-6.274,7.795Z" style="fill:rgb(246,146,32);fill-rule:nonzero;"/>
        </g>
        <g transform="matrix(1,0,0,1,235.933,406.749)">
            <path d="M0,-24.509L5.583,-24.509L5.583,-4.645L15.409,-4.645L15.409,0L0,0L0,-24.509Z" style="fill:rgb(246,146,32);fill-rule:nonzero;"/>
        </g>
        <g transform="matrix(-1,0,0,1,514.887,304.548)">
            <rect x="254.652" y="77.693" width="5.583" height="24.509" style="fill:rgb(246,146,32);"/>
        </g>
        <g transform="matrix(1,0,0,1,265.093,406.749)">
            <path d="M0,-24.509L15.083,-24.509L15.083,-19.97L5.583,-19.97L5.583,-14.351L14.468,-14.351L14.468,-9.854L5.583,-9.854L5.583,0L0,0L0,-24.509Z" style="fill:rgb(246,146,32);fill-rule:nonzero;"/>
        </g>
        <g transform="matrix(1,0,0,1,299.07,392.608)">
            <path d="M0,3.773L-9.087,3.773L-9.087,9.602L1.072,9.602L1.072,14.141L-14.671,14.141L-14.671,-10.368L0.543,-10.368L0.543,-5.829L-9.087,-5.829L-9.087,-0.722L0,-0.722L0,3.773Z" style="fill:rgb(246,146,32);fill-rule:nonzero;"/>
        </g>
        <g transform="matrix(-1,0,0,1,628.303,304.548)">
            <rect x="311.36" y="77.693" width="5.583" height="24.509" style="fill:rgb(246,146,32);"/>
        </g>
        <g transform="matrix(1,0,0,1,321.799,382.241)">
            <path d="M0,24.509L0,0L6.505,0L11.632,8.99C13.112,11.558 14.555,14.628 15.668,17.396L15.763,17.385C15.42,14.145 15.313,10.849 15.313,7.145L15.313,0L20.44,0L20.44,24.509L14.591,24.509L9.296,15.071C7.824,12.427 6.204,9.284 5.005,6.412L4.883,6.423C5.056,9.67 5.127,13.139 5.127,17.142L5.127,24.509L0,24.509Z" style="fill:rgb(246,146,32);fill-rule:nonzero;"/>
        </g>
        <g transform="matrix(1,0,0,1,347.261,387.961)">
            <path d="M0,13.068C1.478,13.857 3.801,14.608 6.188,14.608C8.753,14.608 10.114,13.551 10.114,11.938C10.114,10.433 8.934,9.546 5.978,8.513C1.86,7.061 -0.833,4.834 -0.833,1.254C-0.833,-2.926 2.702,-6.102 8.507,-6.102C11.324,-6.102 13.356,-5.548 14.815,-4.87L13.58,-0.426C12.6,-0.889 10.823,-1.589 8.425,-1.589C5.993,-1.589 4.832,-0.472 4.832,0.782C4.832,2.338 6.202,3.028 9.404,4.227C13.777,5.849 15.801,8.101 15.801,11.567C15.801,15.659 12.645,19.17 5.845,19.17C3.045,19.17 0.246,18.414 -1.13,17.647L0,13.068Z" style="fill:rgb(246,146,32);fill-rule:nonzero;"/>
        </g>
        <g transform="matrix(1,0,0,1,372.407,407.148)">
            <path d="M0,-24.908L0,-10.812C0,-6.578 1.64,-4.417 4.475,-4.417C7.407,-4.417 9.019,-6.47 9.019,-10.812L9.019,-24.908L14.604,-24.908L14.604,-11.153C14.604,-3.593 10.752,0 4.289,0C-1.946,0 -5.583,-3.431 -5.583,-11.219L-5.583,-24.908L0,-24.908Z" style="fill:rgb(246,146,32);fill-rule:nonzero;"/>
        </g>
        <g transform="matrix(1,0,0,1,397.377,395.682)">
            <path d="M0,-2.566L2.185,-2.566C4.956,-2.566 6.614,-3.967 6.614,-6.097C6.614,-8.34 5.065,-9.488 2.513,-9.503C1.177,-9.503 0.392,-9.415 0,-9.317L0,-2.566ZM-5.534,-13.105C-3.741,-13.407 -1.084,-13.633 1.886,-13.633C5.55,-13.633 8.117,-13.079 9.879,-11.691C11.353,-10.53 12.164,-8.807 12.164,-6.553C12.164,-3.448 9.927,-1.285 7.804,-0.529L7.804,-0.414C9.517,0.273 10.482,1.898 11.104,4.15C11.867,6.923 12.614,10.119 13.097,11.067L7.381,11.067C7.002,10.358 6.386,8.388 5.683,5.356C4.994,2.292 3.959,1.472 1.66,1.444L0,1.444L0,11.067L-5.534,11.067L-5.534,-13.105Z" style="fill:rgb(246,146,32);fill-rule:nonzero;"/>
        </g>
        <g transform="matrix(1,0,0,1,425.894,392.662)">
            <path d="M0,3.666L-1.538,-1.543C-1.962,-2.992 -2.4,-4.827 -2.779,-6.261L-2.857,-6.261C-3.218,-4.821 -3.591,-2.959 -3.987,-1.536L-5.464,3.666L0,3.666ZM-6.272,7.795L-8.017,14.088L-13.791,14.088L-6.253,-10.422L1.055,-10.422L8.742,14.088L2.726,14.088L0.827,7.795L-6.272,7.795Z" style="fill:rgb(246,146,32);fill-rule:nonzero;"/>
        </g>
        <g transform="matrix(1,0,0,1,437.927,382.241)">
            <path d="M0,24.509L0,0L6.505,0L11.632,8.99C13.112,11.558 14.555,14.628 15.668,17.396L15.763,17.385C15.42,14.145 15.313,10.849 15.313,7.145L15.313,0L20.44,0L20.44,24.509L14.591,24.509L9.296,15.071C7.824,12.427 6.204,9.284 5.005,6.412L4.883,6.423C5.056,9.67 5.127,13.139 5.127,17.142L5.127,24.509L0,24.509Z" style="fill:rgb(246,146,32);fill-rule:nonzero;"/>
        </g>
        <g transform="matrix(1,0,0,1,481.32,382.916)">
            <path d="M0,23.158C-1,23.65 -3.338,24.215 -6.312,24.215C-14.863,24.215 -19.272,18.911 -19.272,11.925C-19.272,3.569 -13.237,-1.057 -5.78,-1.057C-2.877,-1.057 -0.672,-0.496 0.297,0.03L-0.84,4.411C-1.95,3.93 -3.537,3.492 -5.532,3.492C-9.938,3.492 -13.389,6.158 -13.389,11.604C-13.389,16.518 -10.473,19.605 -5.499,19.605C-3.788,19.605 -1.939,19.27 -0.831,18.812L0,23.158Z" style="fill:rgb(246,146,32);fill-rule:nonzero;"/>
        </g>
        <g transform="matrix(1,0,0,1,499.672,392.608)">
            <path d="M0,3.773L-9.087,3.773L-9.087,9.602L1.073,9.602L1.073,14.141L-14.671,14.141L-14.671,-10.368L0.543,-10.368L0.543,-5.829L-9.087,-5.829L-9.087,-0.722L0,-0.722L0,3.773Z" style="fill:rgb(246,146,32);fill-rule:nonzero;"/>
        </g>
        <g transform="matrix(1,0,0,1,430.462,373.028)">
            <path d="M0,-20.415L0,-4.022L-9.854,2.689L-9.854,-0.112L-3.845,-5.922L-3.845,-20.415L-7.815,-20.415L-7.815,-5.037L-10.391,-5.037L-10.391,-23.104L3.755,-23.104L3.755,-20.415L0,-20.415Z" style="fill:rgb(41,171,226);fill-rule:nonzero;"/>
        </g>
        <g transform="matrix(1,0,0,1,450.667,362.858)">
            <path d="M0,-7.877C-0.977,-6.439 -1.465,-4.719 -1.465,-2.717C-1.465,0.348 -0.935,1.882 0.126,1.882C1.068,1.882 1.538,0.273 1.538,-2.941C1.538,-5.018 1.026,-6.662 0,-7.877M-8.511,-2.64C-8.81,-3.16 -9.174,-3.42 -9.602,-3.42C-10.508,-3.42 -10.96,-2.533 -10.96,-0.758C-10.96,0 -10.854,0.663 -10.639,1.235C-10.329,2.004 -9.865,2.389 -9.245,2.389C-8.804,2.389 -8.458,2.066 -8.207,1.421C-8.028,0.911 -7.939,0.384 -7.939,-0.162C-7.939,-1.093 -8.13,-1.919 -8.511,-2.64M11.177,-10.244L11.177,5.133L7.297,5.133L7.297,-10.244L5.818,-10.244C4.44,-10.244 3.378,-10.107 2.629,-9.832C4.466,-7.941 5.384,-5.656 5.384,-2.979C5.384,2.518 3.779,5.264 0.572,5.264C-1.179,5.264 -2.456,4.282 -3.254,2.316C-3.814,0.953 -4.094,-0.687 -4.094,-2.602C-4.094,-5.532 -3.391,-7.848 -1.984,-9.55C-2.997,-10.151 -4.256,-10.453 -5.758,-10.453C-7.618,-10.453 -9.141,-9.907 -10.326,-8.817C-11.512,-7.726 -12.237,-6.259 -12.498,-4.417C-11.556,-5.884 -10.335,-6.616 -8.832,-6.616C-7.237,-6.616 -5.984,-5.993 -5.078,-4.745C-4.267,-3.635 -3.861,-2.252 -3.861,-0.592C-3.861,1.018 -4.326,2.376 -5.257,3.487C-6.221,4.672 -7.474,5.264 -9.012,5.264C-11.302,5.264 -13.024,4.109 -14.181,1.798C-14.812,0.548 -15.127,-1.101 -15.127,-3.152C-15.127,-5.975 -14.243,-8.345 -12.472,-10.264C-10.701,-12.181 -8.476,-13.141 -5.794,-13.141C-3.183,-13.141 -1.133,-12.638 0.359,-11.636C1.742,-12.5 3.757,-12.933 6.403,-12.933L13.68,-12.933L13.68,-10.244L11.177,-10.244Z" style="fill:rgb(41,171,226);fill-rule:nonzero;"/>
        </g>
        <g transform="matrix(1,0,0,1,453.51,342.855)">
            <path d="M0,5.452C-0.714,5.452 -1.328,5.193 -1.842,4.672C-2.354,4.153 -2.611,3.517 -2.611,2.763C-2.611,1.988 -2.361,1.332 -1.86,0.8C-1.359,0.268 -0.738,0 0,0C0.716,0 1.328,0.272 1.833,0.817C2.341,1.363 2.593,2.012 2.593,2.763C2.593,3.517 2.341,4.153 1.833,4.672C1.328,5.193 0.716,5.452 0,5.452" style="fill:rgb(41,171,226);fill-rule:nonzero;"/>
        </g>
        <g transform="matrix(1,0,0,1,471.678,356.701)">
            <path d="M0,3.517C-0.297,2.996 -0.66,2.737 -1.09,2.737C-1.997,2.737 -2.449,3.623 -2.449,5.399C-2.449,6.157 -2.343,6.819 -2.128,7.391C-1.817,8.16 -1.352,8.546 -0.734,8.546C-0.293,8.546 0.053,8.222 0.304,7.578C0.483,7.068 0.572,6.54 0.572,5.995C0.572,5.064 0.381,4.237 0,3.517M8.923,-4.183C9.83,-5.963 11.33,-6.851 13.429,-6.851C17.078,-6.851 18.902,-4.721 18.902,-0.459L18.902,3.632C18.902,5.339 19.032,6.516 19.294,7.163C19.675,8.085 20.462,8.546 21.655,8.546C23.073,8.546 24.128,7.759 24.82,6.183C25.334,4.984 25.589,3.493 25.589,1.706C25.589,-0.73 24.992,-2.503 23.802,-3.615C23.609,-3.788 22.9,-4.052 21.672,-4.402C20.444,-4.75 19.83,-5.413 19.83,-6.388C19.83,-7.399 20.398,-7.904 21.53,-7.904C23.341,-7.904 24.992,-6.747 26.484,-4.431C27.639,-2.651 28.217,-0.599 28.217,1.731C28.217,4.209 27.759,6.325 26.839,8.078C25.682,10.308 23.962,11.421 21.681,11.421C19.272,11.421 17.528,10.72 16.455,9.317C15.499,8.067 15.021,6.163 15.021,3.61L15.021,1.263C15.021,-0.727 14.843,-2.224 14.487,-3.225C14.296,-3.724 13.762,-3.977 12.884,-3.977C12.124,-3.977 11.543,-3.531 11.14,-2.64C10.829,-1.913 10.677,-1.049 10.677,-0.047L10.677,11.328L6.669,11.328L6.669,1.043C6.669,-0.61 6.224,-1.902 5.328,-2.829C4.435,-3.757 3.201,-4.221 1.627,-4.221C-0.029,-4.221 -1.376,-3.611 -2.414,-2.396C-3.38,-1.282 -3.941,0.161 -4.094,1.928C-3.165,0.336 -1.906,-0.459 -0.321,-0.459C1.277,-0.459 2.527,0.157 3.433,1.391C4.244,2.502 4.65,3.894 4.65,5.565C4.65,7.174 4.185,8.533 3.254,9.643C2.29,10.829 1.037,11.421 -0.501,11.421C-2.802,11.421 -4.53,10.235 -5.685,7.861C-6.306,6.598 -6.616,4.904 -6.616,2.781C-6.616,0.019 -5.769,-2.31 -4.076,-4.209C-2.385,-6.109 -0.226,-7.06 2.396,-7.06C5.519,-7.06 7.695,-6.1 8.923,-4.183" style="fill:rgb(41,171,226);fill-rule:nonzero;"/>
        </g>
        <g transform="matrix(1,0,0,1,489.846,342.855)">
            <path d="M0,5.452C-0.714,5.452 -1.328,5.193 -1.842,4.672C-2.354,4.153 -2.611,3.517 -2.611,2.763C-2.611,1.988 -2.361,1.332 -1.86,0.8C-1.359,0.268 -0.738,0 0,0C0.716,0 1.328,0.272 1.833,0.817C2.341,1.363 2.593,2.012 2.593,2.763C2.593,3.517 2.341,4.153 1.833,4.672C1.328,5.193 0.716,5.452 0,5.452" style="fill:rgb(41,171,226);fill-rule:nonzero;"/>
        </g>
    </g>
</svg>
